<svg width="154" height="73" viewBox="0 0 154 73" fill="none" xmlns="http://www.w3.org/2000/svg">
<g filter="url(#filter0_d_1_2528)">
<rect x="18.4255" y="16" width="117" height="35" rx="11.8006" fill="white" shape-rendering="crispEdges"/>
<path d="M44.4246 39.9457C44.4246 39.9457 49.5826 37.3667 49.5826 33.4981V28.9848L44.4246 27.0505L39.2665 28.9848V33.4981C39.2665 37.3667 44.4246 39.9457 44.4246 39.9457Z" stroke="#DA45FF" stroke-width="1.28952" stroke-linecap="round" stroke-linejoin="round"/>
<path d="M57.6608 28.9218V38.5H56.2157V28.9218H57.6608ZM61.0516 34.2347V38.5H59.6532V31.3163H60.9954V32.4855H61.0843C61.2496 32.1052 61.5083 31.7996 61.8607 31.5689C62.2161 31.3382 62.6635 31.2228 63.2029 31.2228C63.6924 31.2228 64.1212 31.3257 64.4891 31.5315C64.857 31.7341 65.1423 32.0366 65.3449 32.4388C65.5476 32.841 65.6489 33.3383 65.6489 33.9307V38.5H64.2506V34.0991C64.2506 33.5784 64.1149 33.1715 63.8437 32.8784C63.5724 32.5822 63.1998 32.4341 62.7259 32.4341C62.4016 32.4341 62.1132 32.5043 61.8607 32.6446C61.6112 32.7849 61.4132 32.9906 61.2667 33.2619C61.1233 33.53 61.0516 33.8543 61.0516 34.2347ZM72.9074 33.0702L71.64 33.2946C71.587 33.1325 71.5028 32.9782 71.3875 32.8316C71.2752 32.6851 71.1224 32.5651 70.9291 32.4715C70.7358 32.378 70.4942 32.3312 70.2042 32.3312C69.8082 32.3312 69.4777 32.4201 69.2127 32.5978C68.9477 32.7724 68.8152 32.9984 68.8152 33.2759C68.8152 33.516 68.904 33.7093 69.0818 33.8559C69.2595 34.0024 69.5463 34.1224 69.9423 34.216L71.0835 34.4779C71.7445 34.6307 72.2371 34.8661 72.5614 35.1841C72.8856 35.5021 73.0477 35.9152 73.0477 36.4235C73.0477 36.8537 72.923 37.2372 72.6736 37.574C72.4273 37.9076 72.0828 38.1695 71.64 38.3597C71.2004 38.5499 70.6906 38.645 70.1107 38.645C69.3062 38.645 68.6499 38.4735 68.1417 38.1305C67.6335 37.7844 67.3217 37.2934 67.2063 36.6573L68.558 36.4515C68.6421 36.8039 68.8152 37.0704 69.0771 37.2513C69.339 37.429 69.6804 37.5179 70.1013 37.5179C70.5597 37.5179 70.926 37.4228 71.2004 37.2326C71.4748 37.0393 71.6119 36.8039 71.6119 36.5264C71.6119 36.3019 71.5278 36.1132 71.3594 35.9605C71.1941 35.8077 70.94 35.6923 70.5971 35.6144L69.3811 35.3478C68.7107 35.195 68.215 34.9518 67.8938 34.6182C67.5758 34.2846 67.4168 33.8621 67.4168 33.3508C67.4168 32.9267 67.5353 32.5557 67.7722 32.2377C68.0092 31.9196 68.3366 31.6718 68.7544 31.494C69.1722 31.3132 69.6508 31.2228 70.1902 31.2228C70.9665 31.2228 71.5776 31.3912 72.0235 31.7279C72.4694 32.0615 72.764 32.5089 72.9074 33.0702ZM79.1359 35.5208V31.3163H80.5389V38.5H79.1639V37.256H79.0891C78.9238 37.6395 78.6588 37.959 78.294 38.2147C77.9323 38.4673 77.4818 38.5935 76.9424 38.5935C76.481 38.5935 76.0725 38.4922 75.7171 38.2895C75.3647 38.0838 75.0873 37.7798 74.8846 37.3776C74.685 36.9753 74.5853 36.478 74.5853 35.8856V31.3163H75.9837V35.7173C75.9837 36.2068 76.1193 36.5965 76.3905 36.8865C76.6618 37.1764 77.0141 37.3214 77.4475 37.3214C77.7094 37.3214 77.9698 37.256 78.2285 37.125C78.4905 36.994 78.7071 36.7961 78.8786 36.531C79.0532 36.266 79.139 35.9293 79.1359 35.5208ZM82.4179 38.5V31.3163H83.7695V32.4575H83.8443C83.9753 32.0709 84.206 31.7669 84.5365 31.5455C84.8701 31.321 85.2474 31.2088 85.6683 31.2088C85.7556 31.2088 85.8585 31.2119 85.977 31.2181C86.0986 31.2243 86.1937 31.2321 86.2622 31.2415V32.5791C86.2061 32.5635 86.1063 32.5463 85.9629 32.5276C85.8195 32.5058 85.6761 32.4949 85.5327 32.4949C85.2022 32.4949 84.9075 32.5651 84.6487 32.7054C84.3931 32.8425 84.1904 33.0343 84.0407 33.2806C83.8911 33.5238 83.8162 33.8013 83.8162 34.1131V38.5H82.4179ZM89.4986 38.659C89.0434 38.659 88.6319 38.5748 88.2639 38.4065C87.896 38.235 87.6045 37.9871 87.3894 37.6628C87.1774 37.3386 87.0713 36.941 87.0713 36.4702C87.0713 36.0649 87.1493 35.7313 87.3052 35.4694C87.4611 35.2075 87.6715 35.0001 87.9366 34.8474C88.2016 34.6946 88.4978 34.5792 88.8252 34.5013C89.1526 34.4233 89.4862 34.3641 89.826 34.3236C90.2563 34.2737 90.6055 34.2331 90.8736 34.202C91.1418 34.1677 91.3367 34.1131 91.4582 34.0383C91.5798 33.9634 91.6406 33.8418 91.6406 33.6735V33.6407C91.6406 33.2323 91.5253 32.9158 91.2946 32.6913C91.067 32.4668 90.7271 32.3546 90.275 32.3546C89.8042 32.3546 89.4332 32.459 89.1619 32.6679C88.8938 32.8737 88.7082 33.1029 88.6054 33.3554L87.2912 33.0561C87.4471 32.6196 87.6747 32.2673 87.974 31.9991C88.2764 31.7279 88.6241 31.5315 89.0169 31.4099C89.4098 31.2851 89.8229 31.2228 90.2563 31.2228C90.5431 31.2228 90.8471 31.2571 91.1683 31.3257C91.4925 31.3912 91.795 31.5128 92.0756 31.6905C92.3593 31.8682 92.5916 32.1223 92.7724 32.4528C92.9533 32.7802 93.0437 33.2058 93.0437 33.7296V38.5H91.6781V37.5179H91.6219C91.5315 37.6987 91.3959 37.8764 91.2151 38.051C91.0342 38.2256 90.8019 38.3706 90.5182 38.486C90.2345 38.6013 89.8946 38.659 89.4986 38.659ZM89.8026 37.5366C90.1893 37.5366 90.5198 37.4602 90.7941 37.3074C91.0716 37.1546 91.2821 36.9551 91.4255 36.7088C91.5721 36.4593 91.6453 36.1927 91.6453 35.909V34.983C91.5954 35.0329 91.4988 35.0796 91.3554 35.1233C91.2151 35.1638 91.0545 35.1997 90.8736 35.2309C90.6928 35.2589 90.5166 35.2854 90.3452 35.3104C90.1737 35.3322 90.0302 35.3509 89.9149 35.3665C89.6436 35.4008 89.3957 35.4585 89.1713 35.5395C88.9499 35.6206 88.7722 35.7375 88.6381 35.8903C88.5071 36.04 88.4417 36.2395 88.4417 36.4889C88.4417 36.835 88.5695 37.0969 88.8252 37.2747C89.0808 37.4493 89.4067 37.5366 89.8026 37.5366ZM96.3047 34.2347V38.5H94.9063V31.3163H96.2485V32.4855H96.3374C96.5026 32.1052 96.7614 31.7996 97.1138 31.5689C97.4692 31.3382 97.9166 31.2228 98.456 31.2228C98.9455 31.2228 99.3742 31.3257 99.7422 31.5315C100.11 31.7341 100.395 32.0366 100.598 32.4388C100.801 32.841 100.902 33.3383 100.902 33.9307V38.5H99.5036V34.0991C99.5036 33.5784 99.368 33.1715 99.0967 32.8784C98.8255 32.5822 98.4529 32.4341 97.979 32.4341C97.6547 32.4341 97.3663 32.5043 97.1138 32.6446C96.8643 32.7849 96.6663 32.9906 96.5198 33.2619C96.3764 33.53 96.3047 33.8543 96.3047 34.2347ZM105.803 38.645C105.108 38.645 104.509 38.4875 104.007 38.1726C103.509 37.8546 103.125 37.4165 102.857 36.8584C102.589 36.3003 102.455 35.6611 102.455 34.9409C102.455 34.2113 102.592 33.5675 102.866 33.0094C103.141 32.4481 103.527 32.0101 104.026 31.6952C104.525 31.3802 105.113 31.2228 105.789 31.2228C106.335 31.2228 106.821 31.3241 107.249 31.5268C107.676 31.7263 108.02 32.0069 108.282 32.3686C108.547 32.7303 108.705 33.1528 108.754 33.6361H107.394C107.319 33.2993 107.147 33.0094 106.879 32.7662C106.614 32.523 106.259 32.4014 105.813 32.4014C105.423 32.4014 105.082 32.5043 104.789 32.71C104.499 32.9127 104.272 33.2027 104.11 33.5799C103.948 33.9541 103.867 34.3968 103.867 34.9082C103.867 35.432 103.947 35.8841 104.106 36.2645C104.265 36.6448 104.489 36.9395 104.779 37.1484C105.072 37.3573 105.417 37.4617 105.813 37.4617C106.078 37.4617 106.318 37.4134 106.533 37.3168C106.751 37.217 106.934 37.0751 107.08 36.8912C107.23 36.7072 107.334 36.4858 107.394 36.227H108.754C108.705 36.6916 108.553 37.1063 108.301 37.4711C108.048 37.8359 107.71 38.1227 107.286 38.3316C106.865 38.5405 106.371 38.645 105.803 38.645ZM113.346 38.645C112.638 38.645 112.029 38.4938 111.517 38.1913C111.009 37.8858 110.616 37.4571 110.339 36.9052C110.064 36.3502 109.927 35.7001 109.927 34.9549C109.927 34.2191 110.064 33.5706 110.339 33.0094C110.616 32.4481 111.003 32.0101 111.499 31.6952C111.998 31.3802 112.581 31.2228 113.248 31.2228C113.653 31.2228 114.046 31.2898 114.426 31.4239C114.807 31.558 115.148 31.7684 115.451 32.0553C115.753 32.3421 115.992 32.7147 116.166 33.173C116.341 33.6283 116.428 34.1817 116.428 34.8333V35.3291H110.718V34.2815H115.058C115.058 33.9135 114.983 33.5877 114.833 33.304C114.684 33.0171 114.473 32.7911 114.202 32.6258C113.934 32.4606 113.619 32.378 113.257 32.378C112.864 32.378 112.521 32.4746 112.228 32.6679C111.938 32.8581 111.714 33.1076 111.555 33.4162C111.399 33.7218 111.321 34.0539 111.321 34.4124V35.2309C111.321 35.711 111.405 36.1195 111.573 36.4562C111.745 36.7929 111.983 37.0502 112.289 37.2279C112.595 37.4025 112.952 37.4898 113.36 37.4898C113.625 37.4898 113.867 37.4524 114.085 37.3776C114.303 37.2996 114.492 37.1842 114.651 37.0315C114.81 36.8787 114.931 36.6901 115.016 36.4656L116.339 36.7041C116.233 37.0938 116.043 37.4352 115.769 37.7283C115.497 38.0183 115.156 38.2443 114.744 38.4065C114.336 38.5655 113.87 38.645 113.346 38.645Z" fill="#1C242D"/>
<rect x="19.2205" y="16.795" width="115.41" height="33.41" rx="11.0056" stroke="#BFE4FF" stroke-width="1.59" shape-rendering="crispEdges"/>
</g>
<defs>
<filter id="filter0_d_1_2528" x="0.0552559" y="0.691458" width="153.741" height="71.7405" filterUnits="userSpaceOnUse" color-interpolation-filters="sRGB">
<feFlood flood-opacity="0" result="BackgroundImageFix"/>
<feColorMatrix in="SourceAlpha" type="matrix" values="0 0 0 0 0 0 0 0 0 0 0 0 0 0 0 0 0 0 127 0" result="hardAlpha"/>
<feOffset dy="3.06171"/>
<feGaussianBlur stdDeviation="9.18513"/>
<feComposite in2="hardAlpha" operator="out"/>
<feColorMatrix type="matrix" values="0 0 0 0 0 0 0 0 0 0.635294 0 0 0 0 0.996078 0 0 0 0.1 0"/>
<feBlend mode="normal" in2="BackgroundImageFix" result="effect1_dropShadow_1_2528"/>
<feBlend mode="normal" in="SourceGraphic" in2="effect1_dropShadow_1_2528" result="shape"/>
</filter>
</defs>
</svg>
