<svg width="148" height="73" viewBox="0 0 148 73" fill="none" xmlns="http://www.w3.org/2000/svg">
<g filter="url(#filter0_d_1_2518)">
<rect x="18.4255" y="16" width="111" height="35" rx="11.8006" fill="white" shape-rendering="crispEdges"/>
<path d="M44.4204 28.5322V31.3715" stroke="#FFC121" stroke-width="1.41964" stroke-linecap="round" stroke-linejoin="round"/>
<path d="M45.131 31.3726H43.7113C43.3193 31.3726 43.0015 31.6904 43.0015 32.0824V34.9217C43.0015 35.3137 43.3193 35.6315 43.7113 35.6315H45.131C45.523 35.6315 45.8408 35.3137 45.8408 34.9217V32.0824C45.8408 31.6904 45.523 31.3726 45.131 31.3726Z" stroke="#FFC121" stroke-width="1.41964" stroke-linecap="round" stroke-linejoin="round"/>
<path d="M44.4204 35.6296V37.0493" stroke="#FFC121" stroke-width="1.41964" stroke-linecap="round" stroke-linejoin="round"/>
<path d="M50.1004 27.1141V28.5338" stroke="#FFC121" stroke-width="1.41964" stroke-linecap="round" stroke-linejoin="round"/>
<path d="M50.809 28.5322H49.3893C48.9973 28.5322 48.6795 28.85 48.6795 29.242V33.501C48.6795 33.893 48.9973 34.2108 49.3893 34.2108H50.809C51.201 34.2108 51.5188 33.893 51.5188 33.501V29.242C51.5188 28.85 51.201 28.5322 50.809 28.5322Z" stroke="#FFC121" stroke-width="1.41964" stroke-linecap="round" stroke-linejoin="round"/>
<path d="M50.1004 34.2115V36.341" stroke="#FFC121" stroke-width="1.41964" stroke-linecap="round" stroke-linejoin="round"/>
<path d="M40.1626 27.1141V39.8909H52.9393" stroke="#FFC121" stroke-width="1.41964" stroke-linecap="round" stroke-linejoin="round"/>
<path d="M66.0951 31.4379C66.0452 30.9952 65.8394 30.6522 65.4777 30.409C65.1161 30.1627 64.6608 30.0395 64.1121 30.0395C63.7192 30.0395 63.3794 30.1019 63.0925 30.2266C62.8057 30.3482 62.5828 30.5166 62.4237 30.7317C62.2678 30.9437 62.1899 31.1854 62.1899 31.4566C62.1899 31.6842 62.2429 31.8807 62.3489 32.0459C62.458 32.2112 62.5999 32.3499 62.7745 32.4622C62.9522 32.5713 63.1424 32.6633 63.3451 32.7381C63.5478 32.8098 63.7426 32.869 63.9297 32.9158L64.8651 33.159C65.1706 33.2338 65.484 33.3352 65.8051 33.463C66.1263 33.5908 66.424 33.7592 66.6984 33.9681C66.9728 34.177 67.1942 34.4358 67.3625 34.7445C67.534 35.0531 67.6197 35.4226 67.6197 35.8529C67.6197 36.3954 67.4794 36.8771 67.1988 37.298C66.9213 37.719 66.5176 38.051 65.9875 38.2942C65.4606 38.5374 64.823 38.659 64.0747 38.659C63.3576 38.659 62.7371 38.5452 62.2133 38.3176C61.6895 38.09 61.2795 37.7673 60.9833 37.3495C60.6871 36.9286 60.5234 36.4297 60.4922 35.8529H61.942C61.9701 36.199 62.0823 36.4874 62.2788 36.7181C62.4783 36.9457 62.7324 37.1156 63.0411 37.2279C63.3529 37.337 63.6943 37.3916 64.0653 37.3916C64.4738 37.3916 64.837 37.3277 65.155 37.1998C65.4762 37.0689 65.7287 36.888 65.9127 36.6573C66.0966 36.4235 66.1886 36.1507 66.1886 35.8389C66.1886 35.5551 66.1076 35.3228 65.9454 35.142C65.7864 34.9612 65.5697 34.8115 65.2953 34.693C65.0241 34.5745 64.717 34.4701 64.374 34.3797L63.2422 34.071C62.4752 33.8621 61.8672 33.555 61.4182 33.1497C60.9724 32.7443 60.7494 32.208 60.7494 31.5408C60.7494 30.9889 60.8991 30.5072 61.1984 30.0957C61.4977 29.6841 61.9031 29.3645 62.4144 29.1369C62.9257 28.9062 63.5025 28.7908 64.1448 28.7908C64.7934 28.7908 65.3655 28.9046 65.8612 29.1322C66.3601 29.3598 66.753 29.6732 67.0398 30.0723C67.3267 30.4683 67.4763 30.9235 67.4888 31.4379H66.0951ZM71.325 38.659C70.8698 38.659 70.4582 38.5748 70.0903 38.4065C69.7224 38.235 69.4309 37.9871 69.2157 37.6628C69.0037 37.3386 68.8977 36.941 68.8977 36.4702C68.8977 36.0649 68.9756 35.7313 69.1315 35.4694C69.2874 35.2075 69.4979 35.0001 69.7629 34.8474C70.0279 34.6946 70.3241 34.5792 70.6515 34.5013C70.9789 34.4233 71.3125 34.3641 71.6524 34.3236C72.0827 34.2737 72.4319 34.2331 72.7 34.202C72.9681 34.1677 73.163 34.1131 73.2846 34.0383C73.4062 33.9634 73.467 33.8418 73.467 33.6735V33.6407C73.467 33.2323 73.3516 32.9158 73.1209 32.6913C72.8933 32.4668 72.5535 32.3546 72.1014 32.3546C71.6306 32.3546 71.2595 32.459 70.9883 32.6679C70.7201 32.8737 70.5346 33.1029 70.4317 33.3554L69.1175 33.0561C69.2734 32.6196 69.501 32.2673 69.8003 31.9991C70.1028 31.7279 70.4504 31.5315 70.8433 31.4099C71.2361 31.2851 71.6493 31.2228 72.0827 31.2228C72.3695 31.2228 72.6735 31.2571 72.9946 31.3257C73.3189 31.3912 73.6213 31.5128 73.902 31.6905C74.1857 31.8682 74.418 32.1223 74.5988 32.4528C74.7796 32.7802 74.8701 33.2058 74.8701 33.7296V38.5H73.5044V37.5179H73.4483C73.3579 37.6987 73.2222 37.8764 73.0414 38.051C72.8606 38.2256 72.6283 38.3706 72.3446 38.486C72.0608 38.6013 71.721 38.659 71.325 38.659ZM71.629 37.5366C72.0156 37.5366 72.3461 37.4602 72.6205 37.3074C72.898 37.1546 73.1084 36.9551 73.2519 36.7088C73.3984 36.4593 73.4717 36.1927 73.4717 35.909V34.983C73.4218 35.0329 73.3251 35.0796 73.1817 35.1233C73.0414 35.1638 72.8808 35.1997 72.7 35.2309C72.5192 35.2589 72.343 35.2854 72.1715 35.3104C72 35.3322 71.8566 35.3509 71.7412 35.3665C71.47 35.4008 71.2221 35.4585 70.9976 35.5395C70.7762 35.6206 70.5985 35.7375 70.4645 35.8903C70.3335 36.04 70.268 36.2395 70.268 36.4889C70.268 36.835 70.3959 37.0969 70.6515 37.2747C70.9072 37.4493 71.233 37.5366 71.629 37.5366ZM82.6208 31.3163L80.0158 38.5H78.5192L75.9095 31.3163H77.4108L79.2301 36.8444H79.3049L81.1195 31.3163H82.6208ZM83.935 38.5V31.3163H85.3334V38.5H83.935ZM84.6412 30.2079C84.398 30.2079 84.1891 30.1268 84.0145 29.9647C83.843 29.7995 83.7573 29.603 83.7573 29.3754C83.7573 29.1447 83.843 28.9483 84.0145 28.7861C84.1891 28.6209 84.398 28.5383 84.6412 28.5383C84.8844 28.5383 85.0918 28.6209 85.2632 28.7861C85.4378 28.9483 85.5251 29.1447 85.5251 29.3754C85.5251 29.603 85.4378 29.7995 85.2632 29.9647C85.0918 30.1268 84.8844 30.2079 84.6412 30.2079ZM88.613 34.2347V38.5H87.2147V31.3163H88.5569V32.4855H88.6458C88.811 32.1052 89.0698 31.7996 89.4221 31.5689C89.7776 31.3382 90.225 31.2228 90.7644 31.2228C91.2539 31.2228 91.6826 31.3257 92.0506 31.5315C92.4185 31.7341 92.7038 32.0366 92.9064 32.4388C93.1091 32.841 93.2104 33.3383 93.2104 33.9307V38.5H91.812V34.0991C91.812 33.5784 91.6764 33.1715 91.4051 32.8784C91.1339 32.5822 90.7613 32.4341 90.2874 32.4341C89.9631 32.4341 89.6747 32.5043 89.4221 32.6446C89.1727 32.7849 88.9747 32.9906 88.8282 33.2619C88.6848 33.53 88.613 33.8543 88.613 34.2347ZM98.0977 41.3435C97.5272 41.3435 97.0361 41.2687 96.6245 41.119C96.2161 40.9694 95.8825 40.7714 95.6237 40.5251C95.3649 40.2788 95.1716 40.0091 95.0437 39.716L96.2457 39.2202C96.3299 39.3574 96.4421 39.5024 96.5824 39.6552C96.7259 39.8111 96.9192 39.9436 97.1624 40.0527C97.4087 40.1618 97.7252 40.2164 98.1118 40.2164C98.6418 40.2164 99.0799 40.087 99.426 39.8282C99.7721 39.5726 99.9451 39.1641 99.9451 38.6029V37.1905H99.8562C99.7721 37.3433 99.6505 37.5132 99.4915 37.7003C99.3356 37.8873 99.1204 38.0495 98.846 38.1866C98.5717 38.3238 98.2147 38.3924 97.775 38.3924C97.2076 38.3924 96.6962 38.2599 96.241 37.9949C95.7889 37.7268 95.4304 37.3323 95.1653 36.8116C94.9034 36.2878 94.7725 35.644 94.7725 34.8801C94.7725 34.1162 94.9019 33.4615 95.1607 32.9158C95.4226 32.3702 95.7811 31.9524 96.2364 31.6624C96.6916 31.3693 97.2076 31.2228 97.7844 31.2228C98.2303 31.2228 98.5904 31.2976 98.8648 31.4473C99.1391 31.5938 99.3527 31.7653 99.5055 31.9617C99.6614 32.1582 99.7814 32.3312 99.8656 32.4809H99.9685V31.3163H101.339V38.659C101.339 39.2764 101.195 39.783 100.909 40.179C100.622 40.575 100.234 40.8681 99.744 41.0582C99.2576 41.2484 98.7089 41.3435 98.0977 41.3435ZM98.0837 37.2326C98.4859 37.2326 98.8258 37.139 99.1033 36.952C99.3839 36.7618 99.5959 36.4905 99.7393 36.1382C99.8859 35.7827 99.9591 35.3571 99.9591 34.8614C99.9591 34.3781 99.8874 33.9525 99.744 33.5846C99.6006 33.2167 99.3901 32.9298 99.1126 32.7241C98.8351 32.5152 98.4922 32.4107 98.0837 32.4107C97.6628 32.4107 97.312 32.5198 97.0314 32.7381C96.7508 32.9532 96.5388 33.2463 96.3954 33.6173C96.2551 33.9884 96.1849 34.4031 96.1849 34.8614C96.1849 35.3322 96.2566 35.7453 96.4 36.1008C96.5435 36.4562 96.7555 36.7337 97.0361 36.9332C97.3198 37.1328 97.669 37.2326 98.0837 37.2326ZM108.597 33.0702L107.33 33.2946C107.277 33.1325 107.193 32.9782 107.077 32.8316C106.965 32.6851 106.812 32.5651 106.619 32.4715C106.426 32.378 106.184 32.3312 105.894 32.3312C105.498 32.3312 105.168 32.4201 104.903 32.5978C104.638 32.7724 104.505 32.9984 104.505 33.2759C104.505 33.516 104.594 33.7093 104.772 33.8559C104.949 34.0024 105.236 34.1224 105.632 34.216L106.773 34.4779C107.434 34.6307 107.927 34.8661 108.251 35.1841C108.575 35.5021 108.738 35.9152 108.738 36.4235C108.738 36.8537 108.613 37.2372 108.363 37.574C108.117 37.9076 107.773 38.1695 107.33 38.3597C106.89 38.5499 106.38 38.645 105.801 38.645C104.996 38.645 104.34 38.4735 103.832 38.1305C103.323 37.7844 103.012 37.2934 102.896 36.6573L104.248 36.4515C104.332 36.8039 104.505 37.0704 104.767 37.2513C105.029 37.429 105.37 37.5179 105.791 37.5179C106.25 37.5179 106.616 37.4228 106.89 37.2326C107.165 37.0393 107.302 36.8039 107.302 36.5264C107.302 36.3019 107.218 36.1132 107.049 35.9605C106.884 35.8077 106.63 35.6923 106.287 35.6144L105.071 35.3478C104.401 35.195 103.905 34.9518 103.584 34.6182C103.266 34.2846 103.107 33.8621 103.107 33.3508C103.107 32.9267 103.225 32.5557 103.462 32.2377C103.699 31.9196 104.026 31.6718 104.444 31.494C104.862 31.3132 105.341 31.2228 105.88 31.2228C106.656 31.2228 107.268 31.3912 107.713 31.7279C108.159 32.0615 108.454 32.5089 108.597 33.0702Z" fill="#1C242D"/>
<rect x="19.2205" y="16.795" width="109.41" height="33.41" rx="11.0056" stroke="#BFE4FF" stroke-width="1.59" shape-rendering="crispEdges"/>
</g>
<defs>
<filter id="filter0_d_1_2518" x="0.0552559" y="0.691458" width="147.741" height="71.7405" filterUnits="userSpaceOnUse" color-interpolation-filters="sRGB">
<feFlood flood-opacity="0" result="BackgroundImageFix"/>
<feColorMatrix in="SourceAlpha" type="matrix" values="0 0 0 0 0 0 0 0 0 0 0 0 0 0 0 0 0 0 127 0" result="hardAlpha"/>
<feOffset dy="3.06171"/>
<feGaussianBlur stdDeviation="9.18513"/>
<feComposite in2="hardAlpha" operator="out"/>
<feColorMatrix type="matrix" values="0 0 0 0 0 0 0 0 0 0.635294 0 0 0 0 0.996078 0 0 0 0.1 0"/>
<feBlend mode="normal" in2="BackgroundImageFix" result="effect1_dropShadow_1_2518"/>
<feBlend mode="normal" in="SourceGraphic" in2="effect1_dropShadow_1_2518" result="shape"/>
</filter>
</defs>
</svg>
