<svg width="190" height="73" viewBox="0 0 190 73" fill="none" xmlns="http://www.w3.org/2000/svg">
<g filter="url(#filter0_d_1_2511)">
<rect x="19" y="16" width="152.426" height="35.04" rx="10.2048" fill="white" shape-rendering="crispEdges"/>
<g clip-path="url(#clip0_1_2511)">
<path d="M31.5962 38.5665H38.3231C38.6204 38.5665 38.9056 38.4483 39.1159 38.2381C39.3261 38.0278 39.4442 37.7427 39.4442 37.4453V36.3242H32.7174V37.4453C32.7174 37.7427 32.5992 38.0278 32.389 38.2381C32.1787 38.4483 31.8936 38.5665 31.5962 38.5665ZM31.5962 38.5665C31.2989 38.5665 31.0137 38.4483 30.8034 38.2381C30.5932 38.0278 30.4751 37.7427 30.4751 37.4453V29.5973C30.4751 29.2999 30.3569 29.0148 30.1467 28.8045C29.9364 28.5943 29.6513 28.4761 29.3539 28.4761C29.0566 28.4761 28.7714 28.5943 28.5611 28.8045C28.3509 29.0148 28.2328 29.2999 28.2328 29.5973V31.279H30.4751" stroke="#2A4FF3" stroke-width="1.12115" stroke-linecap="round" stroke-linejoin="round"/>
<path d="M37.7624 36.3242V29.5973C37.7624 29.2999 37.6443 29.0148 37.434 28.8045C37.2238 28.5943 36.9386 28.4761 36.6413 28.4761H29.3538" stroke="#2A4FF3" stroke-width="1.12115" stroke-linecap="round" stroke-linejoin="round"/>
<path d="M35.5198 31.2806H32.717" stroke="#2A4FF3" stroke-width="1.12115" stroke-linecap="round" stroke-linejoin="round"/>
<path d="M35.5198 33.5213H32.717" stroke="#2A4FF3" stroke-width="1.12115" stroke-linecap="round" stroke-linejoin="round"/>
</g>
<path d="M46.3661 38.52V28.9418H47.8113V33.1042H52.5864V28.9418H54.0362V38.52H52.5864V34.3436H47.8113V38.52H46.3661ZM59.0545 38.665C58.381 38.665 57.7933 38.5107 57.2913 38.202C56.7893 37.8933 56.3996 37.4615 56.1221 36.9065C55.8446 36.3515 55.7058 35.703 55.7058 34.9609C55.7058 34.2157 55.8446 33.5641 56.1221 33.006C56.3996 32.4479 56.7893 32.0145 57.2913 31.7058C57.7933 31.3971 58.381 31.2428 59.0545 31.2428C59.7279 31.2428 60.3157 31.3971 60.8177 31.7058C61.3196 32.0145 61.7094 32.4479 61.9869 33.006C62.2644 33.5641 62.4031 34.2157 62.4031 34.9609C62.4031 35.703 62.2644 36.3515 61.9869 36.9065C61.7094 37.4615 61.3196 37.8933 60.8177 38.202C60.3157 38.5107 59.7279 38.665 59.0545 38.665ZM59.0592 37.4911C59.4957 37.4911 59.8573 37.3757 60.1442 37.145C60.431 36.9143 60.6431 36.6072 60.7802 36.2237C60.9205 35.8402 60.9907 35.4177 60.9907 34.9562C60.9907 34.4979 60.9205 34.077 60.7802 33.6935C60.6431 33.3069 60.431 32.9966 60.1442 32.7628C59.8573 32.5289 59.4957 32.412 59.0592 32.412C58.6195 32.412 58.2547 32.5289 57.9648 32.7628C57.6779 32.9966 57.4643 33.3069 57.324 33.6935C57.1868 34.077 57.1182 34.4979 57.1182 34.9562C57.1182 35.4177 57.1868 35.8402 57.324 36.2237C57.4643 36.6072 57.6779 36.9143 57.9648 37.145C58.2547 37.3757 58.6195 37.4911 59.0592 37.4911ZM68.5146 35.5409V31.3363H69.9177V38.52H68.5427V37.276H68.4678C68.3026 37.6595 68.0376 37.9791 67.6728 38.2347C67.3111 38.4873 66.8606 38.6136 66.3212 38.6136C65.8597 38.6136 65.4513 38.5122 65.0958 38.3096C64.7435 38.1038 64.466 37.7998 64.2633 37.3976C64.0638 36.9954 63.964 36.4981 63.964 35.9056V31.3363H65.3624V35.7373C65.3624 36.2268 65.498 36.6165 65.7693 36.9065C66.0405 37.1965 66.3929 37.3414 66.8263 37.3414C67.0882 37.3414 67.3485 37.276 67.6073 37.145C67.8692 37.0141 68.0859 36.8161 68.2574 36.5511C68.432 36.286 68.5177 35.9493 68.5146 35.5409ZM77.1797 33.0902L75.9123 33.3147C75.8593 33.1525 75.7751 32.9982 75.6597 32.8517C75.5475 32.7051 75.3947 32.5851 75.2014 32.4915C75.0081 32.398 74.7664 32.3512 74.4765 32.3512C74.0805 32.3512 73.75 32.4401 73.485 32.6178C73.2199 32.7924 73.0874 33.0185 73.0874 33.296C73.0874 33.536 73.1763 33.7293 73.354 33.8759C73.5317 34.0224 73.8186 34.1425 74.2146 34.236L75.3557 34.4979C76.0167 34.6507 76.5093 34.8861 76.8336 35.2041C77.1579 35.5221 77.32 35.9353 77.32 36.4435C77.32 36.8738 77.1953 37.2573 76.9458 37.594C76.6995 37.9276 76.355 38.1895 75.9123 38.3797C75.4726 38.5699 74.9629 38.665 74.3829 38.665C73.5785 38.665 72.9222 38.4935 72.414 38.1505C71.9057 37.8045 71.5939 37.3134 71.4786 36.6773L72.8302 36.4715C72.9144 36.8239 73.0874 37.0905 73.3493 37.2713C73.6112 37.449 73.9526 37.5379 74.3736 37.5379C74.8319 37.5379 75.1983 37.4428 75.4726 37.2526C75.747 37.0593 75.8842 36.8239 75.8842 36.5464C75.8842 36.3219 75.8 36.1333 75.6316 35.9805C75.4664 35.8277 75.2123 35.7123 74.8693 35.6344L73.6533 35.3678C72.983 35.215 72.4872 34.9718 72.1661 34.6382C71.8481 34.3046 71.689 33.8821 71.689 33.3708C71.689 32.9467 71.8075 32.5757 72.0445 32.2577C72.2814 31.9397 72.6088 31.6918 73.0266 31.5141C73.4444 31.3332 73.923 31.2428 74.4624 31.2428C75.2388 31.2428 75.8499 31.4112 76.2958 31.7479C76.7416 32.0815 77.0363 32.5289 77.1797 33.0902ZM81.9536 38.665C81.2458 38.665 80.6363 38.5138 80.1249 38.2113C79.6167 37.9058 79.2239 37.4771 78.9464 36.9252C78.672 36.3702 78.5348 35.7201 78.5348 34.975C78.5348 34.2391 78.672 33.5906 78.9464 33.0294C79.2239 32.4681 79.6105 32.0301 80.1062 31.7152C80.6051 31.4003 81.1882 31.2428 81.8554 31.2428C82.2607 31.2428 82.6536 31.3098 83.034 31.4439C83.4143 31.578 83.7558 31.7884 84.0582 32.0753C84.3606 32.3621 84.5992 32.7347 84.7738 33.1931C84.9484 33.6483 85.0357 34.2017 85.0357 34.8534V35.3491H79.3252V34.3015H83.6653C83.6653 33.9336 83.5905 33.6077 83.4409 33.324C83.2912 33.0372 83.0807 32.8111 82.8095 32.6459C82.5413 32.4806 82.2264 32.398 81.8647 32.398C81.4719 32.398 81.1289 32.4947 80.8358 32.688C80.5459 32.8782 80.3214 33.1276 80.1624 33.4363C80.0065 33.7418 79.9285 34.0739 79.9285 34.4324V35.2509C79.9285 35.731 80.0127 36.1395 80.1811 36.4762C80.3526 36.813 80.5911 37.0702 80.8966 37.2479C81.2022 37.4225 81.5592 37.5098 81.9676 37.5098C82.2327 37.5098 82.4743 37.4724 82.6926 37.3976C82.9108 37.3196 83.0994 37.2043 83.2585 37.0515C83.4175 36.8987 83.5391 36.7101 83.6232 36.4856L84.9468 36.7241C84.8408 37.1138 84.6506 37.4553 84.3762 37.7483C84.105 38.0383 83.7636 38.2644 83.352 38.4265C82.9435 38.5855 82.4774 38.665 81.9536 38.665ZM87.9856 34.2547V38.52H86.5872V28.9418H87.9669V32.5056H88.0558C88.2241 32.1189 88.4813 31.8118 88.8274 31.5842C89.1735 31.3566 89.6256 31.2428 90.1837 31.2428C90.6764 31.2428 91.1066 31.3441 91.4745 31.5468C91.8456 31.7495 92.1324 32.0519 92.3351 32.4541C92.5409 32.8532 92.6438 33.3521 92.6438 33.9507V38.52H91.2454V34.1191C91.2454 33.5922 91.1097 33.1837 90.8385 32.8937C90.5672 32.6007 90.19 32.4541 89.7067 32.4541C89.3762 32.4541 89.08 32.5243 88.8181 32.6646C88.5593 32.8049 88.3551 33.0107 88.2054 33.2819C88.0589 33.5501 87.9856 33.8743 87.9856 34.2547ZM97.5358 38.665C96.8623 38.665 96.2746 38.5107 95.7726 38.202C95.2706 37.8933 94.8809 37.4615 94.6034 36.9065C94.3259 36.3515 94.1871 35.703 94.1871 34.9609C94.1871 34.2157 94.3259 33.5641 94.6034 33.006C94.8809 32.4479 95.2706 32.0145 95.7726 31.7058C96.2746 31.3971 96.8623 31.2428 97.5358 31.2428C98.2092 31.2428 98.797 31.3971 99.2989 31.7058C99.8009 32.0145 100.191 32.4479 100.468 33.006C100.746 33.5641 100.884 34.2157 100.884 34.9609C100.884 35.703 100.746 36.3515 100.468 36.9065C100.191 37.4615 99.8009 37.8933 99.2989 38.202C98.797 38.5107 98.2092 38.665 97.5358 38.665ZM97.5404 37.4911C97.977 37.4911 98.3386 37.3757 98.6255 37.145C98.9123 36.9143 99.1243 36.6072 99.2615 36.2237C99.4018 35.8402 99.472 35.4177 99.472 34.9562C99.472 34.4979 99.4018 34.077 99.2615 33.6935C99.1243 33.3069 98.9123 32.9966 98.6255 32.7628C98.3386 32.5289 97.977 32.412 97.5404 32.412C97.1008 32.412 96.736 32.5289 96.4461 32.7628C96.1592 32.9966 95.9456 33.3069 95.8053 33.6935C95.6681 34.077 95.5995 34.4979 95.5995 34.9562C95.5995 35.4177 95.6681 35.8402 95.8053 36.2237C95.9456 36.6072 96.1592 36.9143 96.4461 37.145C96.736 37.3757 97.1008 37.4911 97.5404 37.4911ZM103.844 28.9418V38.52H102.445V28.9418H103.844ZM108.414 38.6603C107.834 38.6603 107.317 38.5122 106.861 38.216C106.409 37.9167 106.054 37.4911 105.795 36.9392C105.539 36.3842 105.412 35.7186 105.412 34.9422C105.412 34.1659 105.541 33.5017 105.8 32.9499C106.062 32.398 106.42 31.9755 106.875 31.6824C107.331 31.3894 107.847 31.2428 108.424 31.2428C108.869 31.2428 109.228 31.3176 109.499 31.4673C109.774 31.6138 109.986 31.7853 110.135 31.9818C110.288 32.1782 110.407 32.3512 110.491 32.5009H110.575V28.9418H111.973V38.52H110.608V37.4022H110.491C110.407 37.555 110.285 37.7296 110.126 37.9261C109.97 38.1225 109.755 38.294 109.48 38.4405C109.206 38.5871 108.851 38.6603 108.414 38.6603ZM108.723 37.4677C109.125 37.4677 109.465 37.3617 109.742 37.1497C110.023 36.9346 110.235 36.6368 110.378 36.2564C110.525 35.876 110.598 35.4333 110.598 34.9282C110.598 34.4293 110.527 33.9928 110.383 33.6187C110.24 33.2445 110.029 32.953 109.752 32.7441C109.474 32.5352 109.131 32.4307 108.723 32.4307C108.302 32.4307 107.951 32.5399 107.671 32.7581C107.39 32.9764 107.178 33.2741 107.034 33.6514C106.894 34.0287 106.824 34.4543 106.824 34.9282C106.824 35.4083 106.896 35.8402 107.039 36.2237C107.183 36.6072 107.395 36.9112 107.675 37.1357C107.959 37.357 108.308 37.4677 108.723 37.4677ZM122.838 33.0902L121.57 33.3147C121.517 33.1525 121.433 32.9982 121.318 32.8517C121.205 32.7051 121.053 32.5851 120.859 32.4915C120.666 32.398 120.424 32.3512 120.134 32.3512C119.738 32.3512 119.408 32.4401 119.143 32.6178C118.878 32.7924 118.745 33.0185 118.745 33.296C118.745 33.536 118.834 33.7293 119.012 33.8759C119.19 34.0224 119.477 34.1425 119.873 34.236L121.014 34.4979C121.675 34.6507 122.167 34.8861 122.492 35.2041C122.816 35.5221 122.978 35.9353 122.978 36.4435C122.978 36.8738 122.853 37.2573 122.604 37.594C122.357 37.9276 122.013 38.1895 121.57 38.3797C121.131 38.5699 120.621 38.665 120.041 38.665C119.236 38.665 118.58 38.4935 118.072 38.1505C117.564 37.8045 117.252 37.3134 117.137 36.6773L118.488 36.4715C118.572 36.8239 118.745 37.0905 119.007 37.2713C119.269 37.449 119.611 37.5379 120.032 37.5379C120.49 37.5379 120.856 37.4428 121.131 37.2526C121.405 37.0593 121.542 36.8239 121.542 36.5464C121.542 36.3219 121.458 36.1333 121.29 35.9805C121.124 35.8277 120.87 35.7123 120.527 35.6344L119.311 35.3678C118.641 35.215 118.145 34.9718 117.824 34.6382C117.506 34.3046 117.347 33.8821 117.347 33.3708C117.347 32.9467 117.465 32.5757 117.702 32.2577C117.939 31.9397 118.267 31.6918 118.685 31.5141C119.102 31.3332 119.581 31.2428 120.12 31.2428C120.897 31.2428 121.508 31.4112 121.954 31.7479C122.4 32.0815 122.694 32.5289 122.838 33.0902ZM124.515 41.2139V31.3363H125.881V32.5009H125.998C126.079 32.3512 126.196 32.1782 126.349 31.9818C126.502 31.7853 126.714 31.6138 126.985 31.4673C127.256 31.3176 127.615 31.2428 128.061 31.2428C128.64 31.2428 129.158 31.3894 129.613 31.6824C130.068 31.9755 130.425 32.398 130.684 32.9499C130.946 33.5017 131.077 34.1659 131.077 34.9422C131.077 35.7186 130.948 36.3842 130.689 36.9392C130.43 37.4911 130.075 37.9167 129.623 38.216C129.171 38.5122 128.654 38.6603 128.075 38.6603C127.638 38.6603 127.281 38.5871 127.004 38.4405C126.729 38.294 126.514 38.1225 126.358 37.9261C126.202 37.7296 126.082 37.555 125.998 37.4022H125.914V41.2139H124.515ZM125.886 34.9282C125.886 35.4333 125.959 35.876 126.106 36.2564C126.252 36.6368 126.464 36.9346 126.742 37.1497C127.019 37.3617 127.359 37.4677 127.761 37.4677C128.179 37.4677 128.528 37.357 128.809 37.1357C129.089 36.9112 129.301 36.6072 129.445 36.2237C129.591 35.8402 129.665 35.4083 129.665 34.9282C129.665 34.4543 129.593 34.0287 129.45 33.6514C129.309 33.2741 129.097 32.9764 128.814 32.7581C128.533 32.5399 128.182 32.4307 127.761 32.4307C127.356 32.4307 127.013 32.5352 126.732 32.7441C126.455 32.953 126.244 33.2445 126.101 33.6187C125.958 33.9928 125.886 34.4293 125.886 34.9282ZM135.74 38.665C135.032 38.665 134.423 38.5138 133.911 38.2113C133.403 37.9058 133.01 37.4771 132.733 36.9252C132.458 36.3702 132.321 35.7201 132.321 34.975C132.321 34.2391 132.458 33.5906 132.733 33.0294C133.01 32.4681 133.397 32.0301 133.893 31.7152C134.391 31.4003 134.975 31.2428 135.642 31.2428C136.047 31.2428 136.44 31.3098 136.82 31.4439C137.201 31.578 137.542 31.7884 137.845 32.0753C138.147 32.3621 138.386 32.7347 138.56 33.1931C138.735 33.6483 138.822 34.2017 138.822 34.8534V35.3491H133.112V34.3015H137.452C137.452 33.9336 137.377 33.6077 137.227 33.324C137.078 33.0372 136.867 32.8111 136.596 32.6459C136.328 32.4806 136.013 32.398 135.651 32.398C135.258 32.398 134.915 32.4947 134.622 32.688C134.332 32.8782 134.108 33.1276 133.949 33.4363C133.793 33.7418 133.715 34.0739 133.715 34.4324V35.2509C133.715 35.731 133.799 36.1395 133.967 36.4762C134.139 36.813 134.377 37.0702 134.683 37.2479C134.989 37.4225 135.346 37.5098 135.754 37.5098C136.019 37.5098 136.261 37.4724 136.479 37.3976C136.697 37.3196 136.886 37.2043 137.045 37.0515C137.204 36.8987 137.325 36.7101 137.41 36.4856L138.733 36.7241C138.627 37.1138 138.437 37.4553 138.163 37.7483C137.891 38.0383 137.55 38.2644 137.138 38.4265C136.73 38.5855 136.264 38.665 135.74 38.665ZM141.772 34.2547V38.52H140.374V31.3363H141.716V32.5056H141.805C141.97 32.1252 142.229 31.8196 142.581 31.5889C142.936 31.3582 143.384 31.2428 143.923 31.2428C144.413 31.2428 144.842 31.3457 145.209 31.5515C145.577 31.7541 145.863 32.0566 146.065 32.4588C146.268 32.861 146.369 33.3583 146.369 33.9507V38.52H144.971V34.1191C144.971 33.5984 144.835 33.1915 144.564 32.8984C144.293 32.6022 143.92 32.4541 143.446 32.4541C143.122 32.4541 142.834 32.5243 142.581 32.6646C142.332 32.8049 142.134 33.0107 141.987 33.2819C141.844 33.5501 141.772 33.8743 141.772 34.2547ZM150.934 38.6603C150.354 38.6603 149.836 38.5122 149.381 38.216C148.929 37.9167 148.574 37.4911 148.315 36.9392C148.059 36.3842 147.931 35.7186 147.931 34.9422C147.931 34.1659 148.061 33.5017 148.32 32.9499C148.581 32.398 148.94 31.9755 149.395 31.6824C149.85 31.3894 150.366 31.2428 150.943 31.2428C151.389 31.2428 151.748 31.3176 152.019 31.4673C152.293 31.6138 152.505 31.7853 152.655 31.9818C152.808 32.1782 152.926 32.3512 153.01 32.5009H153.095V28.9418H154.493V38.52H153.127V37.4022H153.01C152.926 37.555 152.805 37.7296 152.646 37.9261C152.49 38.1225 152.275 38.294 152 38.4405C151.726 38.5871 151.37 38.6603 150.934 38.6603ZM151.243 37.4677C151.645 37.4677 151.985 37.3617 152.262 37.1497C152.543 36.9346 152.755 36.6368 152.898 36.2564C153.045 35.876 153.118 35.4333 153.118 34.9282C153.118 34.4293 153.046 33.9928 152.903 33.6187C152.759 33.2445 152.549 32.953 152.272 32.7441C151.994 32.5352 151.651 32.4307 151.243 32.4307C150.822 32.4307 150.471 32.5399 150.19 32.7581C149.91 32.9764 149.698 33.2741 149.554 33.6514C149.414 34.0287 149.344 34.4543 149.344 34.9282C149.344 35.4083 149.416 35.8402 149.559 36.2237C149.702 36.6072 149.914 36.9112 150.195 37.1357C150.479 37.357 150.828 37.4677 151.243 37.4677ZM161.872 33.0902L160.605 33.3147C160.552 33.1525 160.467 32.9982 160.352 32.8517C160.24 32.7051 160.087 32.5851 159.894 32.4915C159.7 32.398 159.459 32.3512 159.169 32.3512C158.773 32.3512 158.442 32.4401 158.177 32.6178C157.912 32.7924 157.78 33.0185 157.78 33.296C157.78 33.536 157.869 33.7293 158.046 33.8759C158.224 34.0224 158.511 34.1425 158.907 34.236L160.048 34.4979C160.709 34.6507 161.202 34.8861 161.526 35.2041C161.85 35.5221 162.012 35.9353 162.012 36.4435C162.012 36.8738 161.888 37.2573 161.638 37.594C161.392 37.9276 161.047 38.1895 160.605 38.3797C160.165 38.5699 159.655 38.665 159.075 38.665C158.271 38.665 157.614 38.4935 157.106 38.1505C156.598 37.8045 156.286 37.3134 156.171 36.6773L157.522 36.4715C157.607 36.8239 157.78 37.0905 158.042 37.2713C158.304 37.449 158.645 37.5379 159.066 37.5379C159.524 37.5379 159.891 37.4428 160.165 37.2526C160.439 37.0593 160.576 36.8239 160.576 36.5464C160.576 36.3219 160.492 36.1333 160.324 35.9805C160.159 35.8277 159.905 35.7123 159.562 35.6344L158.346 35.3678C157.675 35.215 157.18 34.9718 156.858 34.6382C156.54 34.3046 156.381 33.8821 156.381 33.3708C156.381 32.9467 156.5 32.5757 156.737 32.2577C156.974 31.9397 157.301 31.6918 157.719 31.5141C158.137 31.3332 158.615 31.2428 159.155 31.2428C159.931 31.2428 160.542 31.4112 160.988 31.7479C161.434 32.0815 161.729 32.5289 161.872 33.0902Z" fill="#1C242D"/>
<rect x="19.795" y="16.795" width="150.836" height="33.45" rx="9.40978" stroke="#BFE4FF" stroke-width="1.59" shape-rendering="crispEdges"/>
</g>
<defs>
<filter id="filter0_d_1_2511" x="0.629749" y="0.691458" width="189.166" height="71.7805" filterUnits="userSpaceOnUse" color-interpolation-filters="sRGB">
<feFlood flood-opacity="0" result="BackgroundImageFix"/>
<feColorMatrix in="SourceAlpha" type="matrix" values="0 0 0 0 0 0 0 0 0 0 0 0 0 0 0 0 0 0 127 0" result="hardAlpha"/>
<feOffset dy="3.06171"/>
<feGaussianBlur stdDeviation="9.18513"/>
<feComposite in2="hardAlpha" operator="out"/>
<feColorMatrix type="matrix" values="0 0 0 0 0 0 0 0 0 0.635294 0 0 0 0 0.996078 0 0 0 0.1 0"/>
<feBlend mode="normal" in2="BackgroundImageFix" result="effect1_dropShadow_1_2511"/>
<feBlend mode="normal" in="SourceGraphic" in2="effect1_dropShadow_1_2511" result="shape"/>
</filter>
<clipPath id="clip0_1_2511">
<rect width="13.4538" height="13.4538" fill="white" transform="translate(27.1117 26.7931)"/>
</clipPath>
</defs>
</svg>
