<svg width="190" height="73" viewBox="0 0 190 73" fill="none" xmlns="http://www.w3.org/2000/svg">
<g filter="url(#filter0_d_1_3847)">
<rect x="18.4255" y="16" width="152.426" height="35.04" rx="10.2048" fill="white" shape-rendering="crispEdges"/>
<g clip-path="url(#clip0_1_3847)">
<path d="M31.0218 38.5665H37.7486C38.046 38.5665 38.3312 38.4483 38.5414 38.2381C38.7517 38.0278 38.8698 37.7427 38.8698 37.4453V36.3242H32.1429V37.4453C32.1429 37.7427 32.0248 38.0278 31.8145 38.2381C31.6043 38.4483 31.3191 38.5665 31.0218 38.5665ZM31.0218 38.5665C30.7244 38.5665 30.4393 38.4483 30.229 38.2381C30.0187 38.0278 29.9006 37.7427 29.9006 37.4453V29.5973C29.9006 29.2999 29.7825 29.0148 29.5722 28.8045C29.362 28.5943 29.0768 28.4761 28.7795 28.4761C28.4821 28.4761 28.197 28.5943 27.9867 28.8045C27.7764 29.0148 27.6583 29.2999 27.6583 29.5973V31.279H29.9006" stroke="#2A4FF3" stroke-width="1.12115" stroke-linecap="round" stroke-linejoin="round"/>
<path d="M37.188 36.3242V29.5973C37.188 29.2999 37.0698 29.0148 36.8596 28.8045C36.6493 28.5943 36.3642 28.4761 36.0668 28.4761H28.7794" stroke="#2A4FF3" stroke-width="1.12115" stroke-linecap="round" stroke-linejoin="round"/>
<path d="M34.9454 31.2806H32.1425" stroke="#2A4FF3" stroke-width="1.12115" stroke-linecap="round" stroke-linejoin="round"/>
<path d="M34.9454 33.5213H32.1425" stroke="#2A4FF3" stroke-width="1.12115" stroke-linecap="round" stroke-linejoin="round"/>
</g>
<path d="M45.7917 38.52V28.9418H47.2368V33.1042H52.0119V28.9418H53.4617V38.52H52.0119V34.3436H47.2368V38.52H45.7917ZM58.48 38.665C57.8066 38.665 57.2188 38.5107 56.7168 38.202C56.2149 37.8933 55.8251 37.4615 55.5476 36.9065C55.2701 36.3515 55.1314 35.703 55.1314 34.9609C55.1314 34.2157 55.2701 33.5641 55.5476 33.006C55.8251 32.4479 56.2149 32.0145 56.7168 31.7058C57.2188 31.3971 57.8066 31.2428 58.48 31.2428C59.1535 31.2428 59.7412 31.3971 60.2432 31.7058C60.7452 32.0145 61.1349 32.4479 61.4124 33.006C61.6899 33.5641 61.8287 34.2157 61.8287 34.9609C61.8287 35.703 61.6899 36.3515 61.4124 36.9065C61.1349 37.4615 60.7452 37.8933 60.2432 38.202C59.7412 38.5107 59.1535 38.665 58.48 38.665ZM58.4847 37.4911C58.9212 37.4911 59.2829 37.3757 59.5697 37.145C59.8566 36.9143 60.0686 36.6072 60.2058 36.2237C60.3461 35.8402 60.4163 35.4177 60.4163 34.9562C60.4163 34.4979 60.3461 34.077 60.2058 33.6935C60.0686 33.3069 59.8566 32.9966 59.5697 32.7628C59.2829 32.5289 58.9212 32.412 58.4847 32.412C58.0451 32.412 57.6803 32.5289 57.3903 32.7628C57.1035 32.9966 56.8899 33.3069 56.7496 33.6935C56.6124 34.077 56.5438 34.4979 56.5438 34.9562C56.5438 35.4177 56.6124 35.8402 56.7496 36.2237C56.8899 36.6072 57.1035 36.9143 57.3903 37.145C57.6803 37.3757 58.0451 37.4911 58.4847 37.4911ZM67.9402 35.5409V31.3363H69.3432V38.52H67.9682V37.276H67.8934C67.7281 37.6595 67.4631 37.9791 67.0983 38.2347C66.7367 38.4873 66.2861 38.6136 65.7467 38.6136C65.2853 38.6136 64.8768 38.5122 64.5214 38.3096C64.169 38.1038 63.8916 37.7998 63.6889 37.3976C63.4893 36.9954 63.3896 36.4981 63.3896 35.9056V31.3363H64.788V35.7373C64.788 36.2268 64.9236 36.6165 65.1948 36.9065C65.4661 37.1965 65.8184 37.3414 66.2518 37.3414C66.5137 37.3414 66.7741 37.276 67.0329 37.145C67.2948 37.0141 67.5115 36.8161 67.6829 36.5511C67.8575 36.286 67.9433 35.9493 67.9402 35.5409ZM76.6052 33.0902L75.3378 33.3147C75.2848 33.1525 75.2006 32.9982 75.0853 32.8517C74.973 32.7051 74.8202 32.5851 74.6269 32.4915C74.4336 32.398 74.192 32.3512 73.902 32.3512C73.506 32.3512 73.1755 32.4401 72.9105 32.6178C72.6455 32.7924 72.513 33.0185 72.513 33.296C72.513 33.536 72.6018 33.7293 72.7796 33.8759C72.9573 34.0224 73.2441 34.1425 73.6401 34.236L74.7813 34.4979C75.4423 34.6507 75.9349 34.8861 76.2592 35.2041C76.5834 35.5221 76.7455 35.9353 76.7455 36.4435C76.7455 36.8738 76.6208 37.2573 76.3714 37.594C76.1251 37.9276 75.7806 38.1895 75.3378 38.3797C74.8982 38.5699 74.3884 38.665 73.8085 38.665C73.004 38.665 72.3477 38.4935 71.8395 38.1505C71.3313 37.8045 71.0195 37.3134 70.9041 36.6773L72.2557 36.4715C72.3399 36.8239 72.513 37.0905 72.7749 37.2713C73.0368 37.449 73.3782 37.5379 73.7991 37.5379C74.2575 37.5379 74.6238 37.4428 74.8982 37.2526C75.1726 37.0593 75.3097 36.8239 75.3097 36.5464C75.3097 36.3219 75.2256 36.1333 75.0572 35.9805C74.8919 35.8277 74.6378 35.7123 74.2949 35.6344L73.0789 35.3678C72.4085 35.215 71.9128 34.9718 71.5916 34.6382C71.2736 34.3046 71.1146 33.8821 71.1146 33.3708C71.1146 32.9467 71.2331 32.5757 71.47 32.2577C71.707 31.9397 72.0344 31.6918 72.4522 31.5141C72.87 31.3332 73.3486 31.2428 73.888 31.2428C74.6643 31.2428 75.2754 31.4112 75.7213 31.7479C76.1672 32.0815 76.4618 32.5289 76.6052 33.0902ZM81.3792 38.665C80.6714 38.665 80.0618 38.5138 79.5505 38.2113C79.0423 37.9058 78.6494 37.4771 78.3719 36.9252C78.0976 36.3702 77.9604 35.7201 77.9604 34.975C77.9604 34.2391 78.0976 33.5906 78.3719 33.0294C78.6494 32.4681 79.036 32.0301 79.5318 31.7152C80.0307 31.4003 80.6137 31.2428 81.2809 31.2428C81.6863 31.2428 82.0791 31.3098 82.4595 31.4439C82.8399 31.578 83.1813 31.7884 83.4837 32.0753C83.7862 32.3621 84.0247 32.7347 84.1993 33.1931C84.3739 33.6483 84.4612 34.2017 84.4612 34.8534V35.3491H78.7508V34.3015H83.0909C83.0909 33.9336 83.0161 33.6077 82.8664 33.324C82.7167 33.0372 82.5063 32.8111 82.235 32.6459C81.9669 32.4806 81.652 32.398 81.2903 32.398C80.8974 32.398 80.5545 32.4947 80.2614 32.688C79.9714 32.8782 79.7469 33.1276 79.5879 33.4363C79.432 33.7418 79.3541 34.0739 79.3541 34.4324V35.2509C79.3541 35.731 79.4383 36.1395 79.6066 36.4762C79.7781 36.813 80.0166 37.0702 80.3222 37.2479C80.6277 37.4225 80.9847 37.5098 81.3932 37.5098C81.6582 37.5098 81.8998 37.4724 82.1181 37.3976C82.3364 37.3196 82.525 37.2043 82.684 37.0515C82.843 36.8987 82.9646 36.7101 83.0488 36.4856L84.3724 36.7241C84.2663 37.1138 84.0762 37.4553 83.8018 37.7483C83.5305 38.0383 83.1891 38.2644 82.7775 38.4265C82.3691 38.5855 81.903 38.665 81.3792 38.665ZM87.4112 34.2547V38.52H86.0128V28.9418H87.3924V32.5056H87.4813C87.6497 32.1189 87.9069 31.8118 88.253 31.5842C88.5991 31.3566 89.0512 31.2428 89.6093 31.2428C90.1019 31.2428 90.5322 31.3441 90.9001 31.5468C91.2711 31.7495 91.558 32.0519 91.7606 32.4541C91.9664 32.8532 92.0693 33.3521 92.0693 33.9507V38.52H90.6709V34.1191C90.6709 33.5922 90.5353 33.1837 90.264 32.8937C89.9928 32.6007 89.6155 32.4541 89.1322 32.4541C88.8017 32.4541 88.5055 32.5243 88.2436 32.6646C87.9848 32.8049 87.7806 33.0107 87.631 33.2819C87.4844 33.5501 87.4112 33.8743 87.4112 34.2547ZM96.9613 38.665C96.2879 38.665 95.7001 38.5107 95.1981 38.202C94.6962 37.8933 94.3064 37.4615 94.0289 36.9065C93.7514 36.3515 93.6127 35.703 93.6127 34.9609C93.6127 34.2157 93.7514 33.5641 94.0289 33.006C94.3064 32.4479 94.6962 32.0145 95.1981 31.7058C95.7001 31.3971 96.2879 31.2428 96.9613 31.2428C97.6348 31.2428 98.2225 31.3971 98.7245 31.7058C99.2265 32.0145 99.6162 32.4479 99.8937 33.006C100.171 33.5641 100.31 34.2157 100.31 34.9609C100.31 35.703 100.171 36.3515 99.8937 36.9065C99.6162 37.4615 99.2265 37.8933 98.7245 38.202C98.2225 38.5107 97.6348 38.665 96.9613 38.665ZM96.966 37.4911C97.4025 37.4911 97.7642 37.3757 98.051 37.145C98.3379 36.9143 98.5499 36.6072 98.6871 36.2237C98.8274 35.8402 98.8975 35.4177 98.8975 34.9562C98.8975 34.4979 98.8274 34.077 98.6871 33.6935C98.5499 33.3069 98.3379 32.9966 98.051 32.7628C97.7642 32.5289 97.4025 32.412 96.966 32.412C96.5264 32.412 96.1616 32.5289 95.8716 32.7628C95.5848 32.9966 95.3712 33.3069 95.2309 33.6935C95.0937 34.077 95.0251 34.4979 95.0251 34.9562C95.0251 35.4177 95.0937 35.8402 95.2309 36.2237C95.3712 36.6072 95.5848 36.9143 95.8716 37.145C96.1616 37.3757 96.5264 37.4911 96.966 37.4911ZM103.269 28.9418V38.52H101.871V28.9418H103.269ZM107.84 38.6603C107.26 38.6603 106.742 38.5122 106.287 38.216C105.835 37.9167 105.479 37.4911 105.221 36.9392C104.965 36.3842 104.837 35.7186 104.837 34.9422C104.837 34.1659 104.967 33.5017 105.225 32.9499C105.487 32.398 105.846 31.9755 106.301 31.6824C106.756 31.3894 107.272 31.2428 107.849 31.2428C108.295 31.2428 108.653 31.3176 108.925 31.4673C109.199 31.6138 109.411 31.7853 109.561 31.9818C109.714 32.1782 109.832 32.3512 109.916 32.5009H110V28.9418H111.399V38.52H110.033V37.4022H109.916C109.832 37.555 109.71 37.7296 109.551 37.9261C109.396 38.1225 109.18 38.294 108.906 38.4405C108.632 38.5871 108.276 38.6603 107.84 38.6603ZM108.148 37.4677C108.551 37.4677 108.89 37.3617 109.168 37.1497C109.449 36.9346 109.661 36.6368 109.804 36.2564C109.951 35.876 110.024 35.4333 110.024 34.9282C110.024 34.4293 109.952 33.9928 109.809 33.6187C109.665 33.2445 109.455 32.953 109.177 32.7441C108.9 32.5352 108.557 32.4307 108.148 32.4307C107.727 32.4307 107.377 32.5399 107.096 32.7581C106.815 32.9764 106.603 33.2741 106.46 33.6514C106.32 34.0287 106.25 34.4543 106.25 34.9282C106.25 35.4083 106.321 35.8402 106.465 36.2237C106.608 36.6072 106.82 36.9112 107.101 37.1357C107.385 37.357 107.734 37.4677 108.148 37.4677ZM122.263 33.0902L120.996 33.3147C120.943 33.1525 120.859 32.9982 120.743 32.8517C120.631 32.7051 120.478 32.5851 120.285 32.4915C120.092 32.398 119.85 32.3512 119.56 32.3512C119.164 32.3512 118.833 32.4401 118.568 32.6178C118.303 32.7924 118.171 33.0185 118.171 33.296C118.171 33.536 118.26 33.7293 118.438 33.8759C118.615 34.0224 118.902 34.1425 119.298 34.236L120.439 34.4979C121.1 34.6507 121.593 34.8861 121.917 35.2041C122.241 35.5221 122.403 35.9353 122.403 36.4435C122.403 36.8738 122.279 37.2573 122.029 37.594C121.783 37.9276 121.439 38.1895 120.996 38.3797C120.556 38.5699 120.046 38.665 119.466 38.665C118.662 38.665 118.006 38.4935 117.497 38.1505C116.989 37.8045 116.677 37.3134 116.562 36.6773L117.914 36.4715C117.998 36.8239 118.171 37.0905 118.433 37.2713C118.695 37.449 119.036 37.5379 119.457 37.5379C119.915 37.5379 120.282 37.4428 120.556 37.2526C120.831 37.0593 120.968 36.8239 120.968 36.5464C120.968 36.3219 120.884 36.1333 120.715 35.9805C120.55 35.8277 120.296 35.7123 119.953 35.6344L118.737 35.3678C118.066 35.215 117.571 34.9718 117.25 34.6382C116.932 34.3046 116.773 33.8821 116.773 33.3708C116.773 32.9467 116.891 32.5757 117.128 32.2577C117.365 31.9397 117.692 31.6918 118.11 31.5141C118.528 31.3332 119.007 31.2428 119.546 31.2428C120.322 31.2428 120.933 31.4112 121.379 31.7479C121.825 32.0815 122.12 32.5289 122.263 33.0902ZM123.941 41.2139V31.3363H125.307V32.5009H125.424C125.505 32.3512 125.622 32.1782 125.774 31.9818C125.927 31.7853 126.139 31.6138 126.41 31.4673C126.682 31.3176 127.04 31.2428 127.486 31.2428C128.066 31.2428 128.584 31.3894 129.039 31.6824C129.494 31.9755 129.851 32.398 130.11 32.9499C130.372 33.5017 130.503 34.1659 130.503 34.9422C130.503 35.7186 130.373 36.3842 130.114 36.9392C129.856 37.4911 129.5 37.9167 129.048 38.216C128.596 38.5122 128.08 38.6603 127.5 38.6603C127.064 38.6603 126.707 38.5871 126.429 38.4405C126.155 38.294 125.94 38.1225 125.784 37.9261C125.628 37.7296 125.508 37.555 125.424 37.4022H125.339V41.2139H123.941ZM125.311 34.9282C125.311 35.4333 125.385 35.876 125.531 36.2564C125.678 36.6368 125.89 36.9346 126.167 37.1497C126.445 37.3617 126.785 37.4677 127.187 37.4677C127.605 37.4677 127.954 37.357 128.234 37.1357C128.515 36.9112 128.727 36.6072 128.87 36.2237C129.017 35.8402 129.09 35.4083 129.09 34.9282C129.09 34.4543 129.019 34.0287 128.875 33.6514C128.735 33.2741 128.523 32.9764 128.239 32.7581C127.958 32.5399 127.608 32.4307 127.187 32.4307C126.781 32.4307 126.438 32.5352 126.158 32.7441C125.88 32.953 125.67 33.2445 125.526 33.6187C125.383 33.9928 125.311 34.4293 125.311 34.9282ZM135.166 38.665C134.458 38.665 133.848 38.5138 133.337 38.2113C132.829 37.9058 132.436 37.4771 132.158 36.9252C131.884 36.3702 131.747 35.7201 131.747 34.975C131.747 34.2391 131.884 33.5906 132.158 33.0294C132.436 32.4681 132.822 32.0301 133.318 31.7152C133.817 31.4003 134.4 31.2428 135.067 31.2428C135.473 31.2428 135.865 31.3098 136.246 31.4439C136.626 31.578 136.968 31.7884 137.27 32.0753C137.573 32.3621 137.811 32.7347 137.986 33.1931C138.16 33.6483 138.248 34.2017 138.248 34.8534V35.3491H132.537V34.3015H136.877C136.877 33.9336 136.802 33.6077 136.653 33.324C136.503 33.0372 136.293 32.8111 136.021 32.6459C135.753 32.4806 135.438 32.398 135.077 32.398C134.684 32.398 134.341 32.4947 134.048 32.688C133.758 32.8782 133.533 33.1276 133.374 33.4363C133.218 33.7418 133.14 34.0739 133.14 34.4324V35.2509C133.14 35.731 133.225 36.1395 133.393 36.4762C133.564 36.813 133.803 37.0702 134.109 37.2479C134.414 37.4225 134.771 37.5098 135.18 37.5098C135.445 37.5098 135.686 37.4724 135.904 37.3976C136.123 37.3196 136.311 37.2043 136.47 37.0515C136.629 36.8987 136.751 36.7101 136.835 36.4856L138.159 36.7241C138.053 37.1138 137.863 37.4553 137.588 37.7483C137.317 38.0383 136.975 38.2644 136.564 38.4265C136.155 38.5855 135.689 38.665 135.166 38.665ZM141.198 34.2547V38.52H139.799V31.3363H141.141V32.5056H141.23C141.395 32.1252 141.654 31.8196 142.007 31.5889C142.362 31.3582 142.809 31.2428 143.349 31.2428C143.838 31.2428 144.267 31.3457 144.635 31.5515C145.003 31.7541 145.288 32.0566 145.491 32.4588C145.694 32.861 145.795 33.3583 145.795 33.9507V38.52H144.396V34.1191C144.396 33.5984 144.261 33.1915 143.99 32.8984C143.718 32.6022 143.346 32.4541 142.872 32.4541C142.548 32.4541 142.259 32.5243 142.007 32.6646C141.757 32.8049 141.559 33.0107 141.413 33.2819C141.269 33.5501 141.198 33.8743 141.198 34.2547ZM150.359 38.6603C149.78 38.6603 149.262 38.5122 148.807 38.216C148.355 37.9167 147.999 37.4911 147.74 36.9392C147.485 36.3842 147.357 35.7186 147.357 34.9422C147.357 34.1659 147.486 33.5017 147.745 32.9499C148.007 32.398 148.366 31.9755 148.821 31.6824C149.276 31.3894 149.792 31.2428 150.369 31.2428C150.815 31.2428 151.173 31.3176 151.445 31.4673C151.719 31.6138 151.931 31.7853 152.081 31.9818C152.233 32.1782 152.352 32.3512 152.436 32.5009H152.52V28.9418H153.919V38.52H152.553V37.4022H152.436C152.352 37.555 152.23 37.7296 152.071 37.9261C151.915 38.1225 151.7 38.294 151.426 38.4405C151.151 38.5871 150.796 38.6603 150.359 38.6603ZM150.668 37.4677C151.07 37.4677 151.41 37.3617 151.688 37.1497C151.968 36.9346 152.18 36.6368 152.324 36.2564C152.47 35.876 152.544 35.4333 152.544 34.9282C152.544 34.4293 152.472 33.9928 152.328 33.6187C152.185 33.2445 151.975 32.953 151.697 32.7441C151.42 32.5352 151.077 32.4307 150.668 32.4307C150.247 32.4307 149.896 32.5399 149.616 32.7581C149.335 32.9764 149.123 33.2741 148.98 33.6514C148.84 34.0287 148.769 34.4543 148.769 34.9282C148.769 35.4083 148.841 35.8402 148.984 36.2237C149.128 36.6072 149.34 36.9112 149.621 37.1357C149.904 37.357 150.253 37.4677 150.668 37.4677ZM161.298 33.0902L160.03 33.3147C159.977 33.1525 159.893 32.9982 159.778 32.8517C159.665 32.7051 159.513 32.5851 159.319 32.4915C159.126 32.398 158.884 32.3512 158.594 32.3512C158.198 32.3512 157.868 32.4401 157.603 32.6178C157.338 32.7924 157.205 33.0185 157.205 33.296C157.205 33.536 157.294 33.7293 157.472 33.8759C157.65 34.0224 157.936 34.1425 158.332 34.236L159.474 34.4979C160.135 34.6507 160.627 34.8861 160.951 35.2041C161.276 35.5221 161.438 35.9353 161.438 36.4435C161.438 36.8738 161.313 37.2573 161.064 37.594C160.817 37.9276 160.473 38.1895 160.03 38.3797C159.59 38.5699 159.081 38.665 158.501 38.665C157.696 38.665 157.04 38.4935 156.532 38.1505C156.024 37.8045 155.712 37.3134 155.596 36.6773L156.948 36.4715C157.032 36.8239 157.205 37.0905 157.467 37.2713C157.729 37.449 158.07 37.5379 158.491 37.5379C158.95 37.5379 159.316 37.4428 159.59 37.2526C159.865 37.0593 160.002 36.8239 160.002 36.5464C160.002 36.3219 159.918 36.1333 159.749 35.9805C159.584 35.8277 159.33 35.7123 158.987 35.6344L157.771 35.3678C157.101 35.215 156.605 34.9718 156.284 34.6382C155.966 34.3046 155.807 33.8821 155.807 33.3708C155.807 32.9467 155.925 32.5757 156.162 32.2577C156.399 31.9397 156.727 31.6918 157.144 31.5141C157.562 31.3332 158.041 31.2428 158.58 31.2428C159.357 31.2428 159.968 31.4112 160.414 31.7479C160.859 32.0815 161.154 32.5289 161.298 33.0902Z" fill="#1C242D"/>
<rect x="19.2205" y="16.795" width="150.836" height="33.45" rx="9.40978" stroke="#BFE4FF" stroke-width="1.59" shape-rendering="crispEdges"/>
</g>
<defs>
<filter id="filter0_d_1_3847" x="0.0552864" y="0.691458" width="189.166" height="71.7805" filterUnits="userSpaceOnUse" color-interpolation-filters="sRGB">
<feFlood flood-opacity="0" result="BackgroundImageFix"/>
<feColorMatrix in="SourceAlpha" type="matrix" values="0 0 0 0 0 0 0 0 0 0 0 0 0 0 0 0 0 0 127 0" result="hardAlpha"/>
<feOffset dy="3.06171"/>
<feGaussianBlur stdDeviation="9.18513"/>
<feComposite in2="hardAlpha" operator="out"/>
<feColorMatrix type="matrix" values="0 0 0 0 0 0 0 0 0 0.635294 0 0 0 0 0.996078 0 0 0 0.1 0"/>
<feBlend mode="normal" in2="BackgroundImageFix" result="effect1_dropShadow_1_3847"/>
<feBlend mode="normal" in="SourceGraphic" in2="effect1_dropShadow_1_3847" result="shape"/>
</filter>
<clipPath id="clip0_1_3847">
<rect width="13.4538" height="13.4538" fill="white" transform="translate(26.5372 26.7931)"/>
</clipPath>
</defs>
</svg>
