<svg width="149" height="73" viewBox="0 0 149 73" fill="none" xmlns="http://www.w3.org/2000/svg">
<g filter="url(#filter0_d_1_3854)">
<rect x="18.851" y="16" width="111" height="35" rx="11.8006" fill="white" shape-rendering="crispEdges"/>
<path d="M44.8459 28.5322V31.3715" stroke="#FFC121" stroke-width="1.41964" stroke-linecap="round" stroke-linejoin="round"/>
<path d="M45.5565 31.3726H44.1369C43.7449 31.3726 43.4271 31.6904 43.4271 32.0824V34.9217C43.4271 35.3137 43.7449 35.6315 44.1369 35.6315H45.5565C45.9485 35.6315 46.2663 35.3137 46.2663 34.9217V32.0824C46.2663 31.6904 45.9485 31.3726 45.5565 31.3726Z" stroke="#FFC121" stroke-width="1.41964" stroke-linecap="round" stroke-linejoin="round"/>
<path d="M44.8459 35.6296V37.0493" stroke="#FFC121" stroke-width="1.41964" stroke-linecap="round" stroke-linejoin="round"/>
<path d="M50.5259 27.1141V28.5338" stroke="#FFC121" stroke-width="1.41964" stroke-linecap="round" stroke-linejoin="round"/>
<path d="M51.2345 28.5322H49.8149C49.4228 28.5322 49.105 28.85 49.105 29.242V33.501C49.105 33.893 49.4228 34.2108 49.8149 34.2108H51.2345C51.6265 34.2108 51.9443 33.893 51.9443 33.501V29.242C51.9443 28.85 51.6265 28.5322 51.2345 28.5322Z" stroke="#FFC121" stroke-width="1.41964" stroke-linecap="round" stroke-linejoin="round"/>
<path d="M50.5259 34.2115V36.341" stroke="#FFC121" stroke-width="1.41964" stroke-linecap="round" stroke-linejoin="round"/>
<path d="M40.5881 27.1141V39.8909H53.3649" stroke="#FFC121" stroke-width="1.41964" stroke-linecap="round" stroke-linejoin="round"/>
<path d="M66.5206 31.4379C66.4707 30.9952 66.2649 30.6522 65.9032 30.409C65.5415 30.1627 65.0863 30.0395 64.5376 30.0395C64.1447 30.0395 63.8049 30.1019 63.518 30.2266C63.2312 30.3482 63.0082 30.5166 62.8492 30.7317C62.6933 30.9437 62.6154 31.1854 62.6154 31.4566C62.6154 31.6842 62.6684 31.8807 62.7744 32.0459C62.8835 32.2112 63.0254 32.3499 63.2 32.4622C63.3777 32.5713 63.5679 32.6633 63.7706 32.7381C63.9732 32.8098 64.1681 32.869 64.3552 32.9158L65.2905 33.159C65.5961 33.2338 65.9095 33.3352 66.2306 33.463C66.5517 33.5908 66.8495 33.7592 67.1239 33.9681C67.3983 34.177 67.6196 34.4358 67.788 34.7445C67.9595 35.0531 68.0452 35.4226 68.0452 35.8529C68.0452 36.3954 67.9049 36.8771 67.6243 37.298C67.3468 37.719 66.943 38.051 66.413 38.2942C65.8861 38.5374 65.2485 38.659 64.5002 38.659C63.783 38.659 63.1626 38.5452 62.6388 38.3176C62.115 38.09 61.7049 37.7673 61.4087 37.3495C61.1125 36.9286 60.9489 36.4297 60.9177 35.8529H62.3675C62.3956 36.199 62.5078 36.4874 62.7042 36.7181C62.9038 36.9457 63.1579 37.1156 63.4666 37.2279C63.7784 37.337 64.1198 37.3916 64.4908 37.3916C64.8992 37.3916 65.2625 37.3277 65.5805 37.1998C65.9017 37.0689 66.1542 36.888 66.3382 36.6573C66.5221 36.4235 66.6141 36.1507 66.6141 35.8389C66.6141 35.5551 66.533 35.3228 66.3709 35.142C66.2119 34.9612 65.9952 34.8115 65.7208 34.693C65.4496 34.5745 65.1424 34.4701 64.7995 34.3797L63.6677 34.071C62.9007 33.8621 62.2927 33.555 61.8437 33.1497C61.3978 32.7443 61.1749 32.208 61.1749 31.5408C61.1749 30.9889 61.3246 30.5072 61.6239 30.0957C61.9232 29.6841 62.3285 29.3645 62.8399 29.1369C63.3512 28.9062 63.928 28.7908 64.5703 28.7908C65.2188 28.7908 65.791 28.9046 66.2867 29.1322C66.7856 29.3598 67.1784 29.6732 67.4653 30.0723C67.7521 30.4683 67.9018 30.9235 67.9143 31.4379H66.5206ZM71.7505 38.659C71.2953 38.659 70.8837 38.5748 70.5158 38.4065C70.1479 38.235 69.8563 37.9871 69.6412 37.6628C69.4292 37.3386 69.3232 36.941 69.3232 36.4702C69.3232 36.0649 69.4011 35.7313 69.557 35.4694C69.7129 35.2075 69.9234 35.0001 70.1884 34.8474C70.4534 34.6946 70.7496 34.5792 71.077 34.5013C71.4044 34.4233 71.738 34.3641 72.0779 34.3236C72.5081 34.2737 72.8573 34.2331 73.1255 34.202C73.3936 34.1677 73.5885 34.1131 73.7101 34.0383C73.8317 33.9634 73.8925 33.8418 73.8925 33.6735V33.6407C73.8925 33.2323 73.7771 32.9158 73.5464 32.6913C73.3188 32.4668 72.9789 32.3546 72.5268 32.3546C72.056 32.3546 71.685 32.459 71.4137 32.6679C71.1456 32.8737 70.9601 33.1029 70.8572 33.3554L69.543 33.0561C69.6989 32.6196 69.9265 32.2673 70.2258 31.9991C70.5283 31.7279 70.8759 31.5315 71.2688 31.4099C71.6616 31.2851 72.0747 31.2228 72.5081 31.2228C72.795 31.2228 73.099 31.2571 73.4201 31.3257C73.7444 31.3912 74.0468 31.5128 74.3274 31.6905C74.6112 31.8682 74.8434 32.1223 75.0243 32.4528C75.2051 32.7802 75.2955 33.2058 75.2955 33.7296V38.5H73.9299V37.5179H73.8738C73.7834 37.6987 73.6477 37.8764 73.4669 38.051C73.286 38.2256 73.0538 38.3706 72.77 38.486C72.4863 38.6013 72.1464 38.659 71.7505 38.659ZM72.0545 37.5366C72.4411 37.5366 72.7716 37.4602 73.046 37.3074C73.3235 37.1546 73.5339 36.9551 73.6773 36.7088C73.8239 36.4593 73.8972 36.1927 73.8972 35.909V34.983C73.8473 35.0329 73.7506 35.0796 73.6072 35.1233C73.4669 35.1638 73.3063 35.1997 73.1255 35.2309C72.9446 35.2589 72.7685 35.2854 72.597 35.3104C72.4255 35.3322 72.2821 35.3509 72.1667 35.3665C71.8955 35.4008 71.6476 35.4585 71.4231 35.5395C71.2017 35.6206 71.024 35.7375 70.8899 35.8903C70.759 36.04 70.6935 36.2395 70.6935 36.4889C70.6935 36.835 70.8213 37.0969 71.077 37.2747C71.3327 37.4493 71.6585 37.5366 72.0545 37.5366ZM83.0463 31.3163L80.4413 38.5H78.9447L76.335 31.3163H77.8363L79.6556 36.8444H79.7304L81.545 31.3163H83.0463ZM84.3605 38.5V31.3163H85.7589V38.5H84.3605ZM85.0667 30.2079C84.8235 30.2079 84.6146 30.1268 84.44 29.9647C84.2685 29.7995 84.1828 29.603 84.1828 29.3754C84.1828 29.1447 84.2685 28.9483 84.44 28.7861C84.6146 28.6209 84.8235 28.5383 85.0667 28.5383C85.3099 28.5383 85.5172 28.6209 85.6887 28.7861C85.8633 28.9483 85.9506 29.1447 85.9506 29.3754C85.9506 29.603 85.8633 29.7995 85.6887 29.9647C85.5172 30.1268 85.3099 30.2079 85.0667 30.2079ZM89.0385 34.2347V38.5H87.6401V31.3163H88.9824V32.4855H89.0713C89.2365 32.1052 89.4953 31.7996 89.8476 31.5689C90.2031 31.3382 90.6505 31.2228 91.1899 31.2228C91.6794 31.2228 92.1081 31.3257 92.476 31.5315C92.8439 31.7341 93.1292 32.0366 93.3319 32.4388C93.5346 32.841 93.6359 33.3383 93.6359 33.9307V38.5H92.2375V34.0991C92.2375 33.5784 92.1019 33.1715 91.8306 32.8784C91.5594 32.5822 91.1868 32.4341 90.7128 32.4341C90.3886 32.4341 90.1002 32.5043 89.8476 32.6446C89.5982 32.7849 89.4002 32.9906 89.2537 33.2619C89.1102 33.53 89.0385 33.8543 89.0385 34.2347ZM98.5232 41.3435C97.9526 41.3435 97.4616 41.2687 97.05 41.119C96.6416 40.9694 96.3079 40.7714 96.0492 40.5251C95.7904 40.2788 95.5971 40.0091 95.4692 39.716L96.6712 39.2202C96.7554 39.3574 96.8676 39.5024 97.0079 39.6552C97.1513 39.8111 97.3447 39.9436 97.5878 40.0527C97.8342 40.1618 98.1506 40.2164 98.5373 40.2164C99.0673 40.2164 99.5054 40.087 99.8515 39.8282C100.198 39.5726 100.371 39.1641 100.371 38.6029V37.1905H100.282C100.198 37.3433 100.076 37.5132 99.9169 37.7003C99.761 37.8873 99.5459 38.0495 99.2715 38.1866C98.9971 38.3238 98.6401 38.3924 98.2005 38.3924C97.6331 38.3924 97.1217 38.2599 96.6665 37.9949C96.2144 37.7268 95.8558 37.3323 95.5908 36.8116C95.3289 36.2878 95.198 35.644 95.198 34.8801C95.198 34.1162 95.3274 33.4615 95.5861 32.9158C95.8481 32.3702 96.2066 31.9524 96.6618 31.6624C97.117 31.3693 97.6331 31.2228 98.2099 31.2228C98.6557 31.2228 99.0159 31.2976 99.2902 31.4473C99.5646 31.5938 99.7782 31.7653 99.931 31.9617C100.087 32.1582 100.207 32.3312 100.291 32.4809H100.394V31.3163H101.764V38.659C101.764 39.2764 101.621 39.783 101.334 40.179C101.047 40.575 100.659 40.8681 100.169 41.0582C99.6831 41.2484 99.1343 41.3435 98.5232 41.3435ZM98.5092 37.2326C98.9114 37.2326 99.2513 37.139 99.5287 36.952C99.8094 36.7618 100.021 36.4905 100.165 36.1382C100.311 35.7827 100.385 35.3571 100.385 34.8614C100.385 34.3781 100.313 33.9525 100.169 33.5846C100.026 33.2167 99.8156 32.9298 99.5381 32.7241C99.2606 32.5152 98.9176 32.4107 98.5092 32.4107C98.0883 32.4107 97.7375 32.5198 97.4569 32.7381C97.1763 32.9532 96.9643 33.2463 96.8208 33.6173C96.6805 33.9884 96.6104 34.4031 96.6104 34.8614C96.6104 35.3322 96.6821 35.7453 96.8255 36.1008C96.9689 36.4562 97.181 36.7337 97.4616 36.9332C97.7453 37.1328 98.0945 37.2326 98.5092 37.2326ZM109.023 33.0702L107.755 33.2946C107.702 33.1325 107.618 32.9782 107.503 32.8316C107.391 32.6851 107.238 32.5651 107.044 32.4715C106.851 32.378 106.61 32.3312 106.32 32.3312C105.924 32.3312 105.593 32.4201 105.328 32.5978C105.063 32.7724 104.931 32.9984 104.931 33.2759C104.931 33.516 105.019 33.7093 105.197 33.8559C105.375 34.0024 105.662 34.1224 106.058 34.216L107.199 34.4779C107.86 34.6307 108.352 34.8661 108.677 35.1841C109.001 35.5021 109.163 35.9152 109.163 36.4235C109.163 36.8537 109.038 37.2372 108.789 37.574C108.543 37.9076 108.198 38.1695 107.755 38.3597C107.316 38.5499 106.806 38.645 106.226 38.645C105.422 38.645 104.765 38.4735 104.257 38.1305C103.749 37.7844 103.437 37.2934 103.322 36.6573L104.673 36.4515C104.757 36.8039 104.931 37.0704 105.192 37.2513C105.454 37.429 105.796 37.5179 106.217 37.5179C106.675 37.5179 107.041 37.4228 107.316 37.2326C107.59 37.0393 107.727 36.8039 107.727 36.5264C107.727 36.3019 107.643 36.1132 107.475 35.9605C107.31 35.8077 107.055 35.6923 106.712 35.6144L105.496 35.3478C104.826 35.195 104.33 34.9518 104.009 34.6182C103.691 34.2846 103.532 33.8621 103.532 33.3508C103.532 32.9267 103.651 32.5557 103.888 32.2377C104.125 31.9196 104.452 31.6718 104.87 31.494C105.288 31.3132 105.766 31.2228 106.306 31.2228C107.082 31.2228 107.693 31.3912 108.139 31.7279C108.585 32.0615 108.879 32.5089 109.023 33.0702Z" fill="#1C242D"/>
<rect x="19.646" y="16.795" width="109.41" height="33.41" rx="11.0056" stroke="#BFE4FF" stroke-width="1.59" shape-rendering="crispEdges"/>
</g>
<defs>
<filter id="filter0_d_1_3854" x="0.480762" y="0.691458" width="147.741" height="71.7405" filterUnits="userSpaceOnUse" color-interpolation-filters="sRGB">
<feFlood flood-opacity="0" result="BackgroundImageFix"/>
<feColorMatrix in="SourceAlpha" type="matrix" values="0 0 0 0 0 0 0 0 0 0 0 0 0 0 0 0 0 0 127 0" result="hardAlpha"/>
<feOffset dy="3.06171"/>
<feGaussianBlur stdDeviation="9.18513"/>
<feComposite in2="hardAlpha" operator="out"/>
<feColorMatrix type="matrix" values="0 0 0 0 0 0 0 0 0 0.635294 0 0 0 0 0.996078 0 0 0 0.1 0"/>
<feBlend mode="normal" in2="BackgroundImageFix" result="effect1_dropShadow_1_3854"/>
<feBlend mode="normal" in="SourceGraphic" in2="effect1_dropShadow_1_3854" result="shape"/>
</filter>
</defs>
</svg>
