<svg width="155" height="73" viewBox="0 0 155 73" fill="none" xmlns="http://www.w3.org/2000/svg">
<g filter="url(#filter0_d_1_3864)">
<rect x="18.851" y="16" width="117" height="35" rx="11.8006" fill="white" shape-rendering="crispEdges"/>
<path d="M44.8501 39.9457C44.8501 39.9457 50.0082 37.3667 50.0082 33.4981V28.9848L44.8501 27.0505L39.6921 28.9848V33.4981C39.6921 37.3667 44.8501 39.9457 44.8501 39.9457Z" stroke="#DA45FF" stroke-width="1.28952" stroke-linecap="round" stroke-linejoin="round"/>
<path d="M58.0863 28.9218V38.5H56.6412V28.9218H58.0863ZM61.477 34.2347V38.5H60.0787V31.3163H61.4209V32.4855H61.5098C61.675 32.1052 61.9338 31.7996 62.2861 31.5689C62.6416 31.3382 63.089 31.2228 63.6284 31.2228C64.1179 31.2228 64.5466 31.3257 64.9145 31.5315C65.2825 31.7341 65.5678 32.0366 65.7704 32.4388C65.9731 32.841 66.0744 33.3383 66.0744 33.9307V38.5H64.676V34.0991C64.676 33.5784 64.5404 33.1715 64.2691 32.8784C63.9979 32.5822 63.6253 32.4341 63.1514 32.4341C62.8271 32.4341 62.5387 32.5043 62.2861 32.6446C62.0367 32.7849 61.8387 32.9906 61.6922 33.2619C61.5488 33.53 61.477 33.8543 61.477 34.2347ZM73.3329 33.0702L72.0655 33.2946C72.0125 33.1325 71.9283 32.9782 71.8129 32.8316C71.7007 32.6851 71.5479 32.5651 71.3546 32.4715C71.1613 32.378 70.9197 32.3312 70.6297 32.3312C70.2337 32.3312 69.9032 32.4201 69.6382 32.5978C69.3732 32.7724 69.2407 32.9984 69.2407 33.2759C69.2407 33.516 69.3295 33.7093 69.5072 33.8559C69.685 34.0024 69.9718 34.1224 70.3678 34.216L71.5089 34.4779C72.1699 34.6307 72.6626 34.8661 72.9868 35.1841C73.3111 35.5021 73.4732 35.9152 73.4732 36.4235C73.4732 36.8537 73.3485 37.2372 73.0991 37.574C72.8528 37.9076 72.5082 38.1695 72.0655 38.3597C71.6259 38.5499 71.1161 38.645 70.5361 38.645C69.7317 38.645 69.0754 38.4735 68.5672 38.1305C68.059 37.7844 67.7472 37.2934 67.6318 36.6573L68.9834 36.4515C69.0676 36.8039 69.2407 37.0704 69.5026 37.2513C69.7645 37.429 70.1059 37.5179 70.5268 37.5179C70.9851 37.5179 71.3515 37.4228 71.6259 37.2326C71.9002 37.0393 72.0374 36.8039 72.0374 36.5264C72.0374 36.3019 71.9532 36.1132 71.7849 35.9605C71.6196 35.8077 71.3655 35.6923 71.0225 35.6144L69.8066 35.3478C69.1362 35.195 68.6405 34.9518 68.3193 34.6182C68.0013 34.2846 67.8423 33.8621 67.8423 33.3508C67.8423 32.9267 67.9608 32.5557 68.1977 32.2377C68.4347 31.9196 68.7621 31.6718 69.1799 31.494C69.5977 31.3132 70.0763 31.2228 70.6157 31.2228C71.392 31.2228 72.0031 31.3912 72.449 31.7279C72.8948 32.0615 73.1895 32.5089 73.3329 33.0702ZM79.5613 35.5208V31.3163H80.9644V38.5H79.5894V37.256H79.5146C79.3493 37.6395 79.0843 37.959 78.7195 38.2147C78.3578 38.4673 77.9073 38.5935 77.3679 38.5935C76.9064 38.5935 76.498 38.4922 76.1425 38.2895C75.7902 38.0838 75.5127 37.7798 75.3101 37.3776C75.1105 36.9753 75.0107 36.478 75.0107 35.8856V31.3163H76.4091V35.7173C76.4091 36.2068 76.5448 36.5965 76.816 36.8865C77.0873 37.1764 77.4396 37.3214 77.873 37.3214C78.1349 37.3214 78.3952 37.256 78.654 37.125C78.9159 36.994 79.1326 36.7961 79.3041 36.531C79.4787 36.266 79.5645 35.9293 79.5613 35.5208ZM82.8433 38.5V31.3163H84.1949V32.4575H84.2698C84.4007 32.0709 84.6315 31.7669 84.962 31.5455C85.2956 31.321 85.6728 31.2088 86.0938 31.2088C86.1811 31.2088 86.284 31.2119 86.4024 31.2181C86.524 31.2243 86.6191 31.2321 86.6877 31.2415V32.5791C86.6316 32.5635 86.5318 32.5463 86.3884 32.5276C86.245 32.5058 86.1016 32.4949 85.9581 32.4949C85.6276 32.4949 85.333 32.5651 85.0742 32.7054C84.8185 32.8425 84.6159 33.0343 84.4662 33.2806C84.3165 33.5238 84.2417 33.8013 84.2417 34.1131V38.5H82.8433ZM89.9241 38.659C89.4689 38.659 89.0573 38.5748 88.6894 38.4065C88.3215 38.235 88.03 37.9871 87.8148 37.6628C87.6028 37.3386 87.4968 36.941 87.4968 36.4702C87.4968 36.0649 87.5748 35.7313 87.7307 35.4694C87.8866 35.2075 88.097 35.0001 88.362 34.8474C88.6271 34.6946 88.9233 34.5792 89.2506 34.5013C89.578 34.4233 89.9116 34.3641 90.2515 34.3236C90.6818 34.2737 91.031 34.2331 91.2991 34.202C91.5673 34.1677 91.7621 34.1131 91.8837 34.0383C92.0053 33.9634 92.0661 33.8418 92.0661 33.6735V33.6407C92.0661 33.2323 91.9508 32.9158 91.72 32.6913C91.4924 32.4668 91.1526 32.3546 90.7005 32.3546C90.2297 32.3546 89.8586 32.459 89.5874 32.6679C89.3192 32.8737 89.1337 33.1029 89.0308 33.3554L87.7166 33.0561C87.8725 32.6196 88.1001 32.2673 88.3995 31.9991C88.7019 31.7279 89.0495 31.5315 89.4424 31.4099C89.8353 31.2851 90.2484 31.2228 90.6818 31.2228C90.9686 31.2228 91.2726 31.2571 91.5938 31.3257C91.918 31.3912 92.2205 31.5128 92.5011 31.6905C92.7848 31.8682 93.0171 32.1223 93.1979 32.4528C93.3788 32.7802 93.4692 33.2058 93.4692 33.7296V38.5H92.1035V37.5179H92.0474C91.957 37.6987 91.8214 37.8764 91.6405 38.051C91.4597 38.2256 91.2274 38.3706 90.9437 38.486C90.6599 38.6013 90.3201 38.659 89.9241 38.659ZM90.2281 37.5366C90.6147 37.5366 90.9452 37.4602 91.2196 37.3074C91.4971 37.1546 91.7076 36.9551 91.851 36.7088C91.9975 36.4593 92.0708 36.1927 92.0708 35.909V34.983C92.0209 35.0329 91.9243 35.0796 91.7808 35.1233C91.6405 35.1638 91.48 35.1997 91.2991 35.2309C91.1183 35.2589 90.9421 35.2854 90.7706 35.3104C90.5991 35.3322 90.4557 35.3509 90.3404 35.3665C90.0691 35.4008 89.8212 35.4585 89.5967 35.5395C89.3754 35.6206 89.1976 35.7375 89.0636 35.8903C88.9326 36.04 88.8671 36.2395 88.8671 36.4889C88.8671 36.835 88.995 37.0969 89.2506 37.2747C89.5063 37.4493 89.8321 37.5366 90.2281 37.5366ZM96.7301 34.2347V38.5H95.3317V31.3163H96.674V32.4855H96.7629C96.9281 32.1052 97.1869 31.7996 97.5392 31.5689C97.8947 31.3382 98.3421 31.2228 98.8815 31.2228C99.371 31.2228 99.7997 31.3257 100.168 31.5315C100.536 31.7341 100.821 32.0366 101.023 32.4388C101.226 32.841 101.327 33.3383 101.327 33.9307V38.5H99.9291V34.0991C99.9291 33.5784 99.7935 33.1715 99.5222 32.8784C99.251 32.5822 98.8784 32.4341 98.4045 32.4341C98.0802 32.4341 97.7918 32.5043 97.5392 32.6446C97.2898 32.7849 97.0918 32.9906 96.9453 33.2619C96.8018 33.53 96.7301 33.8543 96.7301 34.2347ZM106.229 38.645C105.534 38.645 104.935 38.4875 104.433 38.1726C103.934 37.8546 103.551 37.4165 103.282 36.8584C103.014 36.3003 102.88 35.6611 102.88 34.9409C102.88 34.2113 103.017 33.5675 103.292 33.0094C103.566 32.4481 103.953 32.0101 104.452 31.6952C104.951 31.3802 105.538 31.2228 106.215 31.2228C106.76 31.2228 107.247 31.3241 107.674 31.5268C108.101 31.7263 108.446 32.0069 108.708 32.3686C108.973 32.7303 109.13 33.1528 109.18 33.6361H107.819C107.744 33.2993 107.573 33.0094 107.305 32.7662C107.04 32.523 106.684 32.4014 106.238 32.4014C105.848 32.4014 105.507 32.5043 105.214 32.71C104.924 32.9127 104.698 33.2027 104.536 33.5799C104.374 33.9541 104.293 34.3968 104.293 34.9082C104.293 35.432 104.372 35.8841 104.531 36.2645C104.69 36.6448 104.915 36.9395 105.205 37.1484C105.498 37.3573 105.842 37.4617 106.238 37.4617C106.503 37.4617 106.743 37.4134 106.958 37.3168C107.177 37.217 107.359 37.0751 107.506 36.8912C107.655 36.7072 107.76 36.4858 107.819 36.227H109.18C109.13 36.6916 108.979 37.1063 108.726 37.4711C108.474 37.8359 108.135 38.1227 107.711 38.3316C107.291 38.5405 106.796 38.645 106.229 38.645ZM113.771 38.645C113.064 38.645 112.454 38.4938 111.943 38.1913C111.435 37.8858 111.042 37.4571 110.764 36.9052C110.49 36.3502 110.353 35.7001 110.353 34.9549C110.353 34.2191 110.49 33.5706 110.764 33.0094C111.042 32.4481 111.428 32.0101 111.924 31.6952C112.423 31.3802 113.006 31.2228 113.673 31.2228C114.079 31.2228 114.471 31.2898 114.852 31.4239C115.232 31.558 115.574 31.7684 115.876 32.0553C116.179 32.3421 116.417 32.7147 116.592 33.173C116.766 33.6283 116.854 34.1817 116.854 34.8333V35.3291H111.143V34.2815H115.483C115.483 33.9135 115.408 33.5877 115.259 33.304C115.109 33.0171 114.899 32.7911 114.627 32.6258C114.359 32.4606 114.044 32.378 113.683 32.378C113.29 32.378 112.947 32.4746 112.654 32.6679C112.364 32.8581 112.139 33.1076 111.98 33.4162C111.824 33.7218 111.746 34.0539 111.746 34.4124V35.2309C111.746 35.711 111.831 36.1195 111.999 36.4562C112.17 36.7929 112.409 37.0502 112.715 37.2279C113.02 37.4025 113.377 37.4898 113.786 37.4898C114.051 37.4898 114.292 37.4524 114.51 37.3776C114.729 37.2996 114.917 37.1842 115.076 37.0315C115.235 36.8787 115.357 36.6901 115.441 36.4656L116.765 36.7041C116.659 37.0938 116.468 37.4352 116.194 37.7283C115.923 38.0183 115.581 38.2443 115.17 38.4065C114.761 38.5655 114.295 38.645 113.771 38.645Z" fill="#1C242D"/>
<rect x="19.646" y="16.795" width="115.41" height="33.41" rx="11.0056" stroke="#BFE4FF" stroke-width="1.59" shape-rendering="crispEdges"/>
</g>
<defs>
<filter id="filter0_d_1_3864" x="0.480762" y="0.691458" width="153.741" height="71.7405" filterUnits="userSpaceOnUse" color-interpolation-filters="sRGB">
<feFlood flood-opacity="0" result="BackgroundImageFix"/>
<feColorMatrix in="SourceAlpha" type="matrix" values="0 0 0 0 0 0 0 0 0 0 0 0 0 0 0 0 0 0 127 0" result="hardAlpha"/>
<feOffset dy="3.06171"/>
<feGaussianBlur stdDeviation="9.18513"/>
<feComposite in2="hardAlpha" operator="out"/>
<feColorMatrix type="matrix" values="0 0 0 0 0 0 0 0 0 0.635294 0 0 0 0 0.996078 0 0 0 0.1 0"/>
<feBlend mode="normal" in2="BackgroundImageFix" result="effect1_dropShadow_1_3864"/>
<feBlend mode="normal" in="SourceGraphic" in2="effect1_dropShadow_1_3864" result="shape"/>
</filter>
</defs>
</svg>
