<svg width="180" height="73" viewBox="0 0 180 73" fill="none" xmlns="http://www.w3.org/2000/svg">
<g filter="url(#filter0_d_1_2495)">
<rect x="19" y="16" width="142" height="35" rx="12.2233" fill="white" shape-rendering="crispEdges"/>
<g clip-path="url(#clip0_1_2495)">
<path d="M39.7823 25.6001V41.4028L41.3626 40.6127L42.9429 41.4028L44.5231 40.6127L46.1034 41.4028L47.6837 40.6127L49.2639 41.4028L50.8442 40.6127L52.4245 41.4028V25.6001L50.8442 26.3902L49.2639 25.6001L47.6837 26.3902L46.1034 25.6001L44.5231 26.3902L42.9429 25.6001L41.3626 26.3902L39.7823 25.6001Z" stroke="#84E03C" stroke-width="1.58027" stroke-linecap="round" stroke-linejoin="round"/>
<path d="M49.5344 31.4025L49.2202 32.5114H43.3345L43.6488 31.4025H49.5344ZM46.6702 38.3881L43.4557 34.4868L43.4468 33.6113H45.0405C45.4386 33.6113 45.7753 33.55 46.0506 33.4273C46.326 33.3045 46.5355 33.1265 46.6791 32.893C46.8228 32.6566 46.8946 32.3692 46.8946 32.031C46.8946 31.5282 46.745 31.1287 46.4457 30.8324C46.1464 30.5361 45.678 30.3879 45.0405 30.3879H43.3345L43.6623 29.1937H45.0405C45.7828 29.1937 46.3948 29.312 46.8767 29.5484C47.3585 29.7848 47.7177 30.1126 47.9541 30.5316C48.1906 30.9506 48.3088 31.434 48.3088 31.9817C48.3088 32.4695 48.2115 32.911 48.017 33.306C47.8225 33.7011 47.5127 34.0229 47.0877 34.2713C46.6627 34.5197 46.1045 34.6648 45.4131 34.7067L45.3727 34.7157L48.3088 38.3117V38.3881H46.6702ZM49.5389 29.1937L49.2202 30.3116L44.5153 30.2847L44.834 29.1937H49.5389Z" fill="#84E03C"/>
</g>
<path d="M60.4303 38.5V28.9218H63.9379C64.6176 28.9218 65.1804 29.034 65.6263 29.2585C66.0722 29.4799 66.4058 29.7808 66.6271 30.1611C66.8485 30.5384 66.9592 30.964 66.9592 31.4379C66.9592 31.837 66.8859 32.1738 66.7394 32.4481C66.5928 32.7194 66.3964 32.9376 66.1501 33.1029C65.9069 33.265 65.6388 33.3835 65.3457 33.4583V33.5519C65.6637 33.5675 65.9739 33.6704 66.2764 33.8605C66.5819 34.0476 66.8345 34.3142 67.034 34.6603C67.2336 35.0064 67.3333 35.4273 67.3333 35.923C67.3333 36.4126 67.218 36.8522 66.9873 37.2419C66.7597 37.6285 66.4073 37.9357 65.9303 38.1633C65.4532 38.3878 64.8437 38.5 64.1016 38.5H60.4303ZM61.8754 37.2606H63.9613C64.6535 37.2606 65.1492 37.1266 65.4486 36.8584C65.7479 36.5903 65.8975 36.2551 65.8975 35.8529C65.8975 35.5505 65.8212 35.273 65.6684 35.0204C65.5156 34.7679 65.2974 34.5668 65.0136 34.4171C64.733 34.2674 64.3994 34.1926 64.0128 34.1926H61.8754V37.2606ZM61.8754 33.0655H63.8117C64.1359 33.0655 64.4275 33.0031 64.6862 32.8784C64.9481 32.7537 65.1555 32.5791 65.3083 32.3546C65.4642 32.127 65.5421 31.8588 65.5421 31.5502C65.5421 31.1542 65.4034 30.8221 65.1259 30.554C64.8484 30.2859 64.4228 30.1518 63.8491 30.1518H61.8754V33.0655ZM68.9352 38.5V31.3163H70.3336V38.5H68.9352ZM69.6414 30.2079C69.3982 30.2079 69.1893 30.1268 69.0147 29.9647C68.8432 29.7995 68.7575 29.603 68.7575 29.3754C68.7575 29.1447 68.8432 28.9483 69.0147 28.7861C69.1893 28.6209 69.3982 28.5383 69.6414 28.5383C69.8846 28.5383 70.0919 28.6209 70.2634 28.7861C70.438 28.9483 70.5253 29.1447 70.5253 29.3754C70.5253 29.603 70.438 29.7995 70.2634 29.9647C70.0919 30.1268 69.8846 30.2079 69.6414 30.2079ZM73.6132 28.9218V38.5H72.2148V28.9218H73.6132ZM76.8929 28.9218V38.5H75.4945V28.9218H76.8929ZM82.2596 41.1939V31.3163H83.6252V32.4809H83.7421C83.8232 32.3312 83.9401 32.1582 84.0929 31.9617C84.2457 31.7653 84.4577 31.5938 84.729 31.4473C85.0002 31.2976 85.3588 31.2228 85.8047 31.2228C86.3846 31.2228 86.9022 31.3693 87.3574 31.6624C87.8126 31.9555 88.1696 32.378 88.4284 32.9298C88.6903 33.4817 88.8212 34.1458 88.8212 34.9222C88.8212 35.6986 88.6918 36.3642 88.4331 36.9192C88.1743 37.4711 87.8188 37.8967 87.3667 38.196C86.9146 38.4922 86.3986 38.6403 85.8187 38.6403C85.3822 38.6403 85.0252 38.567 84.7477 38.4205C84.4733 38.274 84.2582 38.1025 84.1023 37.906C83.9464 37.7096 83.8263 37.535 83.7421 37.3822H83.658V41.1939H82.2596ZM83.6299 34.9082C83.6299 35.4133 83.7032 35.856 83.8497 36.2364C83.9963 36.6168 84.2083 36.9145 84.4858 37.1297C84.7633 37.3417 85.1031 37.4477 85.5053 37.4477C85.9231 37.4477 86.2723 37.337 86.5529 37.1156C86.8336 36.8912 87.0456 36.5872 87.189 36.2037C87.3355 35.8202 87.4088 35.3883 87.4088 34.9082C87.4088 34.4342 87.3371 34.0086 87.1937 33.6314C87.0534 33.2541 86.8414 32.9563 86.5576 32.7381C86.277 32.5198 85.9262 32.4107 85.5053 32.4107C85.1 32.4107 84.757 32.5152 84.4764 32.7241C84.1989 32.933 83.9885 33.2245 83.845 33.5986C83.7016 33.9728 83.6299 34.4093 83.6299 34.9082ZM92.4785 38.659C92.0233 38.659 91.6118 38.5748 91.2439 38.4065C90.8759 38.235 90.5844 37.9871 90.3693 37.6628C90.1573 37.3386 90.0512 36.941 90.0512 36.4702C90.0512 36.0649 90.1292 35.7313 90.2851 35.4694C90.441 35.2075 90.6514 35.0001 90.9165 34.8474C91.1815 34.6946 91.4777 34.5792 91.8051 34.5013C92.1325 34.4233 92.4661 34.3641 92.8059 34.3236C93.2362 34.2737 93.5854 34.2331 93.8535 34.202C94.1217 34.1677 94.3166 34.1131 94.4382 34.0383C94.5598 33.9634 94.6206 33.8418 94.6206 33.6735V33.6407C94.6206 33.2323 94.5052 32.9158 94.2745 32.6913C94.0469 32.4668 93.707 32.3546 93.2549 32.3546C92.7841 32.3546 92.4131 32.459 92.1418 32.6679C91.8737 32.8737 91.6882 33.1029 91.5853 33.3554L90.2711 33.0561C90.427 32.6196 90.6546 32.2673 90.9539 31.9991C91.2563 31.7279 91.604 31.5315 91.9968 31.4099C92.3897 31.2851 92.8028 31.2228 93.2362 31.2228C93.523 31.2228 93.827 31.2571 94.1482 31.3257C94.4725 31.3912 94.7749 31.5128 95.0555 31.6905C95.3392 31.8682 95.5715 32.1223 95.7524 32.4528C95.9332 32.7802 96.0236 33.2058 96.0236 33.7296V38.5H94.658V37.5179H94.6018C94.5114 37.6987 94.3758 37.8764 94.195 38.051C94.0141 38.2256 93.7818 38.3706 93.4981 38.486C93.2144 38.6013 92.8745 38.659 92.4785 38.659ZM92.7825 37.5366C93.1692 37.5366 93.4997 37.4602 93.774 37.3074C94.0515 37.1546 94.262 36.9551 94.4054 36.7088C94.552 36.4593 94.6252 36.1927 94.6252 35.909V34.983C94.5753 35.0329 94.4787 35.0796 94.3353 35.1233C94.195 35.1638 94.0344 35.1997 93.8535 35.2309C93.6727 35.2589 93.4965 35.2854 93.3251 35.3104C93.1536 35.3322 93.0102 35.3509 92.8948 35.3665C92.6235 35.4008 92.3757 35.4585 92.1512 35.5395C91.9298 35.6206 91.7521 35.7375 91.618 35.8903C91.487 36.04 91.4216 36.2395 91.4216 36.4889C91.4216 36.835 91.5494 37.0969 91.8051 37.2747C92.0607 37.4493 92.3866 37.5366 92.7825 37.5366ZM98.5129 41.1939C98.304 41.1939 98.1138 41.1767 97.9423 41.1424C97.7708 41.1113 97.643 41.077 97.5588 41.0395L97.8955 39.8937C98.1512 39.9623 98.3788 39.9919 98.5784 39.9826C98.7779 39.9732 98.9541 39.8984 99.1068 39.7581C99.2627 39.6178 99.3999 39.3886 99.5184 39.0706L99.6914 38.5935L97.063 31.3163H98.5596L100.379 36.8912H100.454L102.273 31.3163H103.774L100.814 39.4588C100.677 39.8329 100.502 40.1494 100.29 40.4082C100.078 40.6701 99.8255 40.8665 99.5324 40.9974C99.2393 41.1284 98.8995 41.1939 98.5129 41.1939ZM105.089 38.5V31.3163H106.431V32.4855H106.52C106.669 32.0896 106.914 31.7809 107.254 31.5595C107.594 31.335 108.001 31.2228 108.475 31.2228C108.955 31.2228 109.357 31.335 109.681 31.5595C110.009 31.784 110.25 32.0927 110.406 32.4855H110.481C110.652 32.102 110.925 31.7965 111.299 31.5689C111.674 31.3382 112.119 31.2228 112.637 31.2228C113.289 31.2228 113.82 31.427 114.232 31.8355C114.647 32.2439 114.854 32.8597 114.854 33.6828V38.5H113.455V33.8138C113.455 33.3274 113.323 32.9751 113.058 32.7568C112.793 32.5385 112.476 32.4294 112.109 32.4294C111.653 32.4294 111.299 32.5697 111.047 32.8503C110.794 33.1278 110.668 33.4848 110.668 33.9213V38.5H109.274V33.7249C109.274 33.3352 109.153 33.0218 108.91 32.7849C108.666 32.5479 108.35 32.4294 107.96 32.4294C107.695 32.4294 107.45 32.4996 107.226 32.6399C107.005 32.7771 106.825 32.9688 106.688 33.2151C106.554 33.4615 106.487 33.7467 106.487 34.071V38.5H105.089ZM119.824 38.645C119.116 38.645 118.507 38.4938 117.996 38.1913C117.487 37.8858 117.094 37.4571 116.817 36.9052C116.543 36.3502 116.405 35.7001 116.405 34.9549C116.405 34.2191 116.543 33.5706 116.817 33.0094C117.094 32.4481 117.481 32.0101 117.977 31.6952C118.476 31.3802 119.059 31.2228 119.726 31.2228C120.131 31.2228 120.524 31.2898 120.905 31.4239C121.285 31.558 121.626 31.7684 121.929 32.0553C122.231 32.3421 122.47 32.7147 122.644 33.173C122.819 33.6283 122.906 34.1817 122.906 34.8333V35.3291H117.196V34.2815H121.536C121.536 33.9135 121.461 33.5877 121.311 33.304C121.162 33.0171 120.951 32.7911 120.68 32.6258C120.412 32.4606 120.097 32.378 119.735 32.378C119.342 32.378 119 32.4746 118.706 32.6679C118.416 32.8581 118.192 33.1076 118.033 33.4162C117.877 33.7218 117.799 34.0539 117.799 34.4124V35.2309C117.799 35.711 117.883 36.1195 118.052 36.4562C118.223 36.7929 118.462 37.0502 118.767 37.2279C119.073 37.4025 119.43 37.4898 119.838 37.4898C120.103 37.4898 120.345 37.4524 120.563 37.3776C120.781 37.2996 120.97 37.1842 121.129 37.0315C121.288 36.8787 121.41 36.6901 121.494 36.4656L122.817 36.7041C122.711 37.0938 122.521 37.4352 122.247 37.7283C121.976 38.0183 121.634 38.2443 121.223 38.4065C120.814 38.5655 120.348 38.645 119.824 38.645ZM125.856 34.2347V38.5H124.458V31.3163H125.8V32.4855H125.889C126.054 32.1052 126.313 31.7996 126.665 31.5689C127.021 31.3382 127.468 31.2228 128.008 31.2228C128.497 31.2228 128.926 31.3257 129.294 31.5315C129.662 31.7341 129.947 32.0366 130.15 32.4388C130.352 32.841 130.454 33.3383 130.454 33.9307V38.5H129.055V34.0991C129.055 33.5784 128.92 33.1715 128.648 32.8784C128.377 32.5822 128.004 32.4341 127.531 32.4341C127.206 32.4341 126.918 32.5043 126.665 32.6446C126.416 32.7849 126.218 32.9906 126.071 33.2619C125.928 33.53 125.856 33.8543 125.856 34.2347ZM135.682 31.3163V32.4388H131.758V31.3163H135.682ZM132.811 29.5952H134.209V36.3907C134.209 36.662 134.25 36.8662 134.331 37.0034C134.412 37.1375 134.516 37.2295 134.644 37.2793C134.775 37.3261 134.917 37.3495 135.07 37.3495C135.182 37.3495 135.28 37.3417 135.364 37.3261C135.448 37.3105 135.514 37.298 135.561 37.2887L135.813 38.4439C135.732 38.4751 135.617 38.5062 135.467 38.5374C135.318 38.5717 135.13 38.5904 134.906 38.5935C134.538 38.5998 134.195 38.5343 133.877 38.3971C133.559 38.2599 133.302 38.0479 133.105 37.7611C132.909 37.4742 132.811 37.1141 132.811 36.6807V29.5952ZM142.497 33.0702L141.229 33.2946C141.176 33.1325 141.092 32.9782 140.977 32.8316C140.864 32.6851 140.712 32.5651 140.518 32.4715C140.325 32.378 140.083 32.3312 139.793 32.3312C139.397 32.3312 139.067 32.4201 138.802 32.5978C138.537 32.7724 138.404 32.9984 138.404 33.2759C138.404 33.516 138.493 33.7093 138.671 33.8559C138.849 34.0024 139.135 34.1224 139.531 34.216L140.673 34.4779C141.334 34.6307 141.826 34.8661 142.15 35.1841C142.475 35.5021 142.637 35.9152 142.637 36.4235C142.637 36.8537 142.512 37.2372 142.263 37.574C142.016 37.9076 141.672 38.1695 141.229 38.3597C140.789 38.5499 140.28 38.645 139.7 38.645C138.895 38.645 138.239 38.4735 137.731 38.1305C137.223 37.7844 136.911 37.2934 136.795 36.6573L138.147 36.4515C138.231 36.8039 138.404 37.0704 138.666 37.2513C138.928 37.429 139.269 37.5179 139.69 37.5179C140.149 37.5179 140.515 37.4228 140.789 37.2326C141.064 37.0393 141.201 36.8039 141.201 36.5264C141.201 36.3019 141.117 36.1132 140.948 35.9605C140.783 35.8077 140.529 35.6923 140.186 35.6144L138.97 35.3478C138.3 35.195 137.804 34.9518 137.483 34.6182C137.165 34.2846 137.006 33.8621 137.006 33.3508C137.006 32.9267 137.124 32.5557 137.361 32.2377C137.598 31.9196 137.926 31.6718 138.343 31.494C138.761 31.3132 139.24 31.2228 139.779 31.2228C140.556 31.2228 141.167 31.3912 141.613 31.7279C142.058 32.0615 142.353 32.5089 142.497 33.0702Z" fill="#1C242D"/>
<rect x="19.7928" y="16.7928" width="140.414" height="33.4143" rx="11.4305" stroke="#BFE4FF" stroke-width="1.58565" shape-rendering="crispEdges"/>
</g>
<defs>
<filter id="filter0_d_1_2495" x="0.629749" y="0.691458" width="178.741" height="71.7405" filterUnits="userSpaceOnUse" color-interpolation-filters="sRGB">
<feFlood flood-opacity="0" result="BackgroundImageFix"/>
<feColorMatrix in="SourceAlpha" type="matrix" values="0 0 0 0 0 0 0 0 0 0 0 0 0 0 0 0 0 0 127 0" result="hardAlpha"/>
<feOffset dy="3.06171"/>
<feGaussianBlur stdDeviation="9.18513"/>
<feComposite in2="hardAlpha" operator="out"/>
<feColorMatrix type="matrix" values="0 0 0 0 0 0 0 0 0 0.635294 0 0 0 0 0.996078 0 0 0 0.1 0"/>
<feBlend mode="normal" in2="BackgroundImageFix" result="effect1_dropShadow_1_2495"/>
<feBlend mode="normal" in="SourceGraphic" in2="effect1_dropShadow_1_2495" result="shape"/>
</filter>
<clipPath id="clip0_1_2495">
<rect width="18.9633" height="18.9633" fill="white" transform="translate(36.622 24.0184)"/>
</clipPath>
</defs>
</svg>
