<svg width="128" height="73" viewBox="0 0 128 73" fill="none" xmlns="http://www.w3.org/2000/svg">
<g filter="url(#filter0_d_1_2490)">
<rect x="19" y="16" width="90" height="35" rx="11.8006" fill="white" shape-rendering="crispEdges"/>
<g clip-path="url(#clip0_1_2490)">
<path d="M37.087 38.7722H47.637" stroke="#B164FF" stroke-width="1.05499" stroke-linecap="round" stroke-linejoin="round"/>
<path d="M39.3869 36.3471L38.142 36.1361L37.087 34.0261L37.6673 33.736C37.8145 33.6618 37.9771 33.6231 38.142 33.6231C38.3069 33.6231 38.4695 33.6618 38.6168 33.736L38.7065 33.7887C38.8537 33.8629 39.0163 33.9016 39.1812 33.9016C39.3461 33.9016 39.5087 33.8629 39.6559 33.7887L40.252 33.4986L38.6695 30.3336L39.1443 30.0963C39.3198 30.0099 39.5158 29.9741 39.7105 29.9927C39.9051 30.0113 40.0908 30.0837 40.2467 30.2018L42.3673 31.7843C42.5238 31.9033 42.7104 31.9763 42.9061 31.9949C43.1019 32.0136 43.2989 31.9771 43.475 31.8898L45.6852 30.8031C45.9677 30.6607 46.2931 30.6288 46.5978 30.7134L47.1095 30.8611C47.2152 30.8905 47.3131 30.943 47.3959 31.015C47.4788 31.0869 47.5446 31.1763 47.5885 31.2769C47.6325 31.3774 47.6535 31.4865 47.65 31.5961C47.6465 31.7058 47.6187 31.8133 47.5684 31.9109L47.368 32.3118C47.2466 32.5544 47.0515 32.7548 46.8035 32.8814L40.0305 36.2416C39.8313 36.3403 39.6061 36.3735 39.3869 36.3366V36.3471Z" stroke="#B164FF" stroke-width="1.05499" stroke-linecap="round" stroke-linejoin="round"/>
</g>
<path d="M53.5485 30.1658V28.9218H60.9614V30.1658H57.9728V38.5H56.5324V30.1658H53.5485ZM61.7412 38.5V31.3163H63.0929V32.4575H63.1677C63.2986 32.0709 63.5294 31.7669 63.8599 31.5455C64.1935 31.321 64.5707 31.2088 64.9917 31.2088C65.079 31.2088 65.1819 31.2119 65.3003 31.2181C65.4219 31.2243 65.517 31.2321 65.5856 31.2415V32.5791C65.5295 32.5635 65.4297 32.5463 65.2863 32.5276C65.1429 32.5058 64.9995 32.4949 64.856 32.4949C64.5255 32.4949 64.2309 32.5651 63.9721 32.7054C63.7164 32.8425 63.5138 33.0343 63.3641 33.2806C63.2145 33.5238 63.1396 33.8013 63.1396 34.1131V38.5H61.7412ZM68.822 38.659C68.3668 38.659 67.9552 38.5748 67.5873 38.4065C67.2194 38.235 66.9279 37.9871 66.7128 37.6628C66.5007 37.3386 66.3947 36.941 66.3947 36.4702C66.3947 36.0649 66.4727 35.7313 66.6286 35.4694C66.7845 35.2075 66.9949 35.0001 67.2599 34.8474C67.525 34.6946 67.8212 34.5792 68.1486 34.5013C68.4759 34.4233 68.8095 34.3641 69.1494 34.3236C69.5797 34.2737 69.9289 34.2331 70.197 34.202C70.4652 34.1677 70.66 34.1131 70.7816 34.0383C70.9032 33.9634 70.964 33.8418 70.964 33.6735V33.6407C70.964 33.2323 70.8487 32.9158 70.6179 32.6913C70.3903 32.4668 70.0505 32.3546 69.5984 32.3546C69.1276 32.3546 68.7565 32.459 68.4853 32.6679C68.2171 32.8737 68.0316 33.1029 67.9287 33.3554L66.6145 33.0561C66.7704 32.6196 66.998 32.2673 67.2974 31.9991C67.5998 31.7279 67.9474 31.5315 68.3403 31.4099C68.7332 31.2851 69.1463 31.2228 69.5797 31.2228C69.8665 31.2228 70.1705 31.2571 70.4917 31.3257C70.8159 31.3912 71.1184 31.5128 71.399 31.6905C71.6827 31.8682 71.915 32.1223 72.0958 32.4528C72.2767 32.7802 72.3671 33.2058 72.3671 33.7296V38.5H71.0014V37.5179H70.9453C70.8549 37.6987 70.7193 37.8764 70.5384 38.051C70.3576 38.2256 70.1253 38.3706 69.8416 38.486C69.5578 38.6013 69.218 38.659 68.822 38.659ZM69.126 37.5366C69.5126 37.5366 69.8431 37.4602 70.1175 37.3074C70.395 37.1546 70.6055 36.9551 70.7489 36.7088C70.8954 36.4593 70.9687 36.1927 70.9687 35.909V34.983C70.9188 35.0329 70.8222 35.0796 70.6787 35.1233C70.5384 35.1638 70.3779 35.1997 70.197 35.2309C70.0162 35.2589 69.84 35.2854 69.6685 35.3104C69.497 35.3322 69.3536 35.3509 69.2383 35.3665C68.967 35.4008 68.7191 35.4585 68.4946 35.5395C68.2733 35.6206 68.0955 35.7375 67.9615 35.8903C67.8305 36.04 67.765 36.2395 67.765 36.4889C67.765 36.835 67.8929 37.0969 68.1486 37.2747C68.4042 37.4493 68.73 37.5366 69.126 37.5366ZM80.1178 31.3163L77.5128 38.5H76.0162L73.4065 31.3163H74.9078L76.7271 36.8444H76.8019L78.6166 31.3163H80.1178ZM84.2838 38.645C83.576 38.645 82.9664 38.4938 82.4551 38.1913C81.9469 37.8858 81.554 37.4571 81.2765 36.9052C81.0022 36.3502 80.865 35.7001 80.865 34.9549C80.865 34.2191 81.0022 33.5706 81.2765 33.0094C81.554 32.4481 81.9406 32.0101 82.4364 31.6952C82.9353 31.3802 83.5183 31.2228 84.1855 31.2228C84.5909 31.2228 84.9837 31.2898 85.3641 31.4239C85.7445 31.558 86.0859 31.7684 86.3883 32.0553C86.6908 32.3421 86.9293 32.7147 87.1039 33.173C87.2785 33.6283 87.3658 34.1817 87.3658 34.8333V35.3291H81.6554V34.2815H85.9955C85.9955 33.9135 85.9207 33.5877 85.771 33.304C85.6213 33.0171 85.4109 32.7911 85.1396 32.6258C84.8715 32.4606 84.5566 32.378 84.1949 32.378C83.802 32.378 83.4591 32.4746 83.166 32.6679C82.876 32.8581 82.6515 33.1076 82.4925 33.4162C82.3366 33.7218 82.2587 34.0539 82.2587 34.4124V35.2309C82.2587 35.711 82.3429 36.1195 82.5112 36.4562C82.6827 36.7929 82.9212 37.0502 83.2268 37.2279C83.5323 37.4025 83.8893 37.4898 84.2978 37.4898C84.5628 37.4898 84.8044 37.4524 85.0227 37.3776C85.241 37.2996 85.4296 37.1842 85.5886 37.0315C85.7476 36.8787 85.8692 36.6901 85.9534 36.4656L87.277 36.7041C87.1709 37.0938 86.9808 37.4352 86.7064 37.7283C86.4351 38.0183 86.0937 38.2443 85.6821 38.4065C85.2737 38.5655 84.8076 38.645 84.2838 38.645ZM90.3157 28.9218V38.5H88.9174V28.9218H90.3157Z" fill="#1C242D"/>
<rect x="19.795" y="16.795" width="88.41" height="33.41" rx="11.0056" stroke="#BFE4FF" stroke-width="1.59" shape-rendering="crispEdges"/>
</g>
<defs>
<filter id="filter0_d_1_2490" x="0.629749" y="0.691458" width="126.741" height="71.7405" filterUnits="userSpaceOnUse" color-interpolation-filters="sRGB">
<feFlood flood-opacity="0" result="BackgroundImageFix"/>
<feColorMatrix in="SourceAlpha" type="matrix" values="0 0 0 0 0 0 0 0 0 0 0 0 0 0 0 0 0 0 127 0" result="hardAlpha"/>
<feOffset dy="3.06171"/>
<feGaussianBlur stdDeviation="9.18513"/>
<feComposite in2="hardAlpha" operator="out"/>
<feColorMatrix type="matrix" values="0 0 0 0 0 0 0 0 0 0.635294 0 0 0 0 0.996078 0 0 0 0.1 0"/>
<feBlend mode="normal" in2="BackgroundImageFix" result="effect1_dropShadow_1_2490"/>
<feBlend mode="normal" in="SourceGraphic" in2="effect1_dropShadow_1_2490" result="shape"/>
</filter>
<clipPath id="clip0_1_2490">
<rect width="12.6599" height="12.6599" fill="white" transform="translate(36.0314 27.17)"/>
</clipPath>
</defs>
</svg>
