<svg width="198" height="75" viewBox="0 0 198 75" fill="none" xmlns="http://www.w3.org/2000/svg">
<g filter="url(#filter0_d_1_3918)">
<rect x="20.0192" y="17" width="158.289" height="35.4558" rx="10.7007" fill="white" shape-rendering="crispEdges"/>
<path d="M36.3539 29.5013V39.9563H46.8088" stroke="#8A20BC" stroke-width="1.16166" stroke-linecap="round" stroke-linejoin="round"/>
<path d="M38.6765 34.7287V37.6328H45.6464V32.4053L42.7423 35.3095L40.419 32.9862L38.6765 34.7287Z" stroke="#8A20BC" stroke-width="1.16166" stroke-linecap="round" stroke-linejoin="round"/>
<path d="M52.7685 39.728V30.1497H58.7736V31.3938H54.2136V34.3121H58.4602V35.5515H54.2136V38.4839H58.8297V39.728H52.7685ZM61.6955 32.5443L63.2809 35.3411L64.8804 32.5443H66.4097L64.1695 36.1361L66.4285 39.728H64.8991L63.2809 37.0434L61.6674 39.728H60.1334L62.3689 36.1361L60.1614 32.5443H61.6955ZM67.8455 42.4218V32.5443H69.2112V33.7088H69.3281C69.4092 33.5592 69.5261 33.3861 69.6789 33.1897C69.8317 32.9933 70.0437 32.8218 70.3149 32.6752C70.5862 32.5256 70.9448 32.4508 71.3906 32.4508C71.9705 32.4508 72.4881 32.5973 72.9433 32.8904C73.3986 33.1835 73.7556 33.6059 74.0143 34.1578C74.2762 34.7097 74.4072 35.3738 74.4072 36.1502C74.4072 36.9265 74.2778 37.5922 74.019 38.1472C73.7602 38.6991 73.4048 39.1246 72.9527 39.424C72.5006 39.7202 71.9846 39.8683 71.4046 39.8683C70.9681 39.8683 70.6111 39.795 70.3336 39.6485C70.0593 39.5019 69.8441 39.3304 69.6882 39.134C69.5323 38.9376 69.4123 38.763 69.3281 38.6102H69.2439V42.4218H67.8455ZM69.2159 36.1361C69.2159 36.6412 69.2891 37.084 69.4357 37.4644C69.5822 37.8447 69.7942 38.1425 70.0717 38.3576C70.3492 38.5697 70.6891 38.6757 71.0913 38.6757C71.5091 38.6757 71.8583 38.565 72.1389 38.3436C72.4195 38.1191 72.6315 37.8151 72.775 37.4316C72.9215 37.0481 72.9948 36.6163 72.9948 36.1361C72.9948 35.6622 72.9231 35.2366 72.7796 34.8593C72.6393 34.4821 72.4273 34.1843 72.1436 33.9661C71.863 33.7478 71.5122 33.6387 71.0913 33.6387C70.686 33.6387 70.343 33.7431 70.0624 33.952C69.7849 34.1609 69.5744 34.4525 69.431 34.8266C69.2876 35.2008 69.2159 35.6373 69.2159 36.1361ZM79.07 39.8729C78.3623 39.8729 77.7527 39.7217 77.2414 39.4193C76.7332 39.1137 76.3403 38.685 76.0628 38.1332C75.7884 37.5782 75.6512 36.9281 75.6512 36.1829C75.6512 35.4471 75.7884 34.7985 76.0628 34.2373C76.3403 33.6761 76.7269 33.238 77.2227 32.9231C77.7215 32.6082 78.3046 32.4508 78.9718 32.4508C79.3772 32.4508 79.77 32.5178 80.1504 32.6519C80.5308 32.7859 80.8722 32.9964 81.1746 33.2832C81.4771 33.5701 81.7156 33.9427 81.8902 34.401C82.0648 34.8562 82.1521 35.4097 82.1521 36.0613V36.557H76.4416V35.5094H80.7818C80.7818 35.1415 80.7069 34.8157 80.5573 34.532C80.4076 34.2451 80.1972 34.0191 79.9259 33.8538C79.6578 33.6886 79.3429 33.6059 78.9812 33.6059C78.5883 33.6059 78.2453 33.7026 77.9523 33.8959C77.6623 34.0861 77.4378 34.3355 77.2788 34.6442C77.1229 34.9498 77.045 35.2818 77.045 35.6404V36.4588C77.045 36.939 77.1291 37.3474 77.2975 37.6842C77.469 38.0209 77.7075 38.2781 78.0131 38.4559C78.3186 38.6305 78.6756 38.7178 79.0841 38.7178C79.3491 38.7178 79.5907 38.6803 79.809 38.6055C80.0272 38.5276 80.2159 38.4122 80.3749 38.2594C80.5339 38.1067 80.6555 37.918 80.7397 37.6935L82.0632 37.932C81.9572 38.3218 81.767 38.6632 81.4927 38.9563C81.2214 39.2462 80.88 39.4723 80.4684 39.6344C80.06 39.7934 79.5938 39.8729 79.07 39.8729ZM85.102 35.4627V39.728H83.7036V32.5443H85.0459V33.7135H85.1348C85.3 33.3331 85.5588 33.0276 85.9111 32.7968C86.2666 32.5661 86.714 32.4508 87.2534 32.4508C87.7429 32.4508 88.1716 32.5536 88.5395 32.7594C88.9074 32.9621 89.1927 33.2645 89.3954 33.6667C89.5981 34.069 89.6994 34.5663 89.6994 35.1587V39.728H88.301V35.327C88.301 34.8063 88.1654 34.3995 87.8941 34.1064C87.6229 33.8102 87.2503 33.6621 86.7764 33.6621C86.4521 33.6621 86.1637 33.7322 85.9111 33.8725C85.6617 34.0128 85.4637 34.2186 85.3172 34.4899C85.1737 34.758 85.102 35.0823 85.102 35.4627ZM96.9579 34.2981L95.6905 34.5226C95.6375 34.3605 95.5533 34.2061 95.4379 34.0596C95.3257 33.9131 95.1729 33.793 94.9796 33.6995C94.7863 33.6059 94.5446 33.5592 94.2547 33.5592C93.8587 33.5592 93.5282 33.648 93.2632 33.8258C92.9981 34.0004 92.8656 34.2264 92.8656 34.5039C92.8656 34.744 92.9545 34.9373 93.1322 35.0838C93.3099 35.2304 93.5968 35.3504 93.9928 35.444L95.1339 35.7059C95.7949 35.8586 96.2875 36.094 96.6118 36.4121C96.9361 36.7301 97.0982 37.1432 97.0982 37.6514C97.0982 38.0817 96.9735 38.4652 96.7241 38.8019C96.4777 39.1356 96.1332 39.3975 95.6905 39.5877C95.2508 39.7779 94.7411 39.8729 94.1611 39.8729C93.3567 39.8729 92.7004 39.7015 92.1922 39.3585C91.6839 39.0124 91.3722 38.5213 91.2568 37.8853L92.6084 37.6795C92.6926 38.0318 92.8656 38.2984 93.1275 38.4792C93.3894 38.657 93.7309 38.7458 94.1518 38.7458C94.6101 38.7458 94.9765 38.6507 95.2508 38.4605C95.5252 38.2672 95.6624 38.0318 95.6624 37.7543C95.6624 37.5298 95.5782 37.3412 95.4099 37.1884C95.2446 37.0356 94.9905 36.9203 94.6475 36.8423L93.4315 36.5758C92.7612 36.423 92.2654 36.1798 91.9443 35.8462C91.6263 35.5125 91.4673 35.0901 91.4673 34.5787C91.4673 34.1547 91.5857 33.7837 91.8227 33.4656C92.0597 33.1476 92.387 32.8997 92.8048 32.722C93.2226 32.5412 93.7012 32.4508 94.2406 32.4508C95.017 32.4508 95.6281 32.6191 96.074 32.9559C96.5198 33.2895 96.8145 33.7369 96.9579 34.2981ZM101.732 39.8729C101.024 39.8729 100.414 39.7217 99.9032 39.4193C99.3949 39.1137 99.0021 38.685 98.7246 38.1332C98.4502 37.5782 98.313 36.9281 98.313 36.1829C98.313 35.4471 98.4502 34.7985 98.7246 34.2373C99.0021 33.6761 99.3887 33.238 99.8845 32.9231C100.383 32.6082 100.966 32.4508 101.634 32.4508C102.039 32.4508 102.432 32.5178 102.812 32.6519C103.193 32.7859 103.534 32.9964 103.836 33.2832C104.139 33.5701 104.377 33.9427 104.552 34.401C104.727 34.8562 104.814 35.4097 104.814 36.0613V36.557H99.1034V35.5094H103.444C103.444 35.1415 103.369 34.8157 103.219 34.532C103.069 34.2451 102.859 34.0191 102.588 33.8538C102.32 33.6886 102.005 33.6059 101.643 33.6059C101.25 33.6059 100.907 33.7026 100.614 33.8959C100.324 34.0861 100.1 34.3355 99.9406 34.6442C99.7847 34.9498 99.7067 35.2818 99.7067 35.6404V36.4588C99.7067 36.939 99.7909 37.3474 99.9593 37.6842C100.131 38.0209 100.369 38.2781 100.675 38.4559C100.98 38.6305 101.337 38.7178 101.746 38.7178C102.011 38.7178 102.253 38.6803 102.471 38.6055C102.689 38.5276 102.878 38.4122 103.037 38.2594C103.196 38.1067 103.317 37.918 103.401 37.6935L104.725 37.932C104.619 38.3218 104.429 38.6632 104.154 38.9563C103.883 39.2462 103.542 39.4723 103.13 39.6344C102.722 39.7934 102.256 39.8729 101.732 39.8729ZM109.491 31.3938V30.1497H116.904V31.3938H113.915V39.728H112.475V31.3938H109.491ZM117.683 39.728V32.5443H119.035V33.6854H119.11C119.241 33.2988 119.472 32.9948 119.802 32.7735C120.136 32.549 120.513 32.4367 120.934 32.4367C121.021 32.4367 121.124 32.4398 121.243 32.4461C121.364 32.4523 121.459 32.4601 121.528 32.4695V33.807C121.472 33.7915 121.372 33.7743 121.229 33.7556C121.085 33.7338 120.942 33.7229 120.798 33.7229C120.468 33.7229 120.173 33.793 119.914 33.9333C119.659 34.0705 119.456 34.2623 119.306 34.5086C119.157 34.7518 119.082 35.0293 119.082 35.3411V39.728H117.683ZM124.764 39.887C124.309 39.887 123.897 39.8028 123.53 39.6344C123.162 39.4629 122.87 39.2151 122.655 38.8908C122.443 38.5665 122.337 38.169 122.337 37.6982C122.337 37.2929 122.415 36.9593 122.571 36.6974C122.727 36.4354 122.937 36.2281 123.202 36.0753C123.467 35.9226 123.763 35.8072 124.091 35.7292C124.418 35.6513 124.752 35.5921 125.092 35.5515C125.522 35.5016 125.871 35.4611 126.139 35.4299C126.407 35.3956 126.602 35.3411 126.724 35.2662C126.845 35.1914 126.906 35.0698 126.906 34.9014V34.8687C126.906 34.4603 126.791 34.1438 126.56 33.9193C126.333 33.6948 125.993 33.5826 125.541 33.5826C125.07 33.5826 124.699 33.687 124.427 33.8959C124.159 34.1017 123.974 34.3309 123.871 34.5834L122.557 34.2841C122.713 33.8476 122.94 33.4953 123.24 33.2271C123.542 32.9559 123.89 32.7594 124.283 32.6378C124.675 32.5131 125.088 32.4508 125.522 32.4508C125.809 32.4508 126.113 32.4851 126.434 32.5536C126.758 32.6191 127.061 32.7407 127.341 32.9184C127.625 33.0962 127.857 33.3503 128.038 33.6808C128.219 34.0082 128.309 34.4337 128.309 34.9576V39.728H126.944V38.7458H126.888C126.797 38.9267 126.661 39.1044 126.481 39.279C126.3 39.4536 126.068 39.5986 125.784 39.7139C125.5 39.8293 125.16 39.887 124.764 39.887ZM125.068 38.7645C125.455 38.7645 125.785 38.6881 126.06 38.5354C126.337 38.3826 126.548 38.183 126.691 37.9367C126.838 37.6873 126.911 37.4207 126.911 37.137V36.211C126.861 36.2608 126.764 36.3076 126.621 36.3513C126.481 36.3918 126.32 36.4277 126.139 36.4588C125.958 36.4869 125.782 36.5134 125.611 36.5383C125.439 36.5602 125.296 36.5789 125.18 36.5945C124.909 36.6288 124.661 36.6864 124.437 36.7675C124.215 36.8486 124.038 36.9655 123.904 37.1183C123.773 37.2679 123.707 37.4675 123.707 37.7169C123.707 38.063 123.835 38.3249 124.091 38.5026C124.346 38.6772 124.672 38.7645 125.068 38.7645ZM133.198 39.8729C132.503 39.8729 131.904 39.7155 131.402 39.4006C130.903 39.0826 130.52 38.6445 130.251 38.0864C129.983 37.5283 129.849 36.8891 129.849 36.1689C129.849 35.4393 129.986 34.7954 130.261 34.2373C130.535 33.6761 130.922 33.238 131.421 32.9231C131.919 32.6082 132.507 32.4508 133.184 32.4508C133.729 32.4508 134.216 32.5521 134.643 32.7548C135.07 32.9543 135.415 33.2349 135.677 33.5966C135.942 33.9583 136.099 34.3807 136.149 34.864H134.788C134.713 34.5273 134.542 34.2373 134.273 33.9941C134.008 33.7509 133.653 33.6293 133.207 33.6293C132.817 33.6293 132.476 33.7322 132.183 33.938C131.893 34.1407 131.667 34.4306 131.505 34.8079C131.343 35.182 131.262 35.6248 131.262 36.1361C131.262 36.6599 131.341 37.112 131.5 37.4924C131.659 37.8728 131.884 38.1675 132.174 38.3764C132.467 38.5853 132.811 38.6897 133.207 38.6897C133.472 38.6897 133.712 38.6414 133.927 38.5447C134.146 38.4449 134.328 38.3031 134.475 38.1191C134.624 37.9352 134.729 37.7138 134.788 37.455H136.149C136.099 37.9196 135.948 38.3343 135.695 38.6991C135.443 39.0639 135.104 39.3507 134.68 39.5596C134.259 39.7685 133.765 39.8729 133.198 39.8729ZM138.93 37.2913L138.921 35.5843H139.164L142.027 32.5443H143.701L140.436 36.0052H140.217L138.93 37.2913ZM137.644 39.728V30.1497H139.043V39.728H137.644ZM142.181 39.728L139.609 36.3139L140.572 35.3364L143.897 39.728H142.181ZM144.975 39.728V32.5443H146.374V39.728H144.975ZM145.682 31.4359C145.438 31.4359 145.229 31.3548 145.055 31.1927C144.883 31.0274 144.798 30.831 144.798 30.6034C144.798 30.3727 144.883 30.1762 145.055 30.0141C145.229 29.8489 145.438 29.7662 145.682 29.7662C145.925 29.7662 146.132 29.8489 146.304 30.0141C146.478 30.1762 146.565 30.3727 146.565 30.6034C146.565 30.831 146.478 31.0274 146.304 31.1927C146.132 31.3548 145.925 31.4359 145.682 31.4359ZM149.653 35.4627V39.728H148.255V32.5443H149.597V33.7135H149.686C149.851 33.3331 150.11 33.0276 150.462 32.7968C150.818 32.5661 151.265 32.4508 151.805 32.4508C152.294 32.4508 152.723 32.5536 153.091 32.7594C153.459 32.9621 153.744 33.2645 153.947 33.6667C154.149 34.069 154.251 34.5663 154.251 35.1587V39.728H152.852V35.327C152.852 34.8063 152.717 34.3995 152.445 34.1064C152.174 33.8102 151.802 33.6621 151.328 33.6621C151.003 33.6621 150.715 33.7322 150.462 33.8725C150.213 34.0128 150.015 34.2186 149.869 34.4899C149.725 34.758 149.653 35.0823 149.653 35.4627ZM159.138 42.5715C158.567 42.5715 158.076 42.4967 157.665 42.347C157.256 42.1974 156.923 41.9994 156.664 41.7531C156.405 41.5067 156.212 41.237 156.084 40.944L157.286 40.4482C157.37 40.5854 157.482 40.7304 157.623 40.8832C157.766 41.039 157.959 41.1716 158.203 41.2807C158.449 41.3898 158.765 41.4444 159.152 41.4444C159.682 41.4444 160.12 41.315 160.466 41.0562C160.812 40.8005 160.985 40.3921 160.985 39.8309V38.4184H160.897C160.812 38.5712 160.691 38.7411 160.532 38.9282C160.376 39.1153 160.161 39.2774 159.886 39.4146C159.612 39.5518 159.255 39.6204 158.815 39.6204C158.248 39.6204 157.737 39.4879 157.281 39.2229C156.829 38.9547 156.471 38.5603 156.206 38.0396C155.944 37.5158 155.813 36.872 155.813 36.1081C155.813 35.3442 155.942 34.6894 156.201 34.1438C156.463 33.5981 156.821 33.1803 157.277 32.8904C157.732 32.5973 158.248 32.4508 158.825 32.4508C159.271 32.4508 159.631 32.5256 159.905 32.6752C160.179 32.8218 160.393 32.9933 160.546 33.1897C160.702 33.3861 160.822 33.5592 160.906 33.7088H161.009V32.5443H162.379V39.887C162.379 40.5043 162.236 41.011 161.949 41.407C161.662 41.8029 161.274 42.096 160.784 42.2862C160.298 42.4764 159.749 42.5715 159.138 42.5715ZM159.124 38.4605C159.526 38.4605 159.866 38.367 160.144 38.1799C160.424 37.9897 160.636 37.7185 160.78 37.3661C160.926 37.0107 160.999 36.5851 160.999 36.0894C160.999 35.6061 160.928 35.1805 160.784 34.8126C160.641 34.4447 160.43 34.1578 160.153 33.952C159.875 33.7431 159.532 33.6387 159.124 33.6387C158.703 33.6387 158.352 33.7478 158.072 33.9661C157.791 34.1812 157.579 34.4743 157.436 34.8453C157.295 35.2163 157.225 35.631 157.225 36.0894C157.225 36.5602 157.297 36.9733 157.44 37.3287C157.584 37.6842 157.796 37.9617 158.076 38.1612C158.36 38.3608 158.709 38.4605 159.124 38.4605Z" fill="#1C242D"/>
<rect x="21.0811" y="18.0619" width="156.165" height="33.332" rx="9.63879" stroke="#BFE4FF" stroke-width="2.12379" shape-rendering="crispEdges"/>
</g>
<defs>
<filter id="filter0_d_1_3918" x="0.756275" y="0.947541" width="196.815" height="73.9817" filterUnits="userSpaceOnUse" color-interpolation-filters="sRGB">
<feFlood flood-opacity="0" result="BackgroundImageFix"/>
<feColorMatrix in="SourceAlpha" type="matrix" values="0 0 0 0 0 0 0 0 0 0 0 0 0 0 0 0 0 0 127 0" result="hardAlpha"/>
<feOffset dy="3.21049"/>
<feGaussianBlur stdDeviation="9.63148"/>
<feComposite in2="hardAlpha" operator="out"/>
<feColorMatrix type="matrix" values="0 0 0 0 0 0 0 0 0 0.635294 0 0 0 0 0.996078 0 0 0 0.1 0"/>
<feBlend mode="normal" in2="BackgroundImageFix" result="effect1_dropShadow_1_3918"/>
<feBlend mode="normal" in="SourceGraphic" in2="effect1_dropShadow_1_3918" result="shape"/>
</filter>
</defs>
</svg>
