<svg width="172" height="76" viewBox="0 0 172 76" fill="none" xmlns="http://www.w3.org/2000/svg">
<g filter="url(#filter0_d_1_3912)">
<rect x="20" y="17" width="132.019" height="35.8713" rx="10.7007" fill="white" shape-rendering="crispEdges"/>
<g clip-path="url(#clip0_1_3912)">
<path d="M51.5499 41.7744C55.3275 41.7744 58.3897 38.7122 58.3897 34.9346C58.3897 31.1571 55.3275 28.0948 51.5499 28.0948C47.7724 28.0948 44.7101 31.1571 44.7101 34.9346C44.7101 38.7122 47.7724 41.7744 51.5499 41.7744Z" stroke="#EC7244" stroke-width="1.36796" stroke-linecap="round" stroke-linejoin="round"/>
<path d="M51.5489 35.6197C52.6821 35.6197 53.6008 34.701 53.6008 33.5677C53.6008 32.4345 52.6821 31.5158 51.5489 31.5158C50.4156 31.5158 49.4969 32.4345 49.4969 33.5677C49.4969 34.701 50.4156 35.6197 51.5489 35.6197Z" stroke="#EC7244" stroke-width="1.36796" stroke-linecap="round" stroke-linejoin="round"/>
<path d="M48.1296 40.8579V39.7212C48.1296 39.3584 48.2737 39.0104 48.5303 38.7539C48.7868 38.4973 49.1347 38.3532 49.4976 38.3532H53.6014C53.9642 38.3532 54.3122 38.4973 54.5687 38.7539C54.8253 39.0104 54.9694 39.3584 54.9694 39.7212V40.8579" stroke="#EC7244" stroke-width="1.36796" stroke-linecap="round" stroke-linejoin="round"/>
</g>
<path d="M73.4605 30.3574V39.9357H72.1323L67.2637 32.911H67.1748V39.9357H65.7296V30.3574H67.0672L71.9405 37.3915H72.0294V30.3574H73.4605ZM78.4823 40.0807C77.8088 40.0807 77.2211 39.9263 76.7191 39.6176C76.2171 39.309 75.8274 38.8771 75.5499 38.3221C75.2724 37.7672 75.1337 37.1186 75.1337 36.3766C75.1337 35.6314 75.2724 34.9797 75.5499 34.4216C75.8274 33.8635 76.2171 33.4301 76.7191 33.1215C77.2211 32.8128 77.8088 32.6585 78.4823 32.6585C79.1558 32.6585 79.7435 32.8128 80.2455 33.1215C80.7475 33.4301 81.1372 33.8635 81.4147 34.4216C81.6922 34.9797 81.8309 35.6314 81.8309 36.3766C81.8309 37.1186 81.6922 37.7672 81.4147 38.3221C81.1372 38.8771 80.7475 39.309 80.2455 39.6176C79.7435 39.9263 79.1558 40.0807 78.4823 40.0807ZM78.487 38.9068C78.9235 38.9068 79.2852 38.7914 79.572 38.5607C79.8589 38.3299 80.0709 38.0228 80.2081 37.6393C80.3484 37.2558 80.4185 36.8333 80.4185 36.3719C80.4185 35.9136 80.3484 35.4926 80.2081 35.1091C80.0709 34.7225 79.8589 34.4123 79.572 34.1784C79.2852 33.9446 78.9235 33.8277 78.487 33.8277C78.0474 33.8277 77.6826 33.9446 77.3926 34.1784C77.1057 34.4123 76.8922 34.7225 76.7519 35.1091C76.6147 35.4926 76.5461 35.9136 76.5461 36.3719C76.5461 36.8333 76.6147 37.2558 76.7519 37.6393C76.8922 38.0228 77.1057 38.3299 77.3926 38.5607C77.6826 38.7914 78.0474 38.9068 78.487 38.9068ZM83.3919 39.9357V32.752H84.7341V33.9212H84.823C84.9726 33.5252 85.2174 33.2166 85.5572 32.9952C85.8971 32.7707 86.304 32.6585 86.7779 32.6585C87.2581 32.6585 87.6603 32.7707 87.9845 32.9952C88.3119 33.2197 88.5536 33.5284 88.7095 33.9212H88.7843C88.9558 33.5377 89.2286 33.2322 89.6027 33.0045C89.9769 32.7738 90.4227 32.6585 90.9403 32.6585C91.592 32.6585 92.1236 32.8627 92.5351 33.2711C92.9498 33.6796 93.1572 34.2954 93.1572 35.1185V39.9357H91.7588V35.2494C91.7588 34.763 91.6263 34.4107 91.3612 34.1925C91.0962 33.9742 90.7797 33.8651 90.4118 33.8651C89.9566 33.8651 89.6027 34.0054 89.3502 34.286C89.0976 34.5635 88.9714 34.9205 88.9714 35.357V39.9357H87.5777V35.1606C87.5777 34.7708 87.4561 34.4575 87.2129 34.2205C86.9697 33.9836 86.6532 33.8651 86.2635 33.8651C85.9984 33.8651 85.7537 33.9352 85.5292 34.0755C85.3078 34.2127 85.1285 34.4045 84.9913 34.6508C84.8573 34.8971 84.7902 35.1824 84.7902 35.5067V39.9357H83.3919ZM95.0314 39.9357V32.752H96.4298V39.9357H95.0314ZM95.7376 31.6436C95.4944 31.6436 95.2855 31.5625 95.1109 31.4004C94.9394 31.2351 94.8537 31.0387 94.8537 30.8111C94.8537 30.5804 94.9394 30.3839 95.1109 30.2218C95.2855 30.0566 95.4944 29.9739 95.7376 29.9739C95.9808 29.9739 96.1882 30.0566 96.3596 30.2218C96.5342 30.3839 96.6216 30.5804 96.6216 30.8111C96.6216 31.0387 96.5342 31.2351 96.3596 31.4004C96.1882 31.5625 95.9808 31.6436 95.7376 31.6436ZM99.7095 35.6704V39.9357H98.3111V32.752H99.6533V33.9212H99.7422C99.9074 33.5408 100.166 33.2353 100.519 33.0045C100.874 32.7738 101.321 32.6585 101.861 32.6585C102.35 32.6585 102.779 32.7613 103.147 32.9671C103.515 33.1698 103.8 33.4722 104.003 33.8744C104.205 34.2767 104.307 34.774 104.307 35.3664V39.9357H102.908V35.5347C102.908 35.014 102.773 34.6072 102.502 34.3141C102.23 34.0179 101.858 33.8698 101.384 33.8698C101.06 33.8698 100.771 33.9399 100.519 34.0802C100.269 34.2205 100.071 34.4263 99.9246 34.6976C99.7812 34.9657 99.7095 35.29 99.7095 35.6704ZM109.278 40.0807C108.571 40.0807 107.961 39.9294 107.45 39.627C106.941 39.3214 106.549 38.8927 106.271 38.3409C105.997 37.7859 105.86 37.1358 105.86 36.3906C105.86 35.6548 105.997 35.0062 106.271 34.445C106.549 33.8838 106.935 33.4457 107.431 33.1308C107.93 32.8159 108.513 32.6585 109.18 32.6585C109.585 32.6585 109.978 32.7255 110.359 32.8596C110.739 32.9936 111.08 33.2041 111.383 33.4909C111.685 33.7778 111.924 34.1504 112.098 34.6087C112.273 35.0639 112.36 35.6174 112.36 36.269V36.7648H106.65V35.7171H110.99C110.99 35.3492 110.915 35.0234 110.766 34.7397C110.616 34.4528 110.405 34.2268 110.134 34.0615C109.866 33.8963 109.551 33.8136 109.189 33.8136C108.797 33.8136 108.454 33.9103 108.161 34.1036C107.871 34.2938 107.646 34.5432 107.487 34.8519C107.331 35.1575 107.253 35.4895 107.253 35.8481V36.6665C107.253 37.1467 107.337 37.5551 107.506 37.8919C107.677 38.2286 107.916 38.4858 108.221 38.6636C108.527 38.8382 108.884 38.9255 109.292 38.9255C109.557 38.9255 109.799 38.888 110.017 38.8132C110.236 38.7353 110.424 38.6199 110.583 38.4671C110.742 38.3144 110.864 38.1257 110.948 37.9012L112.272 38.1398C112.166 38.5295 111.975 38.8709 111.701 39.164C111.43 39.454 111.088 39.68 110.677 39.8421C110.268 40.0011 109.802 40.0807 109.278 40.0807ZM117.008 40.0807C116.3 40.0807 115.691 39.9294 115.179 39.627C114.671 39.3214 114.278 38.8927 114.001 38.3409C113.726 37.7859 113.589 37.1358 113.589 36.3906C113.589 35.6548 113.726 35.0062 114.001 34.445C114.278 33.8838 114.665 33.4457 115.161 33.1308C115.66 32.8159 116.243 32.6585 116.91 32.6585C117.315 32.6585 117.708 32.7255 118.088 32.8596C118.469 32.9936 118.81 33.2041 119.113 33.4909C119.415 33.7778 119.654 34.1504 119.828 34.6087C120.003 35.0639 120.09 35.6174 120.09 36.269V36.7648H114.38V35.7171H118.72C118.72 35.3492 118.645 35.0234 118.495 34.7397C118.346 34.4528 118.135 34.2268 117.864 34.0615C117.596 33.8963 117.281 33.8136 116.919 33.8136C116.526 33.8136 116.183 33.9103 115.89 34.1036C115.6 34.2938 115.376 34.5432 115.217 34.8519C115.061 35.1575 114.983 35.4895 114.983 35.8481V36.6665C114.983 37.1467 115.067 37.5551 115.235 37.8919C115.407 38.2286 115.646 38.4858 115.951 38.6636C116.257 38.8382 116.614 38.9255 117.022 38.9255C117.287 38.9255 117.529 38.888 117.747 38.8132C117.965 38.7353 118.154 38.6199 118.313 38.4671C118.472 38.3144 118.593 38.1257 118.678 37.9012L120.001 38.1398C119.895 38.5295 119.705 38.8709 119.431 39.164C119.159 39.454 118.818 39.68 118.406 39.8421C117.998 40.0011 117.532 40.0807 117.008 40.0807ZM127.025 34.5058L125.757 34.7303C125.704 34.5682 125.62 34.4138 125.505 34.2673C125.392 34.1208 125.24 34.0007 125.046 33.9072C124.853 33.8136 124.611 33.7669 124.321 33.7669C123.926 33.7669 123.595 33.8557 123.33 34.0335C123.065 34.2081 122.932 34.4341 122.932 34.7116C122.932 34.9517 123.021 35.145 123.199 35.2915C123.377 35.4381 123.664 35.5581 124.06 35.6517L125.201 35.9136C125.862 36.0663 126.354 36.3017 126.679 36.6198C127.003 36.9378 127.165 37.3509 127.165 37.8591C127.165 38.2894 127.04 38.6729 126.791 39.0096C126.545 39.3433 126.2 39.6052 125.757 39.7954C125.318 39.9856 124.808 40.0807 124.228 40.0807C123.424 40.0807 122.767 39.9092 122.259 39.5662C121.751 39.2201 121.439 38.729 121.324 38.093L122.675 37.8872C122.759 38.2395 122.932 38.5061 123.194 38.6869C123.456 38.8647 123.798 38.9535 124.219 38.9535C124.677 38.9535 125.043 38.8584 125.318 38.6682C125.592 38.4749 125.729 38.2395 125.729 37.962C125.729 37.7375 125.645 37.5489 125.477 37.3961C125.311 37.2434 125.057 37.128 124.714 37.05L123.498 36.7835C122.828 36.6307 122.332 36.3875 122.011 36.0539C121.693 35.7202 121.534 35.2978 121.534 34.7864C121.534 34.3624 121.653 33.9914 121.89 33.6733C122.126 33.3553 122.454 33.1074 122.872 32.9297C123.289 32.7489 123.768 32.6585 124.307 32.6585C125.084 32.6585 125.695 32.8268 126.141 33.1636C126.587 33.4972 126.881 33.9446 127.025 34.5058Z" fill="#1C242D"/>
<rect x="21.0619" y="18.0619" width="129.895" height="33.7475" rx="9.63879" stroke="#BFE4FF" stroke-width="2.12379" shape-rendering="crispEdges"/>
</g>
<defs>
<filter id="filter0_d_1_3912" x="0.737049" y="0.947541" width="170.545" height="74.3972" filterUnits="userSpaceOnUse" color-interpolation-filters="sRGB">
<feFlood flood-opacity="0" result="BackgroundImageFix"/>
<feColorMatrix in="SourceAlpha" type="matrix" values="0 0 0 0 0 0 0 0 0 0 0 0 0 0 0 0 0 0 127 0" result="hardAlpha"/>
<feOffset dy="3.21049"/>
<feGaussianBlur stdDeviation="9.63148"/>
<feComposite in2="hardAlpha" operator="out"/>
<feColorMatrix type="matrix" values="0 0 0 0 0 0 0 0 0 0.635294 0 0 0 0 0.996078 0 0 0 0.1 0"/>
<feBlend mode="normal" in2="BackgroundImageFix" result="effect1_dropShadow_1_3912"/>
<feBlend mode="normal" in="SourceGraphic" in2="effect1_dropShadow_1_3912" result="shape"/>
</filter>
<clipPath id="clip0_1_3912">
<rect width="16.4155" height="16.4155" fill="white" transform="translate(43.3419 26.7279)"/>
</clipPath>
</defs>
</svg>
