<svg width="162" height="78" viewBox="0 0 162 78" fill="none" xmlns="http://www.w3.org/2000/svg">
<g filter="url(#filter0_d_1_3923)">
<rect x="21.308" y="18" width="118.741" height="35" rx="11.773" fill="white" shape-rendering="crispEdges"/>
<g clip-path="url(#clip0_1_3923)">
<path d="M43.8916 40.3944C46.2959 40.3944 48.2449 38.4453 48.2449 36.0411C48.2449 33.6368 46.2959 31.6878 43.8916 31.6878C41.4874 31.6878 39.5383 33.6368 39.5383 36.0411C39.5383 38.4453 41.4874 40.3944 43.8916 40.3944Z" stroke="#B33B92" stroke-width="1.08832" stroke-linecap="round" stroke-linejoin="round"/>
<path d="M43.8933 33.8654V36.042L44.9817 37.1303" stroke="#B33B92" stroke-width="1.08832" stroke-linecap="round" stroke-linejoin="round"/>
<path d="M40.0846 30.5982L38.4521 32.2307" stroke="#B33B92" stroke-width="1.08832" stroke-linecap="round" stroke-linejoin="round"/>
<path d="M49.3344 32.2307L47.7019 30.5982" stroke="#B33B92" stroke-width="1.08832" stroke-linecap="round" stroke-linejoin="round"/>
<path d="M40.8334 39.1411L39.5383 40.3926" stroke="#B33B92" stroke-width="1.08832" stroke-linecap="round" stroke-linejoin="round"/>
<path d="M46.9611 39.1259L48.2453 40.3937" stroke="#B33B92" stroke-width="1.08832" stroke-linecap="round" stroke-linejoin="round"/>
</g>
<path d="M57.0475 40.5V30.9218H60.4617C61.2037 30.9218 61.8195 31.0496 62.309 31.3053C62.8016 31.5609 63.1696 31.9148 63.4128 32.3669C63.656 32.8159 63.7776 33.335 63.7776 33.9243C63.7776 34.5105 63.6544 35.0265 63.4081 35.4724C63.1649 35.9151 62.797 36.2596 62.3043 36.506C61.8148 36.7523 61.199 36.8754 60.457 36.8754H57.8707V35.6314H60.326C60.7937 35.6314 61.1741 35.5643 61.4672 35.4303C61.7634 35.2962 61.9801 35.1013 62.1173 34.8457C62.2545 34.59 62.323 34.2829 62.323 33.9243C62.323 33.5626 62.2529 33.2493 62.1126 32.9843C61.9754 32.7192 61.7587 32.5166 61.4625 32.3763C61.1694 32.2329 60.7844 32.1611 60.3073 32.1611H58.4927V40.5H57.0475ZM61.7759 36.1786L64.1423 40.5H62.4961L60.1764 36.1786H61.7759ZM68.4299 40.645C67.7221 40.645 67.1126 40.4938 66.6012 40.1913C66.093 39.8858 65.7001 39.4571 65.4226 38.9052C65.1483 38.3502 65.0111 37.7001 65.0111 36.9549C65.0111 36.2191 65.1483 35.5706 65.4226 35.0094C65.7001 34.4481 66.0868 34.0101 66.5825 33.6952C67.0814 33.3802 67.6644 33.2228 68.3317 33.2228C68.737 33.2228 69.1298 33.2898 69.5102 33.4239C69.8906 33.558 70.232 33.7684 70.5345 34.0553C70.8369 34.3421 71.0754 34.7147 71.25 35.173C71.4246 35.6283 71.5119 36.1817 71.5119 36.8333V37.3291H65.8015V36.2815H70.1416C70.1416 35.9135 70.0668 35.5877 69.9171 35.304C69.7675 35.0171 69.557 34.7911 69.2857 34.6258C69.0176 34.4606 68.7027 34.378 68.341 34.378C67.9482 34.378 67.6052 34.4746 67.3121 34.6679C67.0221 34.8581 66.7976 35.1076 66.6386 35.4162C66.4827 35.7218 66.4048 36.0539 66.4048 36.4124V37.2309C66.4048 37.711 66.489 38.1195 66.6573 38.4562C66.8288 38.7929 67.0673 39.0502 67.3729 39.2279C67.6785 39.4025 68.0355 39.4898 68.4439 39.4898C68.7089 39.4898 68.9506 39.4524 69.1688 39.3776C69.3871 39.2996 69.5757 39.1842 69.7347 39.0315C69.8937 38.8787 70.0153 38.6901 70.0995 38.4656L71.4231 38.7041C71.3171 39.0938 71.1269 39.4352 70.8525 39.7283C70.5812 40.0183 70.2398 40.2443 69.8283 40.4065C69.4198 40.5655 68.9537 40.645 68.4299 40.645ZM73.0635 40.5V33.3163H74.4057V34.4855H74.4946C74.6443 34.0896 74.889 33.7809 75.2289 33.5595C75.5687 33.335 75.9756 33.2228 76.4495 33.2228C76.9297 33.2228 77.3319 33.335 77.6562 33.5595C77.9835 33.784 78.2252 34.0927 78.3811 34.4855H78.4559C78.6274 34.102 78.9002 33.7965 79.2744 33.5689C79.6485 33.3382 80.0944 33.2228 80.6119 33.2228C81.2636 33.2228 81.7952 33.427 82.2068 33.8355C82.6214 34.2439 82.8288 34.8597 82.8288 35.6828V40.5H81.4304V35.8138C81.4304 35.3274 81.2979 34.9751 81.0329 34.7568C80.7678 34.5385 80.4514 34.4294 80.0835 34.4294C79.6282 34.4294 79.2744 34.5697 79.0218 34.8503C78.7693 35.1278 78.643 35.4848 78.643 35.9213V40.5H77.2493V35.7249C77.2493 35.3352 77.1277 35.0218 76.8845 34.7849C76.6413 34.5479 76.3248 34.4294 75.9351 34.4294C75.6701 34.4294 75.4253 34.4996 75.2008 34.6399C74.9794 34.7771 74.8002 34.9688 74.663 35.2151C74.5289 35.4615 74.4619 35.7467 74.4619 36.071V40.5H73.0635ZM84.703 40.5V33.3163H86.1014V40.5H84.703ZM85.4092 32.2079C85.1661 32.2079 84.9572 32.1268 84.7825 31.9647C84.6111 31.7995 84.5253 31.603 84.5253 31.3754C84.5253 31.1447 84.6111 30.9483 84.7825 30.7861C84.9572 30.6209 85.1661 30.5383 85.4092 30.5383C85.6524 30.5383 85.8598 30.6209 86.0313 30.7861C86.2059 30.9483 86.2932 31.1447 86.2932 31.3754C86.2932 31.603 86.2059 31.7995 86.0313 31.9647C85.8598 32.1268 85.6524 32.2079 85.4092 32.2079ZM89.3811 36.2347V40.5H87.9827V33.3163H89.325V34.4855H89.4138C89.5791 34.1052 89.8379 33.7996 90.1902 33.5689C90.5456 33.3382 90.993 33.2228 91.5324 33.2228C92.022 33.2228 92.4507 33.3257 92.8186 33.5315C93.1865 33.7341 93.4718 34.0366 93.6744 34.4388C93.8771 34.841 93.9784 35.3383 93.9784 35.9307V40.5H92.5801V36.0991C92.5801 35.5784 92.4444 35.1715 92.1732 34.8784C91.9019 34.5822 91.5293 34.4341 91.0554 34.4341C90.7311 34.4341 90.4427 34.5043 90.1902 34.6446C89.9407 34.7849 89.7428 34.9906 89.5962 35.2619C89.4528 35.53 89.3811 35.8543 89.3811 36.2347ZM98.5431 40.6403C97.9631 40.6403 97.4456 40.4922 96.9904 40.196C96.5383 39.8967 96.1828 39.4711 95.924 38.9192C95.6684 38.3642 95.5405 37.6986 95.5405 36.9222C95.5405 36.1458 95.6699 35.4817 95.9287 34.9298C96.1906 34.378 96.5492 33.9555 97.0044 33.6624C97.4596 33.3693 97.9756 33.2228 98.5524 33.2228C98.9983 33.2228 99.3568 33.2976 99.6281 33.4473C99.9025 33.5938 100.115 33.7653 100.264 33.9617C100.417 34.1582 100.535 34.3312 100.62 34.4809H100.704V30.9218H102.102V40.5H100.737V39.3822H100.62C100.535 39.535 100.414 39.7096 100.255 39.906C100.099 40.1025 99.8838 40.274 99.6094 40.4205C99.335 40.567 98.9796 40.6403 98.5431 40.6403ZM98.8517 39.4477C99.254 39.4477 99.5938 39.3417 99.8713 39.1297C100.152 38.9145 100.364 38.6168 100.507 38.2364C100.654 37.856 100.727 37.4133 100.727 36.9082C100.727 36.4093 100.655 35.9728 100.512 35.5986C100.369 35.2245 100.158 34.933 99.8807 34.7241C99.6032 34.5152 99.2602 34.4107 98.8517 34.4107C98.4308 34.4107 98.0801 34.5198 97.7995 34.7381C97.5188 34.9563 97.3068 35.2541 97.1634 35.6314C97.0231 36.0086 96.9529 36.4342 96.9529 36.9082C96.9529 37.3883 97.0247 37.8202 97.1681 38.2037C97.3115 38.5872 97.5235 38.8912 97.8041 39.1156C98.0879 39.337 98.4371 39.4477 98.8517 39.4477ZM107.194 40.645C106.486 40.645 105.877 40.4938 105.365 40.1913C104.857 39.8858 104.464 39.4571 104.187 38.9052C103.913 38.3502 103.775 37.7001 103.775 36.9549C103.775 36.2191 103.913 35.5706 104.187 35.0094C104.464 34.4481 104.851 34.0101 105.347 33.6952C105.846 33.3802 106.429 33.2228 107.096 33.2228C107.501 33.2228 107.894 33.2898 108.274 33.4239C108.655 33.558 108.996 33.7684 109.299 34.0553C109.601 34.3421 109.84 34.7147 110.014 35.173C110.189 35.6283 110.276 36.1817 110.276 36.8333V37.3291H104.566V36.2815H108.906C108.906 35.9135 108.831 35.5877 108.681 35.304C108.532 35.0171 108.321 34.7911 108.05 34.6258C107.782 34.4606 107.467 34.378 107.105 34.378C106.712 34.378 106.369 34.4746 106.076 34.6679C105.786 34.8581 105.562 35.1076 105.403 35.4162C105.247 35.7218 105.169 36.0539 105.169 36.4124V37.2309C105.169 37.711 105.253 38.1195 105.422 38.4562C105.593 38.7929 105.832 39.0502 106.137 39.2279C106.443 39.4025 106.8 39.4898 107.208 39.4898C107.473 39.4898 107.715 39.4524 107.933 39.3776C108.151 39.2996 108.34 39.1842 108.499 39.0315C108.658 38.8787 108.78 38.6901 108.864 38.4656L110.187 38.7041C110.081 39.0938 109.891 39.4352 109.617 39.7283C109.345 40.0183 109.004 40.2443 108.592 40.4065C108.184 40.5655 107.718 40.645 107.194 40.645ZM111.828 40.5V33.3163H113.179V34.4575H113.254C113.385 34.0709 113.616 33.7669 113.946 33.5455C114.28 33.321 114.657 33.2088 115.078 33.2088C115.165 33.2088 115.268 33.2119 115.387 33.2181C115.508 33.2243 115.604 33.2321 115.672 33.2415V34.5791C115.616 34.5635 115.516 34.5463 115.373 34.5276C115.229 34.5058 115.086 34.4949 114.943 34.4949C114.612 34.4949 114.317 34.5651 114.059 34.7054C113.803 34.8425 113.6 35.0343 113.451 35.2806C113.301 35.5238 113.226 35.8013 113.226 36.1131V40.5H111.828ZM122.265 35.0702L120.998 35.2946C120.945 35.1325 120.861 34.9782 120.745 34.8316C120.633 34.6851 120.48 34.5651 120.287 34.4715C120.094 34.378 119.852 34.3312 119.562 34.3312C119.166 34.3312 118.836 34.4201 118.571 34.5978C118.306 34.7724 118.173 34.9984 118.173 35.2759C118.173 35.516 118.262 35.7093 118.44 35.8559C118.617 36.0024 118.904 36.1224 119.3 36.216L120.441 36.4779C121.102 36.6307 121.595 36.8661 121.919 37.1841C122.244 37.5021 122.406 37.9152 122.406 38.4235C122.406 38.8537 122.281 39.2372 122.031 39.574C121.785 39.9076 121.441 40.1695 120.998 40.3597C120.558 40.5499 120.048 40.645 119.469 40.645C118.664 40.645 118.008 40.4735 117.5 40.1305C116.991 39.7844 116.68 39.2934 116.564 38.6573L117.916 38.4515C118 38.8039 118.173 39.0704 118.435 39.2513C118.697 39.429 119.038 39.5179 119.459 39.5179C119.918 39.5179 120.284 39.4228 120.558 39.2326C120.833 39.0393 120.97 38.8039 120.97 38.5264C120.97 38.3019 120.886 38.1132 120.717 37.9605C120.552 37.8077 120.298 37.6923 119.955 37.6144L118.739 37.3478C118.069 37.195 117.573 36.9518 117.252 36.6182C116.934 36.2846 116.775 35.8621 116.775 35.3508C116.775 34.9267 116.893 34.5557 117.13 34.2377C117.367 33.9196 117.694 33.6718 118.112 33.494C118.53 33.3132 119.009 33.2228 119.548 33.2228C120.324 33.2228 120.936 33.3912 121.381 33.7279C121.827 34.0615 122.122 34.5089 122.265 35.0702Z" fill="#1C242D"/>
<rect x="22.4763" y="19.1683" width="116.405" height="32.6634" rx="10.6047" stroke="#BFE4FF" stroke-width="2.33661" shape-rendering="crispEdges"/>
</g>
<defs>
<filter id="filter0_d_1_3923" x="0.114752" y="0.338974" width="161.128" height="77.3865" filterUnits="userSpaceOnUse" color-interpolation-filters="sRGB">
<feFlood flood-opacity="0" result="BackgroundImageFix"/>
<feColorMatrix in="SourceAlpha" type="matrix" values="0 0 0 0 0 0 0 0 0 0 0 0 0 0 0 0 0 0 127 0" result="hardAlpha"/>
<feOffset dy="3.53221"/>
<feGaussianBlur stdDeviation="10.5966"/>
<feComposite in2="hardAlpha" operator="out"/>
<feColorMatrix type="matrix" values="0 0 0 0 0 0 0 0 0 0.635294 0 0 0 0 0.996078 0 0 0 0.1 0"/>
<feBlend mode="normal" in2="BackgroundImageFix" result="effect1_dropShadow_1_3923"/>
<feBlend mode="normal" in="SourceGraphic" in2="effect1_dropShadow_1_3923" result="shape"/>
</filter>
<clipPath id="clip0_1_3923">
<rect width="13.0598" height="13.0598" fill="white" transform="translate(37.362 28.9701)"/>
</clipPath>
</defs>
</svg>
