<svg width="172" height="76" viewBox="0 0 172 76" fill="none" xmlns="http://www.w3.org/2000/svg">
<g filter="url(#filter0_d_1_3932)">
<rect x="20.0493" y="17" width="132.019" height="35.8713" rx="10.7007" fill="white" shape-rendering="crispEdges"/>
<g clip-path="url(#clip0_1_3932)">
<path d="M51.5992 41.7744C55.3767 41.7744 58.439 38.7122 58.439 34.9346C58.439 31.1571 55.3767 28.0948 51.5992 28.0948C47.8217 28.0948 44.7594 31.1571 44.7594 34.9346C44.7594 38.7122 47.8217 41.7744 51.5992 41.7744Z" stroke="#EC7244" stroke-width="1.36796" stroke-linecap="round" stroke-linejoin="round"/>
<path d="M51.5981 35.6197C52.7314 35.6197 53.6501 34.701 53.6501 33.5677C53.6501 32.4345 52.7314 31.5158 51.5981 31.5158C50.4649 31.5158 49.5462 32.4345 49.5462 33.5677C49.5462 34.701 50.4649 35.6197 51.5981 35.6197Z" stroke="#EC7244" stroke-width="1.36796" stroke-linecap="round" stroke-linejoin="round"/>
<path d="M48.1788 40.8579V39.7212C48.1788 39.3584 48.323 39.0104 48.5795 38.7539C48.836 38.4973 49.184 38.3532 49.5468 38.3532H53.6507C54.0135 38.3532 54.3614 38.4973 54.618 38.7539C54.8745 39.0104 55.0186 39.3584 55.0186 39.7212V40.8579" stroke="#EC7244" stroke-width="1.36796" stroke-linecap="round" stroke-linejoin="round"/>
</g>
<path d="M73.5098 30.3574V39.9357H72.1816L67.3129 32.911H67.2241V39.9357H65.7789V30.3574H67.1165L71.9898 37.3915H72.0787V30.3574H73.5098ZM78.5316 40.0807C77.8581 40.0807 77.2704 39.9263 76.7684 39.6176C76.2664 39.309 75.8767 38.8771 75.5992 38.3221C75.3217 37.7672 75.1829 37.1186 75.1829 36.3766C75.1829 35.6314 75.3217 34.9797 75.5992 34.4216C75.8767 33.8635 76.2664 33.4301 76.7684 33.1215C77.2704 32.8128 77.8581 32.6585 78.5316 32.6585C79.205 32.6585 79.7928 32.8128 80.2948 33.1215C80.7967 33.4301 81.1865 33.8635 81.464 34.4216C81.7415 34.9797 81.8802 35.6314 81.8802 36.3766C81.8802 37.1186 81.7415 37.7672 81.464 38.3221C81.1865 38.8771 80.7967 39.309 80.2948 39.6176C79.7928 39.9263 79.205 40.0807 78.5316 40.0807ZM78.5363 38.9068C78.9728 38.9068 79.3344 38.7914 79.6213 38.5607C79.9081 38.3299 80.1202 38.0228 80.2573 37.6393C80.3976 37.2558 80.4678 36.8333 80.4678 36.3719C80.4678 35.9136 80.3976 35.4926 80.2573 35.1091C80.1202 34.7225 79.9081 34.4123 79.6213 34.1784C79.3344 33.9446 78.9728 33.8277 78.5363 33.8277C78.0966 33.8277 77.7318 33.9446 77.4419 34.1784C77.155 34.4123 76.9414 34.7225 76.8011 35.1091C76.6639 35.4926 76.5954 35.9136 76.5954 36.3719C76.5954 36.8333 76.6639 37.2558 76.8011 37.6393C76.9414 38.0228 77.155 38.3299 77.4419 38.5607C77.7318 38.7914 78.0966 38.9068 78.5363 38.9068ZM83.4411 39.9357V32.752H84.7834V33.9212H84.8722C85.0219 33.5252 85.2667 33.2166 85.6065 32.9952C85.9464 32.7707 86.3533 32.6585 86.8272 32.6585C87.3073 32.6585 87.7095 32.7707 88.0338 32.9952C88.3612 33.2197 88.6028 33.5284 88.7587 33.9212H88.8336C89.005 33.5377 89.2779 33.2322 89.652 33.0045C90.0262 32.7738 90.472 32.6585 90.9896 32.6585C91.6412 32.6585 92.1728 32.8627 92.5844 33.2711C92.9991 33.6796 93.2064 34.2954 93.2064 35.1185V39.9357H91.808V35.2494C91.808 34.763 91.6755 34.4107 91.4105 34.1925C91.1455 33.9742 90.829 33.8651 90.4611 33.8651C90.0059 33.8651 89.652 34.0054 89.3995 34.286C89.1469 34.5635 89.0206 34.9205 89.0206 35.357V39.9357H87.6269V35.1606C87.6269 34.7708 87.5053 34.4575 87.2621 34.2205C87.0189 33.9836 86.7025 33.8651 86.3127 33.8651C86.0477 33.8651 85.8029 33.9352 85.5785 34.0755C85.3571 34.2127 85.1778 34.4045 85.0406 34.6508C84.9065 34.8971 84.8395 35.1824 84.8395 35.5067V39.9357H83.4411ZM95.0807 39.9357V32.752H96.4791V39.9357H95.0807ZM95.7869 31.6436C95.5437 31.6436 95.3348 31.5625 95.1602 31.4004C94.9887 31.2351 94.903 31.0387 94.903 30.8111C94.903 30.5804 94.9887 30.3839 95.1602 30.2218C95.3348 30.0566 95.5437 29.9739 95.7869 29.9739C96.0301 29.9739 96.2374 30.0566 96.4089 30.2218C96.5835 30.3839 96.6708 30.5804 96.6708 30.8111C96.6708 31.0387 96.5835 31.2351 96.4089 31.4004C96.2374 31.5625 96.0301 31.6436 95.7869 31.6436ZM99.7587 35.6704V39.9357H98.3603V32.752H99.7026V33.9212H99.7915C99.9567 33.5408 100.216 33.2353 100.568 33.0045C100.923 32.7738 101.371 32.6585 101.91 32.6585C102.4 32.6585 102.828 32.7613 103.196 32.9671C103.564 33.1698 103.849 33.4722 104.052 33.8744C104.255 34.2767 104.356 34.774 104.356 35.3664V39.9357H102.958V35.5347C102.958 35.014 102.822 34.6072 102.551 34.3141C102.28 34.0179 101.907 33.8698 101.433 33.8698C101.109 33.8698 100.82 33.9399 100.568 34.0802C100.318 34.2205 100.12 34.4263 99.9739 34.6976C99.8304 34.9657 99.7587 35.29 99.7587 35.6704ZM109.328 40.0807C108.62 40.0807 108.01 39.9294 107.499 39.627C106.991 39.3214 106.598 38.8927 106.32 38.3409C106.046 37.7859 105.909 37.1358 105.909 36.3906C105.909 35.6548 106.046 35.0062 106.32 34.445C106.598 33.8838 106.984 33.4457 107.48 33.1308C107.979 32.8159 108.562 32.6585 109.229 32.6585C109.635 32.6585 110.028 32.7255 110.408 32.8596C110.788 32.9936 111.13 33.2041 111.432 33.4909C111.735 33.7778 111.973 34.1504 112.148 34.6087C112.322 35.0639 112.41 35.6174 112.41 36.269V36.7648H106.699V35.7171H111.039C111.039 35.3492 110.965 35.0234 110.815 34.7397C110.665 34.4528 110.455 34.2268 110.183 34.0615C109.915 33.8963 109.6 33.8136 109.239 33.8136C108.846 33.8136 108.503 33.9103 108.21 34.1036C107.92 34.2938 107.695 34.5432 107.536 34.8519C107.38 35.1575 107.303 35.4895 107.303 35.8481V36.6665C107.303 37.1467 107.387 37.5551 107.555 37.8919C107.727 38.2286 107.965 38.4858 108.271 38.6636C108.576 38.8382 108.933 38.9255 109.342 38.9255C109.607 38.9255 109.848 38.888 110.067 38.8132C110.285 38.7353 110.473 38.6199 110.632 38.4671C110.791 38.3144 110.913 38.1257 110.997 37.9012L112.321 38.1398C112.215 38.5295 112.025 38.8709 111.75 39.164C111.479 39.454 111.138 39.68 110.726 39.8421C110.318 40.0011 109.851 40.0807 109.328 40.0807ZM117.057 40.0807C116.35 40.0807 115.74 39.9294 115.229 39.627C114.72 39.3214 114.328 38.8927 114.05 38.3409C113.776 37.7859 113.639 37.1358 113.639 36.3906C113.639 35.6548 113.776 35.0062 114.05 34.445C114.328 33.8838 114.714 33.4457 115.21 33.1308C115.709 32.8159 116.292 32.6585 116.959 32.6585C117.364 32.6585 117.757 32.7255 118.138 32.8596C118.518 32.9936 118.859 33.2041 119.162 33.4909C119.464 33.7778 119.703 34.1504 119.877 34.6087C120.052 35.0639 120.139 35.6174 120.139 36.269V36.7648H114.429V35.7171H118.769C118.769 35.3492 118.694 35.0234 118.545 34.7397C118.395 34.4528 118.184 34.2268 117.913 34.0615C117.645 33.8963 117.33 33.8136 116.968 33.8136C116.576 33.8136 116.233 33.9103 115.94 34.1036C115.65 34.2938 115.425 34.5432 115.266 34.8519C115.11 35.1575 115.032 35.4895 115.032 35.8481V36.6665C115.032 37.1467 115.116 37.5551 115.285 37.8919C115.456 38.2286 115.695 38.4858 116 38.6636C116.306 38.8382 116.663 38.9255 117.071 38.9255C117.336 38.9255 117.578 38.888 117.796 38.8132C118.015 38.7353 118.203 38.6199 118.362 38.4671C118.521 38.3144 118.643 38.1257 118.727 37.9012L120.051 38.1398C119.944 38.5295 119.754 38.8709 119.48 39.164C119.209 39.454 118.867 39.68 118.456 39.8421C118.047 40.0011 117.581 40.0807 117.057 40.0807ZM127.074 34.5058L125.807 34.7303C125.754 34.5682 125.669 34.4138 125.554 34.2673C125.442 34.1208 125.289 34.0007 125.096 33.9072C124.902 33.8136 124.661 33.7669 124.371 33.7669C123.975 33.7669 123.644 33.8557 123.379 34.0335C123.114 34.2081 122.982 34.4341 122.982 34.7116C122.982 34.9517 123.071 35.145 123.248 35.2915C123.426 35.4381 123.713 35.5581 124.109 35.6517L125.25 35.9136C125.911 36.0663 126.404 36.3017 126.728 36.6198C127.052 36.9378 127.214 37.3509 127.214 37.8591C127.214 38.2894 127.09 38.6729 126.84 39.0096C126.594 39.3433 126.249 39.6052 125.807 39.7954C125.367 39.9856 124.857 40.0807 124.277 40.0807C123.473 40.0807 122.816 39.9092 122.308 39.5662C121.8 39.2201 121.488 38.729 121.373 38.093L122.725 37.8872C122.809 38.2395 122.982 38.5061 123.244 38.6869C123.506 38.8647 123.847 38.9535 124.268 38.9535C124.726 38.9535 125.093 38.8584 125.367 38.6682C125.641 38.4749 125.778 38.2395 125.778 37.962C125.778 37.7375 125.694 37.5489 125.526 37.3961C125.361 37.2434 125.107 37.128 124.764 37.05L123.548 36.7835C122.877 36.6307 122.382 36.3875 122.06 36.0539C121.742 35.7202 121.583 35.2978 121.583 34.7864C121.583 34.3624 121.702 33.9914 121.939 33.6733C122.176 33.3553 122.503 33.1074 122.921 32.9297C123.339 32.7489 123.817 32.6585 124.357 32.6585C125.133 32.6585 125.744 32.8268 126.19 33.1636C126.636 33.4972 126.931 33.9446 127.074 34.5058Z" fill="#1C242D"/>
<rect x="21.1111" y="18.0619" width="129.895" height="33.7475" rx="9.63879" stroke="#BFE4FF" stroke-width="2.12379" shape-rendering="crispEdges"/>
</g>
<defs>
<filter id="filter0_d_1_3932" x="0.786304" y="0.947541" width="170.545" height="74.3972" filterUnits="userSpaceOnUse" color-interpolation-filters="sRGB">
<feFlood flood-opacity="0" result="BackgroundImageFix"/>
<feColorMatrix in="SourceAlpha" type="matrix" values="0 0 0 0 0 0 0 0 0 0 0 0 0 0 0 0 0 0 127 0" result="hardAlpha"/>
<feOffset dy="3.21049"/>
<feGaussianBlur stdDeviation="9.63148"/>
<feComposite in2="hardAlpha" operator="out"/>
<feColorMatrix type="matrix" values="0 0 0 0 0 0 0 0 0 0.635294 0 0 0 0 0.996078 0 0 0 0.1 0"/>
<feBlend mode="normal" in2="BackgroundImageFix" result="effect1_dropShadow_1_3932"/>
<feBlend mode="normal" in="SourceGraphic" in2="effect1_dropShadow_1_3932" result="shape"/>
</filter>
<clipPath id="clip0_1_3932">
<rect width="16.4155" height="16.4155" fill="white" transform="translate(43.3911 26.7279)"/>
</clipPath>
</defs>
</svg>
