<svg width="198" height="75" viewBox="0 0 198 75" fill="none" xmlns="http://www.w3.org/2000/svg">
<g filter="url(#filter0_d_1_3938)">
<rect x="20.0685" y="17" width="158.289" height="35.4558" rx="10.7007" fill="white" shape-rendering="crispEdges"/>
<path d="M36.4031 29.5013V39.9563H46.8581" stroke="#8A20BC" stroke-width="1.16166" stroke-linecap="round" stroke-linejoin="round"/>
<path d="M38.7258 34.7287V37.6328H45.6957V32.4053L42.7916 35.3095L40.4683 32.9862L38.7258 34.7287Z" stroke="#8A20BC" stroke-width="1.16166" stroke-linecap="round" stroke-linejoin="round"/>
<path d="M52.8177 39.728V30.1497H58.8228V31.3938H54.2629V34.3121H58.5095V35.5515H54.2629V38.4839H58.879V39.728H52.8177ZM61.7447 32.5443L63.3302 35.3411L64.9297 32.5443H66.459L64.2188 36.1361L66.4777 39.728H64.9484L63.3302 37.0434L61.7167 39.728H60.1826L62.4182 36.1361L60.2107 32.5443H61.7447ZM67.8948 42.4218V32.5443H69.2604V33.7088H69.3774C69.4584 33.5592 69.5754 33.3861 69.7281 33.1897C69.8809 32.9933 70.0929 32.8218 70.3642 32.6752C70.6354 32.5256 70.994 32.4508 71.4399 32.4508C72.0198 32.4508 72.5374 32.5973 72.9926 32.8904C73.4478 33.1835 73.8048 33.6059 74.0636 34.1578C74.3255 34.7097 74.4565 35.3738 74.4565 36.1502C74.4565 36.9265 74.3271 37.5922 74.0683 38.1472C73.8095 38.6991 73.454 39.1246 73.0019 39.424C72.5498 39.7202 72.0338 39.8683 71.4539 39.8683C71.0174 39.8683 70.6604 39.795 70.3829 39.6485C70.1085 39.5019 69.8934 39.3304 69.7375 39.134C69.5816 38.9376 69.4616 38.763 69.3774 38.6102H69.2932V42.4218H67.8948ZM69.2651 36.1361C69.2651 36.6412 69.3384 37.084 69.4849 37.4644C69.6315 37.8447 69.8435 38.1425 70.121 38.3576C70.3985 38.5697 70.7383 38.6757 71.1405 38.6757C71.5584 38.6757 71.9076 38.565 72.1882 38.3436C72.4688 38.1191 72.6808 37.8151 72.8242 37.4316C72.9708 37.0481 73.044 36.6163 73.044 36.1361C73.044 35.6622 72.9723 35.2366 72.8289 34.8593C72.6886 34.4821 72.4766 34.1843 72.1928 33.9661C71.9122 33.7478 71.5615 33.6387 71.1405 33.6387C70.7352 33.6387 70.3923 33.7431 70.1116 33.952C69.8341 34.1609 69.6237 34.4525 69.4803 34.8266C69.3368 35.2008 69.2651 35.6373 69.2651 36.1361ZM79.1193 39.8729C78.4115 39.8729 77.802 39.7217 77.2906 39.4193C76.7824 39.1137 76.3896 38.685 76.1121 38.1332C75.8377 37.5782 75.7005 36.9281 75.7005 36.1829C75.7005 35.4471 75.8377 34.7985 76.1121 34.2373C76.3896 33.6761 76.7762 33.238 77.2719 32.9231C77.7708 32.6082 78.3538 32.4508 79.0211 32.4508C79.4264 32.4508 79.8193 32.5178 80.1996 32.6519C80.58 32.7859 80.9214 32.9964 81.2239 33.2832C81.5263 33.5701 81.7648 33.9427 81.9394 34.401C82.114 34.8562 82.2014 35.4097 82.2014 36.0613V36.557H76.4909V35.5094H80.831C80.831 35.1415 80.7562 34.8157 80.6065 34.532C80.4569 34.2451 80.2464 34.0191 79.9752 33.8538C79.707 33.6886 79.3921 33.6059 79.0304 33.6059C78.6376 33.6059 78.2946 33.7026 78.0015 33.8959C77.7116 34.0861 77.4871 34.3355 77.3281 34.6442C77.1722 34.9498 77.0942 35.2818 77.0942 35.6404V36.4588C77.0942 36.939 77.1784 37.3474 77.3468 37.6842C77.5182 38.0209 77.7568 38.2781 78.0623 38.4559C78.3679 38.6305 78.7249 38.7178 79.1333 38.7178C79.3983 38.7178 79.64 38.6803 79.8582 38.6055C80.0765 38.5276 80.2651 38.4122 80.4241 38.2594C80.5832 38.1067 80.7048 37.918 80.7889 37.6935L82.1125 37.932C82.0065 38.3218 81.8163 38.6632 81.5419 38.9563C81.2707 39.2462 80.9292 39.4723 80.5177 39.6344C80.1092 39.7934 79.6431 39.8729 79.1193 39.8729ZM85.1513 35.4627V39.728H83.7529V32.5443H85.0952V33.7135H85.184C85.3493 33.3331 85.6081 33.0276 85.9604 32.7968C86.3158 32.5661 86.7632 32.4508 87.3026 32.4508C87.7922 32.4508 88.2209 32.5536 88.5888 32.7594C88.9567 32.9621 89.242 33.2645 89.4447 33.6667C89.6473 34.069 89.7487 34.5663 89.7487 35.1587V39.728H88.3503V35.327C88.3503 34.8063 88.2146 34.3995 87.9434 34.1064C87.6721 33.8102 87.2995 33.6621 86.8256 33.6621C86.5013 33.6621 86.2129 33.7322 85.9604 33.8725C85.711 34.0128 85.513 34.2186 85.3664 34.4899C85.223 34.758 85.1513 35.0823 85.1513 35.4627ZM97.0072 34.2981L95.7397 34.5226C95.6867 34.3605 95.6025 34.2061 95.4872 34.0596C95.3749 33.9131 95.2221 33.793 95.0288 33.6995C94.8355 33.6059 94.5939 33.5592 94.3039 33.5592C93.9079 33.5592 93.5774 33.648 93.3124 33.8258C93.0474 34.0004 92.9149 34.2264 92.9149 34.5039C92.9149 34.744 93.0038 34.9373 93.1815 35.0838C93.3592 35.2304 93.646 35.3504 94.042 35.444L95.1832 35.7059C95.8442 35.8586 96.3368 36.094 96.6611 36.4121C96.9853 36.7301 97.1475 37.1432 97.1475 37.6514C97.1475 38.0817 97.0227 38.4652 96.7733 38.8019C96.527 39.1356 96.1825 39.3975 95.7397 39.5877C95.3001 39.7779 94.7903 39.8729 94.2104 39.8729C93.406 39.8729 92.7496 39.7015 92.2414 39.3585C91.7332 39.0124 91.4214 38.5213 91.306 37.8853L92.6577 37.6795C92.7418 38.0318 92.9149 38.2984 93.1768 38.4792C93.4387 38.657 93.7801 38.7458 94.201 38.7458C94.6594 38.7458 95.0257 38.6507 95.3001 38.4605C95.5745 38.2672 95.7117 38.0318 95.7117 37.7543C95.7117 37.5298 95.6275 37.3412 95.4591 37.1884C95.2939 37.0356 95.0398 36.9203 94.6968 36.8423L93.4808 36.5758C92.8104 36.423 92.3147 36.1798 91.9935 35.8462C91.6755 35.5125 91.5165 35.0901 91.5165 34.5787C91.5165 34.1547 91.635 33.7837 91.872 33.4656C92.1089 33.1476 92.4363 32.8997 92.8541 32.722C93.2719 32.5412 93.7505 32.4508 94.2899 32.4508C95.0663 32.4508 95.6774 32.6191 96.1232 32.9559C96.5691 33.2895 96.8637 33.7369 97.0072 34.2981ZM101.781 39.8729C101.073 39.8729 100.464 39.7217 99.9524 39.4193C99.4442 39.1137 99.0513 38.685 98.7738 38.1332C98.4995 37.5782 98.3623 36.9281 98.3623 36.1829C98.3623 35.4471 98.4995 34.7985 98.7738 34.2373C99.0513 33.6761 99.438 33.238 99.9337 32.9231C100.433 32.6082 101.016 32.4508 101.683 32.4508C102.088 32.4508 102.481 32.5178 102.861 32.6519C103.242 32.7859 103.583 32.9964 103.886 33.2832C104.188 33.5701 104.427 33.9427 104.601 34.401C104.776 34.8562 104.863 35.4097 104.863 36.0613V36.557H99.1527V35.5094H103.493C103.493 35.1415 103.418 34.8157 103.268 34.532C103.119 34.2451 102.908 34.0191 102.637 33.8538C102.369 33.6886 102.054 33.6059 101.692 33.6059C101.299 33.6059 100.956 33.7026 100.663 33.8959C100.373 34.0861 100.149 34.3355 99.9898 34.6442C99.8339 34.9498 99.756 35.2818 99.756 35.6404V36.4588C99.756 36.939 99.8402 37.3474 100.009 37.6842C100.18 38.0209 100.419 38.2781 100.724 38.4559C101.03 38.6305 101.387 38.7178 101.795 38.7178C102.06 38.7178 102.302 38.6803 102.52 38.6055C102.738 38.5276 102.927 38.4122 103.086 38.2594C103.245 38.1067 103.367 37.918 103.451 37.6935L104.774 37.932C104.668 38.3218 104.478 38.6632 104.204 38.9563C103.932 39.2462 103.591 39.4723 103.179 39.6344C102.771 39.7934 102.305 39.8729 101.781 39.8729ZM109.54 31.3938V30.1497H116.953V31.3938H113.964V39.728H112.524V31.3938H109.54ZM117.733 39.728V32.5443H119.084V33.6854H119.159C119.29 33.2988 119.521 32.9948 119.851 32.7735C120.185 32.549 120.562 32.4367 120.983 32.4367C121.07 32.4367 121.173 32.4398 121.292 32.4461C121.413 32.4523 121.509 32.4601 121.577 32.4695V33.807C121.521 33.7915 121.421 33.7743 121.278 33.7556C121.134 33.7338 120.991 33.7229 120.848 33.7229C120.517 33.7229 120.222 33.793 119.964 33.9333C119.708 34.0705 119.505 34.2623 119.356 34.5086C119.206 34.7518 119.131 35.0293 119.131 35.3411V39.728H117.733ZM124.813 39.887C124.358 39.887 123.947 39.8028 123.579 39.6344C123.211 39.4629 122.919 39.2151 122.704 38.8908C122.492 38.5665 122.386 38.169 122.386 37.6982C122.386 37.2929 122.464 36.9593 122.62 36.6974C122.776 36.4354 122.986 36.2281 123.251 36.0753C123.516 35.9226 123.813 35.8072 124.14 35.7292C124.467 35.6513 124.801 35.5921 125.141 35.5515C125.571 35.5016 125.92 35.4611 126.188 35.4299C126.457 35.3956 126.651 35.3411 126.773 35.2662C126.895 35.1914 126.955 35.0698 126.955 34.9014V34.8687C126.955 34.4603 126.84 34.1438 126.609 33.9193C126.382 33.6948 126.042 33.5826 125.59 33.5826C125.119 33.5826 124.748 33.687 124.477 33.8959C124.209 34.1017 124.023 34.3309 123.92 34.5834L122.606 34.2841C122.762 33.8476 122.99 33.4953 123.289 33.2271C123.591 32.9559 123.939 32.7594 124.332 32.6378C124.725 32.5131 125.138 32.4508 125.571 32.4508C125.858 32.4508 126.162 32.4851 126.483 32.5536C126.807 32.6191 127.11 32.7407 127.39 32.9184C127.674 33.0962 127.906 33.3503 128.087 33.6808C128.268 34.0082 128.359 34.4337 128.359 34.9576V39.728H126.993V38.7458H126.937C126.846 38.9267 126.711 39.1044 126.53 39.279C126.349 39.4536 126.117 39.5986 125.833 39.7139C125.549 39.8293 125.209 39.887 124.813 39.887ZM125.117 38.7645C125.504 38.7645 125.835 38.6881 126.109 38.5354C126.386 38.3826 126.597 38.183 126.74 37.9367C126.887 37.6873 126.96 37.4207 126.96 37.137V36.211C126.91 36.2608 126.814 36.3076 126.67 36.3513C126.53 36.3918 126.369 36.4277 126.188 36.4588C126.008 36.4869 125.831 36.5134 125.66 36.5383C125.489 36.5602 125.345 36.5789 125.23 36.5945C124.958 36.6288 124.711 36.6864 124.486 36.7675C124.265 36.8486 124.087 36.9655 123.953 37.1183C123.822 37.2679 123.757 37.4675 123.757 37.7169C123.757 38.063 123.884 38.3249 124.14 38.5026C124.396 38.6772 124.722 38.7645 125.117 38.7645ZM133.247 39.8729C132.552 39.8729 131.953 39.7155 131.451 39.4006C130.952 39.0826 130.569 38.6445 130.301 38.0864C130.032 37.5283 129.898 36.8891 129.898 36.1689C129.898 35.4393 130.036 34.7954 130.31 34.2373C130.584 33.6761 130.971 33.238 131.47 32.9231C131.969 32.6082 132.556 32.4508 133.233 32.4508C133.779 32.4508 134.265 32.5521 134.692 32.7548C135.119 32.9543 135.464 33.2349 135.726 33.5966C135.991 33.9583 136.148 34.3807 136.198 34.864H134.837C134.762 34.5273 134.591 34.2373 134.323 33.9941C134.058 33.7509 133.702 33.6293 133.256 33.6293C132.867 33.6293 132.525 33.7322 132.232 33.938C131.942 34.1407 131.716 34.4306 131.554 34.8079C131.392 35.182 131.311 35.6248 131.311 36.1361C131.311 36.6599 131.39 37.112 131.549 37.4924C131.708 37.8728 131.933 38.1675 132.223 38.3764C132.516 38.5853 132.86 38.6897 133.256 38.6897C133.521 38.6897 133.762 38.6414 133.977 38.5447C134.195 38.4449 134.377 38.3031 134.524 38.1191C134.674 37.9352 134.778 37.7138 134.837 37.455H136.198C136.148 37.9196 135.997 38.3343 135.745 38.6991C135.492 39.0639 135.154 39.3507 134.73 39.5596C134.309 39.7685 133.815 39.8729 133.247 39.8729ZM138.98 37.2913L138.97 35.5843H139.214L142.076 32.5443H143.75L140.486 36.0052H140.266L138.98 37.2913ZM137.694 39.728V30.1497H139.092V39.728H137.694ZM142.23 39.728L139.658 36.3139L140.621 35.3364L143.947 39.728H142.23ZM145.025 39.728V32.5443H146.423V39.728H145.025ZM145.731 31.4359C145.488 31.4359 145.279 31.3548 145.104 31.1927C144.933 31.0274 144.847 30.831 144.847 30.6034C144.847 30.3727 144.933 30.1762 145.104 30.0141C145.279 29.8489 145.488 29.7662 145.731 29.7662C145.974 29.7662 146.181 29.8489 146.353 30.0141C146.527 30.1762 146.615 30.3727 146.615 30.6034C146.615 30.831 146.527 31.0274 146.353 31.1927C146.181 31.3548 145.974 31.4359 145.731 31.4359ZM149.703 35.4627V39.728H148.304V32.5443H149.647V33.7135H149.735C149.901 33.3331 150.159 33.0276 150.512 32.7968C150.867 32.5661 151.315 32.4508 151.854 32.4508C152.344 32.4508 152.772 32.5536 153.14 32.7594C153.508 32.9621 153.793 33.2645 153.996 33.6667C154.199 34.069 154.3 34.5663 154.3 35.1587V39.728H152.902V35.327C152.902 34.8063 152.766 34.3995 152.495 34.1064C152.223 33.8102 151.851 33.6621 151.377 33.6621C151.053 33.6621 150.764 33.7322 150.512 33.8725C150.262 34.0128 150.064 34.2186 149.918 34.4899C149.774 34.758 149.703 35.0823 149.703 35.4627ZM159.187 42.5715C158.617 42.5715 158.126 42.4967 157.714 42.347C157.306 42.1974 156.972 41.9994 156.713 41.7531C156.454 41.5067 156.261 41.237 156.133 40.944L157.335 40.4482C157.419 40.5854 157.532 40.7304 157.672 40.8832C157.815 41.039 158.009 41.1716 158.252 41.2807C158.498 41.3898 158.815 41.4444 159.201 41.4444C159.731 41.4444 160.169 41.315 160.516 41.0562C160.862 40.8005 161.035 40.3921 161.035 39.8309V38.4184H160.946C160.862 38.5712 160.74 38.7411 160.581 38.9282C160.425 39.1153 160.21 39.2774 159.936 39.4146C159.661 39.5518 159.304 39.6204 158.865 39.6204C158.297 39.6204 157.786 39.4879 157.331 39.2229C156.879 38.9547 156.52 38.5603 156.255 38.0396C155.993 37.5158 155.862 36.872 155.862 36.1081C155.862 35.3442 155.991 34.6894 156.25 34.1438C156.512 33.5981 156.871 33.1803 157.326 32.8904C157.781 32.5973 158.297 32.4508 158.874 32.4508C159.32 32.4508 159.68 32.5256 159.954 32.6752C160.229 32.8218 160.442 32.9933 160.595 33.1897C160.751 33.3861 160.871 33.5592 160.955 33.7088H161.058V32.5443H162.428V39.887C162.428 40.5043 162.285 41.011 161.998 41.407C161.711 41.8029 161.323 42.096 160.834 42.2862C160.347 42.4764 159.798 42.5715 159.187 42.5715ZM159.173 38.4605C159.576 38.4605 159.915 38.367 160.193 38.1799C160.473 37.9897 160.685 37.7185 160.829 37.3661C160.975 37.0107 161.049 36.5851 161.049 36.0894C161.049 35.6061 160.977 35.1805 160.834 34.8126C160.69 34.4447 160.48 34.1578 160.202 33.952C159.925 33.7431 159.582 33.6387 159.173 33.6387C158.752 33.6387 158.402 33.7478 158.121 33.9661C157.84 34.1812 157.628 34.4743 157.485 34.8453C157.345 35.2163 157.274 35.631 157.274 36.0894C157.274 36.5602 157.346 36.9733 157.49 37.3287C157.633 37.6842 157.845 37.9617 158.126 38.1612C158.409 38.3608 158.759 38.4605 159.173 38.4605Z" fill="#1C242D"/>
<rect x="21.1304" y="18.0619" width="156.165" height="33.332" rx="9.63879" stroke="#BFE4FF" stroke-width="2.12379" shape-rendering="crispEdges"/>
</g>
<defs>
<filter id="filter0_d_1_3938" x="0.805531" y="0.947541" width="196.815" height="73.9817" filterUnits="userSpaceOnUse" color-interpolation-filters="sRGB">
<feFlood flood-opacity="0" result="BackgroundImageFix"/>
<feColorMatrix in="SourceAlpha" type="matrix" values="0 0 0 0 0 0 0 0 0 0 0 0 0 0 0 0 0 0 127 0" result="hardAlpha"/>
<feOffset dy="3.21049"/>
<feGaussianBlur stdDeviation="9.63148"/>
<feComposite in2="hardAlpha" operator="out"/>
<feColorMatrix type="matrix" values="0 0 0 0 0 0 0 0 0 0.635294 0 0 0 0 0.996078 0 0 0 0.1 0"/>
<feBlend mode="normal" in2="BackgroundImageFix" result="effect1_dropShadow_1_3938"/>
<feBlend mode="normal" in="SourceGraphic" in2="effect1_dropShadow_1_3938" result="shape"/>
</filter>
</defs>
</svg>
