<svg width="162" height="78" viewBox="0 0 162 78" fill="none" xmlns="http://www.w3.org/2000/svg">
<g filter="url(#filter0_d_1_3943)">
<rect x="21.3572" y="18" width="118.741" height="35" rx="11.773" fill="white" shape-rendering="crispEdges"/>
<g clip-path="url(#clip0_1_3943)">
<path d="M43.9408 40.3944C46.3451 40.3944 48.2941 38.4453 48.2941 36.0411C48.2941 33.6368 46.3451 31.6878 43.9408 31.6878C41.5366 31.6878 39.5875 33.6368 39.5875 36.0411C39.5875 38.4453 41.5366 40.3944 43.9408 40.3944Z" stroke="#B33B92" stroke-width="1.08832" stroke-linecap="round" stroke-linejoin="round"/>
<path d="M43.9426 33.8654V36.042L45.0309 37.1303" stroke="#B33B92" stroke-width="1.08832" stroke-linecap="round" stroke-linejoin="round"/>
<path d="M40.1338 30.5982L38.5013 32.2307" stroke="#B33B92" stroke-width="1.08832" stroke-linecap="round" stroke-linejoin="round"/>
<path d="M49.3836 32.2307L47.7511 30.5982" stroke="#B33B92" stroke-width="1.08832" stroke-linecap="round" stroke-linejoin="round"/>
<path d="M40.8826 39.1411L39.5875 40.3926" stroke="#B33B92" stroke-width="1.08832" stroke-linecap="round" stroke-linejoin="round"/>
<path d="M47.0104 39.1259L48.2946 40.3937" stroke="#B33B92" stroke-width="1.08832" stroke-linecap="round" stroke-linejoin="round"/>
</g>
<path d="M57.0968 40.5V30.9218H60.5109C61.253 30.9218 61.8688 31.0496 62.3583 31.3053C62.8509 31.5609 63.2188 31.9148 63.462 32.3669C63.7052 32.8159 63.8268 33.335 63.8268 33.9243C63.8268 34.5105 63.7037 35.0265 63.4573 35.4724C63.2141 35.9151 62.8462 36.2596 62.3536 36.506C61.8641 36.7523 61.2483 36.8754 60.5062 36.8754H57.9199V35.6314H60.3753C60.843 35.6314 61.2233 35.5643 61.5164 35.4303C61.8126 35.2962 62.0293 35.1013 62.1665 34.8457C62.3037 34.59 62.3723 34.2829 62.3723 33.9243C62.3723 33.5626 62.3021 33.2493 62.1618 32.9843C62.0247 32.7192 61.808 32.5166 61.5118 32.3763C61.2187 32.2329 60.8336 32.1611 60.3566 32.1611H58.5419V40.5H57.0968ZM61.8251 36.1786L64.1916 40.5H62.5453L60.2256 36.1786H61.8251ZM68.4791 40.645C67.7714 40.645 67.1618 40.4938 66.6505 40.1913C66.1422 39.8858 65.7494 39.4571 65.4719 38.9052C65.1975 38.3502 65.0603 37.7001 65.0603 36.9549C65.0603 36.2191 65.1975 35.5706 65.4719 35.0094C65.7494 34.4481 66.136 34.0101 66.6318 33.6952C67.1306 33.3802 67.7137 33.2228 68.3809 33.2228C68.7862 33.2228 69.1791 33.2898 69.5595 33.4239C69.9399 33.558 70.2813 33.7684 70.5837 34.0553C70.8862 34.3421 71.1247 34.7147 71.2993 35.173C71.4739 35.6283 71.5612 36.1817 71.5612 36.8333V37.3291H65.8507V36.2815H70.1909C70.1909 35.9135 70.116 35.5877 69.9664 35.304C69.8167 35.0171 69.6063 34.7911 69.335 34.6258C69.0669 34.4606 68.7519 34.378 68.3903 34.378C67.9974 34.378 67.6544 34.4746 67.3614 34.6679C67.0714 34.8581 66.8469 35.1076 66.6879 35.4162C66.532 35.7218 66.454 36.0539 66.454 36.4124V37.2309C66.454 37.711 66.5382 38.1195 66.7066 38.4562C66.8781 38.7929 67.1166 39.0502 67.4222 39.2279C67.7277 39.4025 68.0847 39.4898 68.4932 39.4898C68.7582 39.4898 68.9998 39.4524 69.2181 39.3776C69.4363 39.2996 69.625 39.1842 69.784 39.0315C69.943 38.8787 70.0646 38.6901 70.1488 38.4656L71.4723 38.7041C71.3663 39.0938 71.1761 39.4352 70.9017 39.7283C70.6305 40.0183 70.2891 40.2443 69.8775 40.4065C69.4691 40.5655 69.0029 40.645 68.4791 40.645ZM73.1127 40.5V33.3163H74.455V34.4855H74.5439C74.6935 34.0896 74.9383 33.7809 75.2781 33.5595C75.618 33.335 76.0249 33.2228 76.4988 33.2228C76.9789 33.2228 77.3812 33.335 77.7054 33.5595C78.0328 33.784 78.2744 34.0927 78.4303 34.4855H78.5052C78.6767 34.102 78.9495 33.7965 79.3236 33.5689C79.6978 33.3382 80.1436 33.2228 80.6612 33.2228C81.3128 33.2228 81.8445 33.427 82.256 33.8355C82.6707 34.2439 82.878 34.8597 82.878 35.6828V40.5H81.4797V35.8138C81.4797 35.3274 81.3471 34.9751 81.0821 34.7568C80.8171 34.5385 80.5006 34.4294 80.1327 34.4294C79.6775 34.4294 79.3236 34.5697 79.0711 34.8503C78.8185 35.1278 78.6922 35.4848 78.6922 35.9213V40.5H77.2985V35.7249C77.2985 35.3352 77.1769 35.0218 76.9337 34.7849C76.6905 34.5479 76.3741 34.4294 75.9843 34.4294C75.7193 34.4294 75.4746 34.4996 75.2501 34.6399C75.0287 34.7771 74.8494 34.9688 74.7122 35.2151C74.5782 35.4615 74.5111 35.7467 74.5111 36.071V40.5H73.1127ZM84.7523 40.5V33.3163H86.1507V40.5H84.7523ZM85.4585 32.2079C85.2153 32.2079 85.0064 32.1268 84.8318 31.9647C84.6603 31.7995 84.5746 31.603 84.5746 31.3754C84.5746 31.1447 84.6603 30.9483 84.8318 30.7861C85.0064 30.6209 85.2153 30.5383 85.4585 30.5383C85.7017 30.5383 85.909 30.6209 86.0805 30.7861C86.2551 30.9483 86.3424 31.1447 86.3424 31.3754C86.3424 31.603 86.2551 31.7995 86.0805 31.9647C85.909 32.1268 85.7017 32.2079 85.4585 32.2079ZM89.4303 36.2347V40.5H88.032V33.3163H89.3742V34.4855H89.4631C89.6283 34.1052 89.8871 33.7996 90.2394 33.5689C90.5949 33.3382 91.0423 33.2228 91.5817 33.2228C92.0712 33.2228 92.4999 33.3257 92.8678 33.5315C93.2358 33.7341 93.521 34.0366 93.7237 34.4388C93.9264 34.841 94.0277 35.3383 94.0277 35.9307V40.5H92.6293V36.0991C92.6293 35.5784 92.4937 35.1715 92.2224 34.8784C91.9512 34.5822 91.5786 34.4341 91.1047 34.4341C90.7804 34.4341 90.492 34.5043 90.2394 34.6446C89.99 34.7849 89.792 34.9906 89.6455 35.2619C89.502 35.53 89.4303 35.8543 89.4303 36.2347ZM98.5923 40.6403C98.0124 40.6403 97.4948 40.4922 97.0396 40.196C96.5875 39.8967 96.2321 39.4711 95.9733 38.9192C95.7176 38.3642 95.5898 37.6986 95.5898 36.9222C95.5898 36.1458 95.7192 35.4817 95.978 34.9298C96.2399 34.378 96.5984 33.9555 97.0536 33.6624C97.5089 33.3693 98.0249 33.2228 98.6017 33.2228C99.0475 33.2228 99.4061 33.2976 99.6774 33.4473C99.9517 33.5938 100.164 33.7653 100.313 33.9617C100.466 34.1582 100.585 34.3312 100.669 34.4809H100.753V30.9218H102.151V40.5H100.786V39.3822H100.669C100.585 39.535 100.463 39.7096 100.304 39.906C100.148 40.1025 99.933 40.274 99.6587 40.4205C99.3843 40.567 99.0288 40.6403 98.5923 40.6403ZM98.901 39.4477C99.3032 39.4477 99.6431 39.3417 99.9206 39.1297C100.201 38.9145 100.413 38.6168 100.557 38.2364C100.703 37.856 100.776 37.4133 100.776 36.9082C100.776 36.4093 100.705 35.9728 100.561 35.5986C100.418 35.2245 100.207 34.933 99.9299 34.7241C99.6524 34.5152 99.3094 34.4107 98.901 34.4107C98.4801 34.4107 98.1293 34.5198 97.8487 34.7381C97.5681 34.9563 97.3561 35.2541 97.2127 35.6314C97.0723 36.0086 97.0022 36.4342 97.0022 36.9082C97.0022 37.3883 97.0739 37.8202 97.2173 38.2037C97.3608 38.5872 97.5728 38.8912 97.8534 39.1156C98.1371 39.337 98.4863 39.4477 98.901 39.4477ZM107.243 40.645C106.536 40.645 105.926 40.4938 105.415 40.1913C104.906 39.8858 104.514 39.4571 104.236 38.9052C103.962 38.3502 103.825 37.7001 103.825 36.9549C103.825 36.2191 103.962 35.5706 104.236 35.0094C104.514 34.4481 104.9 34.0101 105.396 33.6952C105.895 33.3802 106.478 33.2228 107.145 33.2228C107.55 33.2228 107.943 33.2898 108.324 33.4239C108.704 33.558 109.046 33.7684 109.348 34.0553C109.65 34.3421 109.889 34.7147 110.064 35.173C110.238 35.6283 110.325 36.1817 110.325 36.8333V37.3291H104.615V36.2815H108.955C108.955 35.9135 108.88 35.5877 108.731 35.304C108.581 35.0171 108.37 34.7911 108.099 34.6258C107.831 34.4606 107.516 34.378 107.155 34.378C106.762 34.378 106.419 34.4746 106.126 34.6679C105.836 34.8581 105.611 35.1076 105.452 35.4162C105.296 35.7218 105.218 36.0539 105.218 36.4124V37.2309C105.218 37.711 105.302 38.1195 105.471 38.4562C105.642 38.7929 105.881 39.0502 106.186 39.2279C106.492 39.4025 106.849 39.4898 107.257 39.4898C107.522 39.4898 107.764 39.4524 107.982 39.3776C108.201 39.2996 108.389 39.1842 108.548 39.0315C108.707 38.8787 108.829 38.6901 108.913 38.4656L110.237 38.7041C110.131 39.0938 109.94 39.4352 109.666 39.7283C109.395 40.0183 109.053 40.2443 108.642 40.4065C108.233 40.5655 107.767 40.645 107.243 40.645ZM111.877 40.5V33.3163H113.229V34.4575H113.303C113.434 34.0709 113.665 33.7669 113.996 33.5455C114.329 33.321 114.706 33.2088 115.127 33.2088C115.215 33.2088 115.318 33.2119 115.436 33.2181C115.558 33.2243 115.653 33.2321 115.721 33.2415V34.5791C115.665 34.5635 115.565 34.5463 115.422 34.5276C115.279 34.5058 115.135 34.4949 114.992 34.4949C114.661 34.4949 114.367 34.5651 114.108 34.7054C113.852 34.8425 113.65 35.0343 113.5 35.2806C113.35 35.5238 113.275 35.8013 113.275 36.1131V40.5H111.877ZM122.315 35.0702L121.047 35.2946C120.994 35.1325 120.91 34.9782 120.795 34.8316C120.682 34.6851 120.53 34.5651 120.336 34.4715C120.143 34.378 119.901 34.3312 119.611 34.3312C119.215 34.3312 118.885 34.4201 118.62 34.5978C118.355 34.7724 118.222 34.9984 118.222 35.2759C118.222 35.516 118.311 35.7093 118.489 35.8559C118.667 36.0024 118.953 36.1224 119.349 36.216L120.491 36.4779C121.152 36.6307 121.644 36.8661 121.969 37.1841C122.293 37.5021 122.455 37.9152 122.455 38.4235C122.455 38.8537 122.33 39.2372 122.081 39.574C121.834 39.9076 121.49 40.1695 121.047 40.3597C120.608 40.5499 120.098 40.645 119.518 40.645C118.713 40.645 118.057 40.4735 117.549 40.1305C117.041 39.7844 116.729 39.2934 116.613 38.6573L117.965 38.4515C118.049 38.8039 118.222 39.0704 118.484 39.2513C118.746 39.429 119.088 39.5179 119.508 39.5179C119.967 39.5179 120.333 39.4228 120.608 39.2326C120.882 39.0393 121.019 38.8039 121.019 38.5264C121.019 38.3019 120.935 38.1132 120.767 37.9605C120.601 37.8077 120.347 37.6923 120.004 37.6144L118.788 37.3478C118.118 37.195 117.622 36.9518 117.301 36.6182C116.983 36.2846 116.824 35.8621 116.824 35.3508C116.824 34.9267 116.942 34.5557 117.179 34.2377C117.416 33.9196 117.744 33.6718 118.162 33.494C118.579 33.3132 119.058 33.2228 119.597 33.2228C120.374 33.2228 120.985 33.3912 121.431 33.7279C121.877 34.0615 122.171 34.5089 122.315 35.0702Z" fill="#1C242D"/>
<rect x="22.5255" y="19.1683" width="116.405" height="32.6634" rx="10.6047" stroke="#BFE4FF" stroke-width="2.33661" shape-rendering="crispEdges"/>
</g>
<defs>
<filter id="filter0_d_1_3943" x="0.164007" y="0.338974" width="161.128" height="77.3865" filterUnits="userSpaceOnUse" color-interpolation-filters="sRGB">
<feFlood flood-opacity="0" result="BackgroundImageFix"/>
<feColorMatrix in="SourceAlpha" type="matrix" values="0 0 0 0 0 0 0 0 0 0 0 0 0 0 0 0 0 0 127 0" result="hardAlpha"/>
<feOffset dy="3.53221"/>
<feGaussianBlur stdDeviation="10.5966"/>
<feComposite in2="hardAlpha" operator="out"/>
<feColorMatrix type="matrix" values="0 0 0 0 0 0 0 0 0 0.635294 0 0 0 0 0.996078 0 0 0 0.1 0"/>
<feBlend mode="normal" in2="BackgroundImageFix" result="effect1_dropShadow_1_3943"/>
<feBlend mode="normal" in="SourceGraphic" in2="effect1_dropShadow_1_3943" result="shape"/>
</filter>
<clipPath id="clip0_1_3943">
<rect width="13.0598" height="13.0598" fill="white" transform="translate(37.4113 28.9701)"/>
</clipPath>
</defs>
</svg>
