<svg width="160" height="75" viewBox="0 0 160 75" fill="none" xmlns="http://www.w3.org/2000/svg">
<g filter="url(#filter0_d_1_2472)">
<rect x="20" y="17" width="120.58" height="35.4558" rx="10.7007" fill="white" shape-rendering="crispEdges"/>
<path d="M36.885 39.3142H46.0548C46.3588 39.3142 46.6503 39.1934 46.8653 38.9785C47.0802 38.7635 47.201 38.472 47.201 38.168V32.4369C47.201 32.1329 47.0802 31.8414 46.8653 31.6264C46.6503 31.4114 46.3588 31.2907 46.0548 31.2907H41.51C41.3212 31.2897 41.1356 31.2421 40.9696 31.1521C40.8037 31.0621 40.6625 30.9326 40.5587 30.7749L40.0887 30.0871C39.9849 29.9295 39.8437 29.7999 39.6777 29.7099C39.5118 29.6199 39.3262 29.5723 39.1374 29.5714H36.885C36.5811 29.5714 36.2895 29.6921 36.0745 29.9071C35.8596 30.122 35.7388 30.4136 35.7388 30.7176V38.168C35.7388 38.7984 36.2546 39.3142 36.885 39.3142Z" stroke="#1895FF" stroke-width="1.14622" stroke-linecap="round" stroke-linejoin="round"/>
<path d="M35.7388 33.5856H47.201" stroke="#1895FF" stroke-width="1.14622" stroke-linecap="round" stroke-linejoin="round"/>
<path d="M58.1411 39.7279H55.0403V30.1497H58.2393C59.1778 30.1497 59.9838 30.3414 60.6573 30.7249C61.3307 31.1053 61.8468 31.6525 62.2053 32.3665C62.567 33.0774 62.7478 33.9301 62.7478 34.9248C62.7478 35.9225 62.5654 36.7799 62.2006 37.497C61.839 38.2142 61.3152 38.766 60.6292 39.1527C59.9433 39.5362 59.1139 39.7279 58.1411 39.7279ZM56.4855 38.4652H58.0616C58.7912 38.4652 59.3976 38.328 59.8809 38.0536C60.3642 37.7761 60.7259 37.3754 60.9659 36.8516C61.206 36.3247 61.3261 35.6824 61.3261 34.9248C61.3261 34.1733 61.206 33.5357 60.9659 33.0119C60.729 32.4881 60.3751 32.0906 59.9043 31.8193C59.4335 31.5481 58.8489 31.4124 58.1505 31.4124H56.4855V38.4652ZM67.4586 39.8729C66.7851 39.8729 66.1974 39.7186 65.6954 39.4099C65.1934 39.1012 64.8037 38.6694 64.5262 38.1144C64.2487 37.5594 64.11 36.9109 64.11 36.1688C64.11 35.4236 64.2487 34.772 64.5262 34.2139C64.8037 33.6558 65.1934 33.2224 65.6954 32.9137C66.1974 32.605 66.7851 32.4507 67.4586 32.4507C68.1321 32.4507 68.7198 32.605 69.2218 32.9137C69.7238 33.2224 70.1135 33.6558 70.391 34.2139C70.6685 34.772 70.8072 35.4236 70.8072 36.1688C70.8072 36.9109 70.6685 37.5594 70.391 38.1144C70.1135 38.6694 69.7238 39.1012 69.2218 39.4099C68.7198 39.7186 68.1321 39.8729 67.4586 39.8729ZM67.4633 38.699C67.8998 38.699 68.2615 38.5836 68.5483 38.3529C68.8352 38.1222 69.0472 37.8151 69.1844 37.4316C69.3247 37.0481 69.3948 36.6256 69.3948 36.1641C69.3948 35.7058 69.3247 35.2849 69.1844 34.9014C69.0472 34.5148 68.8352 34.2045 68.5483 33.9707C68.2615 33.7368 67.8998 33.6199 67.4633 33.6199C67.0237 33.6199 66.6589 33.7368 66.3689 33.9707C66.0821 34.2045 65.8685 34.5148 65.7282 34.9014C65.591 35.2849 65.5224 35.7058 65.5224 36.1641C65.5224 36.6256 65.591 37.0481 65.7282 37.4316C65.8685 37.8151 66.0821 38.1222 66.3689 38.3529C66.6589 38.5836 67.0237 38.699 67.4633 38.699ZM75.3941 39.8729C74.6988 39.8729 74.1002 39.7154 73.5982 39.4005C73.0993 39.0825 72.7158 38.6444 72.4477 38.0863C72.1795 37.5282 72.0455 36.889 72.0455 36.1688C72.0455 35.4392 72.1826 34.7954 72.457 34.2373C72.7314 33.676 73.118 33.238 73.6169 32.9231C74.1157 32.6081 74.7035 32.4507 75.3801 32.4507C75.9257 32.4507 76.4121 32.552 76.8392 32.7547C77.2664 32.9542 77.6109 33.2348 77.8728 33.5965C78.1379 33.9582 78.2953 34.3807 78.3452 34.864H76.9842C76.9094 34.5272 76.7379 34.2373 76.4698 33.9941C76.2047 33.7509 75.8493 33.6293 75.4034 33.6293C75.0137 33.6293 74.6723 33.7322 74.3792 33.9379C74.0892 34.1406 73.8632 34.4306 73.7011 34.8078C73.5389 35.182 73.4579 35.6247 73.4579 36.1361C73.4579 36.6599 73.5374 37.112 73.6964 37.4924C73.8554 37.8727 74.0799 38.1674 74.3699 38.3763C74.6629 38.5852 75.0075 38.6896 75.4034 38.6896C75.6685 38.6896 75.9085 38.6413 76.1237 38.5447C76.3419 38.4449 76.5243 38.303 76.6709 38.1191C76.8205 37.9351 76.925 37.7137 76.9842 37.4549H78.3452C78.2953 37.9195 78.1441 38.3342 77.8915 38.699C77.639 39.0638 77.3007 39.3506 76.8767 39.5595C76.4557 39.7684 75.9616 39.8729 75.3941 39.8729ZM84.3912 36.7487V32.5442H85.7943V39.7279H84.4193V38.4839H84.3445C84.1792 38.8674 83.9142 39.1869 83.5494 39.4426C83.1877 39.6952 82.7372 39.8214 82.1978 39.8214C81.7363 39.8214 81.3279 39.7201 80.9724 39.5174C80.6201 39.3117 80.3426 39.0077 80.1399 38.6055C79.9404 38.2032 79.8406 37.7059 79.8406 37.1135V32.5442H81.239V36.9452C81.239 37.4347 81.3746 37.8244 81.6459 38.1144C81.9172 38.4044 82.2695 38.5493 82.7029 38.5493C82.9648 38.5493 83.2251 38.4839 83.4839 38.3529C83.7458 38.222 83.9625 38.024 84.134 37.7589C84.3086 37.4939 84.3943 37.1572 84.3912 36.7487ZM87.6732 39.7279V32.5442H89.0155V33.7134H89.1043C89.254 33.3175 89.4988 33.0088 89.8386 32.7874C90.1785 32.5629 90.5853 32.4507 91.0593 32.4507C91.5394 32.4507 91.9416 32.5629 92.2659 32.7874C92.5933 33.0119 92.8349 33.3206 92.9908 33.7134H93.0656C93.2371 33.3299 93.51 33.0244 93.8841 32.7968C94.2583 32.5661 94.7041 32.4507 95.2217 32.4507C95.8733 32.4507 96.4049 32.6549 96.8165 33.0634C97.2312 33.4718 97.4385 34.0876 97.4385 34.9107V39.7279H96.0401V35.0417C96.0401 34.5553 95.9076 34.203 95.6426 33.9847C95.3776 33.7665 95.0611 33.6573 94.6932 33.6573C94.238 33.6573 93.8841 33.7976 93.6316 34.0782C93.379 34.3557 93.2527 34.7127 93.2527 35.1492V39.7279H91.859V34.9528C91.859 34.5631 91.7374 34.2497 91.4942 34.0128C91.251 33.7758 90.9346 33.6573 90.5448 33.6573C90.2798 33.6573 90.035 33.7275 89.8105 33.8678C89.5892 34.005 89.4099 34.1967 89.2727 34.443C89.1386 34.6894 89.0716 34.9746 89.0716 35.2989V39.7279H87.6732ZM102.409 39.8729C101.701 39.8729 101.092 39.7217 100.58 39.4192C100.072 39.1137 99.6791 38.685 99.4016 38.1331C99.1273 37.5781 98.9901 36.928 98.9901 36.1828C98.9901 35.447 99.1273 34.7985 99.4016 34.2373C99.6791 33.676 100.066 33.238 100.562 32.9231C101.06 32.6081 101.643 32.4507 102.311 32.4507C102.716 32.4507 103.109 32.5177 103.489 32.6518C103.87 32.7859 104.211 32.9963 104.513 33.2832C104.816 33.57 105.054 33.9426 105.229 34.4009C105.404 34.8562 105.491 35.4096 105.491 36.0612V36.557H99.7805V35.5094H104.121C104.121 35.1415 104.046 34.8156 103.896 34.5319C103.746 34.2451 103.536 34.019 103.265 33.8538C102.997 33.6885 102.682 33.6059 102.32 33.6059C101.927 33.6059 101.584 33.7025 101.291 33.8958C101.001 34.086 100.777 34.3355 100.618 34.6441C100.462 34.9497 100.384 35.2818 100.384 35.6403V36.4588C100.384 36.9389 100.468 37.3474 100.636 37.6841C100.808 38.0208 101.046 38.2781 101.352 38.4558C101.657 38.6304 102.014 38.7177 102.423 38.7177C102.688 38.7177 102.93 38.6803 103.148 38.6055C103.366 38.5275 103.555 38.4121 103.714 38.2594C103.873 38.1066 103.994 37.918 104.079 37.6935L105.402 37.932C105.296 38.3217 105.106 38.6631 104.831 38.9562C104.56 39.2462 104.219 39.4722 103.807 39.6344C103.399 39.7934 102.933 39.8729 102.409 39.8729ZM108.441 35.4626V39.7279H107.042V32.5442H108.385V33.7134H108.474C108.639 33.3331 108.898 33.0275 109.25 32.7968C109.605 32.5661 110.053 32.4507 110.592 32.4507C111.082 32.4507 111.51 32.5536 111.878 32.7594C112.246 32.962 112.532 33.2645 112.734 33.6667C112.937 34.0689 113.038 34.5662 113.038 35.1586V39.7279H111.64V35.327C111.64 34.8063 111.504 34.3994 111.233 34.1063C110.962 33.8101 110.589 33.662 110.115 33.662C109.791 33.662 109.503 33.7322 109.25 33.8725C109.001 34.0128 108.803 34.2186 108.656 34.4898C108.513 34.758 108.441 35.0822 108.441 35.4626ZM118.267 32.5442V33.6667H114.343V32.5442H118.267ZM115.395 30.8231H116.794V37.6186C116.794 37.8899 116.834 38.0941 116.915 38.2313C116.996 38.3654 117.101 38.4574 117.229 38.5072C117.36 38.554 117.502 38.5774 117.654 38.5774C117.767 38.5774 117.865 38.5696 117.949 38.554C118.033 38.5384 118.099 38.5259 118.145 38.5166L118.398 39.6718C118.317 39.703 118.201 39.7341 118.052 39.7653C117.902 39.7996 117.715 39.8183 117.491 39.8214C117.123 39.8277 116.78 39.7622 116.462 39.625C116.144 39.4878 115.886 39.2758 115.69 38.989C115.494 38.7021 115.395 38.342 115.395 37.9086V30.8231ZM125.081 34.2981L123.814 34.5225C123.761 34.3604 123.677 34.2061 123.561 34.0595C123.449 33.913 123.296 33.793 123.103 33.6994C122.91 33.6059 122.668 33.5591 122.378 33.5591C121.982 33.5591 121.651 33.648 121.386 33.8257C121.121 34.0003 120.989 34.2263 120.989 34.5038C120.989 34.7439 121.078 34.9372 121.255 35.0838C121.433 35.2303 121.72 35.3504 122.116 35.4439L123.257 35.7058C123.918 35.8586 124.411 36.094 124.735 36.412C125.059 36.73 125.221 37.1432 125.221 37.6514C125.221 38.0816 125.097 38.4652 124.847 38.8019C124.601 39.1355 124.256 39.3974 123.814 39.5876C123.374 39.7778 122.864 39.8729 122.284 39.8729C121.48 39.8729 120.824 39.7014 120.315 39.3584C119.807 39.0123 119.495 38.5213 119.38 37.8852L120.732 37.6794C120.816 38.0318 120.989 38.2983 121.251 38.4792C121.513 38.6569 121.854 38.7458 122.275 38.7458C122.733 38.7458 123.1 38.6507 123.374 38.4605C123.648 38.2672 123.786 38.0318 123.786 37.7543C123.786 37.5298 123.701 37.3411 123.533 37.1884C123.368 37.0356 123.114 36.9202 122.771 36.8423L121.555 36.5757C120.884 36.4229 120.389 36.1797 120.068 35.8461C119.75 35.5125 119.591 35.09 119.591 34.5787C119.591 34.1546 119.709 33.7836 119.946 33.4656C120.183 33.1475 120.51 32.8997 120.928 32.722C121.346 32.5411 121.825 32.4507 122.364 32.4507C123.14 32.4507 123.751 32.6191 124.197 32.9558C124.643 33.2894 124.938 33.7368 125.081 34.2981Z" fill="#1C242D"/>
<rect x="21.0619" y="18.0619" width="118.456" height="33.332" rx="9.63879" stroke="#BFE4FF" stroke-width="2.12379" shape-rendering="crispEdges"/>
</g>
<defs>
<filter id="filter0_d_1_2472" x="0.737049" y="0.947541" width="159.106" height="73.9817" filterUnits="userSpaceOnUse" color-interpolation-filters="sRGB">
<feFlood flood-opacity="0" result="BackgroundImageFix"/>
<feColorMatrix in="SourceAlpha" type="matrix" values="0 0 0 0 0 0 0 0 0 0 0 0 0 0 0 0 0 0 127 0" result="hardAlpha"/>
<feOffset dy="3.21049"/>
<feGaussianBlur stdDeviation="9.63148"/>
<feComposite in2="hardAlpha" operator="out"/>
<feColorMatrix type="matrix" values="0 0 0 0 0 0 0 0 0 0.635294 0 0 0 0 0.996078 0 0 0 0.1 0"/>
<feBlend mode="normal" in2="BackgroundImageFix" result="effect1_dropShadow_1_2472"/>
<feBlend mode="normal" in="SourceGraphic" in2="effect1_dropShadow_1_2472" result="shape"/>
</filter>
</defs>
</svg>
