<svg width="190" height="75" viewBox="0 0 190 75" fill="none" xmlns="http://www.w3.org/2000/svg">
<g filter="url(#filter0_d_1_2484)">
<rect x="19.6563" y="17" width="150.296" height="35.4558" rx="10.7007" fill="white" shape-rendering="crispEdges"/>
<g clip-path="url(#clip0_1_2484)">
<path d="M44.3797 33.7113C44.3797 36.7505 40.3273 39.7897 40.3273 39.7897C40.3273 39.7897 36.275 36.7505 36.275 33.7113C36.275 32.6365 36.702 31.6058 37.4619 30.8458C38.2219 30.0859 39.2526 29.6589 40.3273 29.6589C41.4021 29.6589 42.4328 30.0859 43.1928 30.8458C43.9527 31.6058 44.3797 32.6365 44.3797 33.7113Z" stroke="#36BF20" stroke-width="1.01308" stroke-linecap="round" stroke-linejoin="round"/>
<path d="M40.327 35.2366C41.1663 35.2366 41.8466 34.5562 41.8466 33.7169C41.8466 32.8777 41.1663 32.1973 40.327 32.1973C39.4877 32.1973 38.8074 32.8777 38.8074 33.7169C38.8074 34.5562 39.4877 35.2366 40.327 35.2366Z" stroke="#36BF20" stroke-width="1.01308" stroke-linecap="round" stroke-linejoin="round"/>
</g>
<path d="M51.4124 39.7278V30.1496H52.8576V38.4838H57.1977V39.7278H51.4124ZM61.76 39.8728C61.0865 39.8728 60.4988 39.7185 59.9968 39.4098C59.4948 39.1011 59.1051 38.6693 58.8276 38.1143C58.5501 37.5593 58.4114 36.9108 58.4114 36.1687C58.4114 35.4236 58.5501 34.7719 58.8276 34.2138C59.1051 33.6557 59.4948 33.2223 59.9968 32.9136C60.4988 32.605 61.0865 32.4506 61.76 32.4506C62.4335 32.4506 63.0212 32.605 63.5232 32.9136C64.0252 33.2223 64.4149 33.6557 64.6924 34.2138C64.9699 34.7719 65.1087 35.4236 65.1087 36.1687C65.1087 36.9108 64.9699 37.5593 64.6924 38.1143C64.4149 38.6693 64.0252 39.1011 63.5232 39.4098C63.0212 39.7185 62.4335 39.8728 61.76 39.8728ZM61.7647 38.6989C62.2012 38.6989 62.5629 38.5836 62.8497 38.3528C63.1366 38.1221 63.3486 37.815 63.4858 37.4315C63.6261 37.048 63.6962 36.6255 63.6962 36.1641C63.6962 35.7057 63.6261 35.2848 63.4858 34.9013C63.3486 34.5147 63.1366 34.2045 62.8497 33.9706C62.5629 33.7368 62.2012 33.6199 61.7647 33.6199C61.3251 33.6199 60.9603 33.7368 60.6703 33.9706C60.3835 34.2045 60.1699 34.5147 60.0296 34.9013C59.8924 35.2848 59.8238 35.7057 59.8238 36.1641C59.8238 36.6255 59.8924 37.048 60.0296 37.4315C60.1699 37.815 60.3835 38.1221 60.6703 38.3528C60.9603 38.5836 61.3251 38.6989 61.7647 38.6989ZM69.6955 39.8728C69.0002 39.8728 68.4016 39.7154 67.8996 39.4005C67.4007 39.0824 67.0172 38.6444 66.7491 38.0863C66.4809 37.5282 66.3469 36.889 66.3469 36.1687C66.3469 35.4392 66.484 34.7953 66.7584 34.2372C67.0328 33.676 67.4194 33.2379 67.9183 32.923C68.4171 32.6081 69.0049 32.4506 69.6815 32.4506C70.2271 32.4506 70.7135 32.552 71.1406 32.7546C71.5678 32.9542 71.9123 33.2348 72.1742 33.5965C72.4393 33.9581 72.5967 34.3806 72.6466 34.8639H71.2856C71.2108 34.5272 71.0393 34.2372 70.7712 33.994C70.5061 33.7508 70.1507 33.6292 69.7048 33.6292C69.3151 33.6292 68.9737 33.7321 68.6806 33.9379C68.3906 34.1405 68.1646 34.4305 68.0025 34.8078C67.8403 35.1819 67.7593 35.6247 67.7593 36.136C67.7593 36.6598 67.8388 37.1119 67.9978 37.4923C68.1568 37.8727 68.3813 38.1673 68.6713 38.3762C68.9643 38.5851 69.3089 38.6896 69.7048 38.6896C69.9699 38.6896 70.2099 38.6413 70.4251 38.5446C70.6433 38.4448 70.8257 38.303 70.9723 38.119C71.1219 37.935 71.2264 37.7137 71.2856 37.4549H72.6466C72.5967 37.9195 72.4455 38.3341 72.1929 38.6989C71.9404 39.0637 71.6021 39.3506 71.1781 39.5595C70.7571 39.7684 70.263 39.8728 69.6955 39.8728ZM76.2326 39.8869C75.7774 39.8869 75.3658 39.8027 74.9979 39.6343C74.63 39.4628 74.3385 39.2149 74.1233 38.8907C73.9113 38.5664 73.8053 38.1689 73.8053 37.6981C73.8053 37.2928 73.8832 36.9591 74.0391 36.6972C74.195 36.4353 74.4055 36.228 74.6705 36.0752C74.9355 35.9224 75.2317 35.8071 75.5591 35.7291C75.8865 35.6512 76.2201 35.5919 76.56 35.5514C76.9902 35.5015 77.3394 35.461 77.6076 35.4298C77.8757 35.3955 78.0706 35.3409 78.1922 35.2661C78.3138 35.1913 78.3746 35.0697 78.3746 34.9013V34.8686C78.3746 34.4601 78.2592 34.1437 78.0285 33.9192C77.8009 33.6947 77.461 33.5824 77.0089 33.5824C76.5381 33.5824 76.1671 33.6869 75.8959 33.8958C75.6277 34.1016 75.4422 34.3307 75.3393 34.5833L74.0251 34.284C74.181 33.8475 74.4086 33.4951 74.7079 33.227C75.0104 32.9557 75.358 32.7593 75.7509 32.6377C76.1437 32.513 76.5569 32.4506 76.9902 32.4506C77.2771 32.4506 77.5811 32.4849 77.9022 32.5535C78.2265 32.619 78.5289 32.7406 78.8095 32.9183C79.0933 33.096 79.3256 33.3502 79.5064 33.6806C79.6872 34.008 79.7777 34.4336 79.7777 34.9574V39.7278H78.412V38.7457H78.3559C78.2655 38.9265 78.1298 39.1043 77.949 39.2789C77.7682 39.4535 77.5359 39.5985 77.2521 39.7138C76.9684 39.8292 76.6286 39.8869 76.2326 39.8869ZM76.5366 38.7644C76.9232 38.7644 77.2537 38.688 77.5281 38.5352C77.8056 38.3825 78.016 38.1829 78.1595 37.9366C78.306 37.6872 78.3793 37.4206 78.3793 37.1369V36.2108C78.3294 36.2607 78.2327 36.3075 78.0893 36.3511C77.949 36.3917 77.7884 36.4275 77.6076 36.4587C77.4268 36.4868 77.2506 36.5133 77.0791 36.5382C76.9076 36.56 76.7642 36.5788 76.6488 36.5943C76.3776 36.6286 76.1297 36.6863 75.9052 36.7674C75.6838 36.8485 75.5061 36.9654 75.372 37.1182C75.2411 37.2678 75.1756 37.4674 75.1756 37.7168C75.1756 38.0629 75.3035 38.3248 75.5591 38.5025C75.8148 38.6771 76.1406 38.7644 76.5366 38.7644ZM84.9935 32.5442V33.6666H81.0696V32.5442H84.9935ZM82.1219 30.8231H83.5203V37.6186C83.5203 37.8898 83.5609 38.0941 83.6419 38.2312C83.723 38.3653 83.8274 38.4573 83.9553 38.5072C84.0862 38.5539 84.2281 38.5773 84.3809 38.5773C84.4931 38.5773 84.5913 38.5695 84.6755 38.5539C84.7597 38.5384 84.8252 38.5259 84.8719 38.5165L85.1245 39.6717C85.0434 39.7029 84.9281 39.7341 84.7784 39.7653C84.6287 39.7996 84.4417 39.8183 84.2172 39.8214C83.8493 39.8276 83.5063 39.7621 83.1883 39.625C82.8702 39.4878 82.613 39.2757 82.4166 38.9889C82.2202 38.7021 82.1219 38.3419 82.1219 37.9085V30.8231ZM86.5404 39.7278V32.5442H87.9388V39.7278H86.5404ZM87.2466 31.4358C87.0034 31.4358 86.7945 31.3547 86.6199 31.1926C86.4484 31.0273 86.3627 30.8309 86.3627 30.6033C86.3627 30.3725 86.4484 30.1761 86.6199 30.014C86.7945 29.8487 87.0034 29.7661 87.2466 29.7661C87.4898 29.7661 87.6972 29.8487 87.8686 30.014C88.0432 30.1761 88.1305 30.3725 88.1305 30.6033C88.1305 30.8309 88.0432 31.0273 87.8686 31.1926C87.6972 31.3547 87.4898 31.4358 87.2466 31.4358ZM92.846 39.8728C92.1725 39.8728 91.5848 39.7185 91.0828 39.4098C90.5808 39.1011 90.1911 38.6693 89.9136 38.1143C89.6361 37.5593 89.4974 36.9108 89.4974 36.1687C89.4974 35.4236 89.6361 34.7719 89.9136 34.2138C90.1911 33.6557 90.5808 33.2223 91.0828 32.9136C91.5848 32.605 92.1725 32.4506 92.846 32.4506C93.5195 32.4506 94.1072 32.605 94.6092 32.9136C95.1112 33.2223 95.5009 33.6557 95.7784 34.2138C96.0559 34.7719 96.1946 35.4236 96.1946 36.1687C96.1946 36.9108 96.0559 37.5593 95.7784 38.1143C95.5009 38.6693 95.1112 39.1011 94.6092 39.4098C94.1072 39.7185 93.5195 39.8728 92.846 39.8728ZM92.8507 38.6989C93.2872 38.6989 93.6489 38.5836 93.9357 38.3528C94.2226 38.1221 94.4346 37.815 94.5718 37.4315C94.7121 37.048 94.7822 36.6255 94.7822 36.1641C94.7822 35.7057 94.7121 35.2848 94.5718 34.9013C94.4346 34.5147 94.2226 34.2045 93.9357 33.9706C93.6489 33.7368 93.2872 33.6199 92.8507 33.6199C92.4111 33.6199 92.0463 33.7368 91.7563 33.9706C91.4694 34.2045 91.2559 34.5147 91.1156 34.9013C90.9784 35.2848 90.9098 35.7057 90.9098 36.1641C90.9098 36.6255 90.9784 37.048 91.1156 37.4315C91.2559 37.815 91.4694 38.1221 91.7563 38.3528C92.0463 38.5836 92.4111 38.6989 92.8507 38.6989ZM99.1539 35.4625V39.7278H97.7555V32.5442H99.0978V33.7134H99.1867C99.3519 33.333 99.6107 33.0274 99.963 32.7967C100.318 32.566 100.766 32.4506 101.305 32.4506C101.795 32.4506 102.224 32.5535 102.591 32.7593C102.959 32.962 103.245 33.2644 103.447 33.6666C103.65 34.0688 103.751 34.5661 103.751 35.1585V39.7278H102.353V35.3269C102.353 34.8062 102.217 34.3993 101.946 34.1062C101.675 33.81 101.302 33.6619 100.828 33.6619C100.504 33.6619 100.216 33.7321 99.963 33.8724C99.7136 34.0127 99.5156 34.2185 99.3691 34.4897C99.2256 34.7579 99.1539 35.0822 99.1539 35.4625ZM114.495 34.298L113.228 34.5225C113.175 34.3604 113.091 34.206 112.975 34.0595C112.863 33.9129 112.71 33.7929 112.517 33.6994C112.324 33.6058 112.082 33.5591 111.792 33.5591C111.396 33.5591 111.066 33.6479 110.801 33.8256C110.535 34.0002 110.403 34.2263 110.403 34.5038C110.403 34.7439 110.492 34.9372 110.67 35.0837C110.847 35.2303 111.134 35.3503 111.53 35.4438L112.671 35.7057C113.332 35.8585 113.825 36.0939 114.149 36.4119C114.473 36.73 114.636 37.1431 114.636 37.6513C114.636 38.0816 114.511 38.4651 114.261 38.8018C114.015 39.1354 113.671 39.3973 113.228 39.5875C112.788 39.7777 112.278 39.8728 111.698 39.8728C110.894 39.8728 110.238 39.7013 109.73 39.3584C109.221 39.0123 108.909 38.5212 108.794 37.8852L110.146 37.6794C110.23 38.0317 110.403 38.2983 110.665 38.4791C110.927 38.6568 111.268 38.7457 111.689 38.7457C112.147 38.7457 112.514 38.6506 112.788 38.4604C113.063 38.2671 113.2 38.0317 113.2 37.7542C113.2 37.5297 113.116 37.3411 112.947 37.1883C112.782 37.0355 112.528 36.9202 112.185 36.8422L110.969 36.5756C110.299 36.4229 109.803 36.1797 109.482 35.846C109.164 35.5124 109.005 35.0899 109.005 34.5786C109.005 34.1546 109.123 33.7835 109.36 33.4655C109.597 33.1475 109.924 32.8996 110.342 32.7219C110.76 32.5411 111.239 32.4506 111.778 32.4506C112.554 32.4506 113.165 32.619 113.611 32.9557C114.057 33.2894 114.352 33.7368 114.495 34.298ZM117.571 35.4625V39.7278H116.173V30.1496H117.553V33.7134H117.642C117.81 33.3268 118.067 33.0197 118.413 32.792C118.759 32.5644 119.211 32.4506 119.77 32.4506C120.262 32.4506 120.692 32.552 121.06 32.7546C121.431 32.9573 121.718 33.2597 121.921 33.6619C122.127 34.061 122.23 34.5599 122.23 35.1585V39.7278H120.831V35.3269C120.831 34.8 120.696 34.3915 120.424 34.1016C120.153 33.8085 119.776 33.6619 119.293 33.6619C118.962 33.6619 118.666 33.7321 118.404 33.8724C118.145 34.0127 117.941 34.2185 117.791 34.4897C117.645 34.7579 117.571 35.0822 117.571 35.4625ZM126.186 39.8869C125.731 39.8869 125.319 39.8027 124.952 39.6343C124.584 39.4628 124.292 39.2149 124.077 38.8907C123.865 38.5664 123.759 38.1689 123.759 37.6981C123.759 37.2928 123.837 36.9591 123.993 36.6972C124.149 36.4353 124.359 36.228 124.624 36.0752C124.889 35.9224 125.185 35.8071 125.513 35.7291C125.84 35.6512 126.174 35.5919 126.514 35.5514C126.944 35.5015 127.293 35.461 127.561 35.4298C127.829 35.3955 128.024 35.3409 128.146 35.2661C128.267 35.1913 128.328 35.0697 128.328 34.9013V34.8686C128.328 34.4601 128.213 34.1437 127.982 33.9192C127.755 33.6947 127.415 33.5824 126.963 33.5824C126.492 33.5824 126.121 33.6869 125.85 33.8958C125.581 34.1016 125.396 34.3307 125.293 34.5833L123.979 34.284C124.135 33.8475 124.362 33.4951 124.662 33.227C124.964 32.9557 125.312 32.7593 125.705 32.6377C126.097 32.513 126.511 32.4506 126.944 32.4506C127.231 32.4506 127.535 32.4849 127.856 32.5535C128.18 32.619 128.483 32.7406 128.763 32.9183C129.047 33.096 129.279 33.3502 129.46 33.6806C129.641 34.008 129.731 34.4336 129.731 34.9574V39.7278H128.366V38.7457H128.31C128.219 38.9265 128.083 39.1043 127.903 39.2789C127.722 39.4535 127.49 39.5985 127.206 39.7138C126.922 39.8292 126.582 39.8869 126.186 39.8869ZM126.49 38.7644C126.877 38.7644 127.207 38.688 127.482 38.5352C127.759 38.3825 127.97 38.1829 128.113 37.9366C128.26 37.6872 128.333 37.4206 128.333 37.1369V36.2108C128.283 36.2607 128.186 36.3075 128.043 36.3511C127.903 36.3917 127.742 36.4275 127.561 36.4587C127.38 36.4868 127.204 36.5133 127.033 36.5382C126.861 36.56 126.718 36.5788 126.602 36.5943C126.331 36.6286 126.083 36.6863 125.859 36.7674C125.637 36.8485 125.46 36.9654 125.326 37.1182C125.195 37.2678 125.129 37.4674 125.129 37.7168C125.129 38.0629 125.257 38.3248 125.513 38.5025C125.768 38.6771 126.094 38.7644 126.49 38.7644ZM131.594 39.7278V32.5442H132.945V33.6853H133.02C133.151 33.2987 133.382 32.9947 133.713 32.7733C134.046 32.5488 134.423 32.4366 134.844 32.4366C134.932 32.4366 135.035 32.4397 135.153 32.446C135.275 32.4522 135.37 32.46 135.438 32.4693V33.8069C135.382 33.7913 135.282 33.7742 135.139 33.7555C134.996 33.7337 134.852 33.7227 134.709 33.7227C134.378 33.7227 134.084 33.7929 133.825 33.9332C133.569 34.0704 133.366 34.2621 133.217 34.5085C133.067 34.7517 132.992 35.0291 132.992 35.3409V39.7278H131.594ZM136.648 39.7278V32.5442H138.047V39.7278H136.648ZM137.355 31.4358C137.111 31.4358 136.903 31.3547 136.728 31.1926C136.556 31.0273 136.471 30.8309 136.471 30.6033C136.471 30.3725 136.556 30.1761 136.728 30.014C136.903 29.8487 137.111 29.7661 137.355 29.7661C137.598 29.7661 137.805 29.8487 137.977 30.014C138.151 30.1761 138.239 30.3725 138.239 30.6033C138.239 30.8309 138.151 31.0273 137.977 31.1926C137.805 31.3547 137.598 31.4358 137.355 31.4358ZM141.326 35.4625V39.7278H139.928V32.5442H141.27V33.7134H141.359C141.524 33.333 141.783 33.0274 142.136 32.7967C142.491 32.566 142.938 32.4506 143.478 32.4506C143.967 32.4506 144.396 32.5535 144.764 32.7593C145.132 32.962 145.417 33.2644 145.62 33.6666C145.822 34.0688 145.924 34.5661 145.924 35.1585V39.7278H144.525V35.3269C144.525 34.8062 144.39 34.3993 144.119 34.1062C143.847 33.81 143.475 33.6619 143.001 33.6619C142.677 33.6619 142.388 33.7321 142.136 33.8724C141.886 34.0127 141.688 34.2185 141.542 34.4897C141.398 34.7579 141.326 35.0822 141.326 35.4625ZM150.811 42.5714C150.241 42.5714 149.749 42.4966 149.338 42.3469C148.929 42.1972 148.596 41.9992 148.337 41.7529C148.078 41.5066 147.885 41.2369 147.757 40.9438L148.959 40.4481C149.043 40.5853 149.156 40.7303 149.296 40.883C149.439 41.0389 149.633 41.1714 149.876 41.2806C150.122 41.3897 150.439 41.4443 150.825 41.4443C151.355 41.4443 151.793 41.3149 152.139 41.0561C152.485 40.8004 152.659 40.392 152.659 39.8307V38.4183H152.57C152.485 38.5711 152.364 38.741 152.205 38.9281C152.049 39.1152 151.834 39.2773 151.559 39.4145C151.285 39.5517 150.928 39.6203 150.488 39.6203C149.921 39.6203 149.41 39.4878 148.954 39.2227C148.502 38.9546 148.144 38.5602 147.879 38.0395C147.617 37.5157 147.486 36.8718 147.486 36.1079C147.486 35.3441 147.615 34.6893 147.874 34.1437C148.136 33.598 148.495 33.1802 148.95 32.8903C149.405 32.5972 149.921 32.4506 150.498 32.4506C150.944 32.4506 151.304 32.5255 151.578 32.6751C151.853 32.8217 152.066 32.9931 152.219 33.1896C152.375 33.386 152.495 33.5591 152.579 33.7087H152.682V32.5442H154.052V39.8869C154.052 40.5042 153.909 41.0109 153.622 41.4068C153.335 41.8028 152.947 42.0959 152.457 42.2861C151.971 42.4763 151.422 42.5714 150.811 42.5714ZM150.797 38.4604C151.199 38.4604 151.539 38.3669 151.817 38.1798C152.097 37.9896 152.309 37.7183 152.453 37.366C152.599 37.0106 152.673 36.585 152.673 36.0892C152.673 35.606 152.601 35.1804 152.457 34.8125C152.314 34.4445 152.104 34.1577 151.826 33.9519C151.549 33.743 151.206 33.6386 150.797 33.6386C150.376 33.6386 150.025 33.7477 149.745 33.9659C149.464 34.1811 149.252 34.4742 149.109 34.8452C148.968 35.2162 148.898 35.6309 148.898 36.0892C148.898 36.56 148.97 36.9732 149.113 37.3286C149.257 37.6841 149.469 37.9615 149.749 38.1611C150.033 38.3606 150.382 38.4604 150.797 38.4604Z" fill="#1C242D"/>
<rect x="20.7182" y="18.0619" width="148.172" height="33.332" rx="9.63879" stroke="#BFE4FF" stroke-width="2.12379" shape-rendering="crispEdges"/>
</g>
<defs>
<filter id="filter0_d_1_2484" x="0.39333" y="0.947541" width="188.822" height="73.9817" filterUnits="userSpaceOnUse" color-interpolation-filters="sRGB">
<feFlood flood-opacity="0" result="BackgroundImageFix"/>
<feColorMatrix in="SourceAlpha" type="matrix" values="0 0 0 0 0 0 0 0 0 0 0 0 0 0 0 0 0 0 127 0" result="hardAlpha"/>
<feOffset dy="3.21049"/>
<feGaussianBlur stdDeviation="9.63148"/>
<feComposite in2="hardAlpha" operator="out"/>
<feColorMatrix type="matrix" values="0 0 0 0 0 0 0 0 0 0.635294 0 0 0 0 0.996078 0 0 0 0.1 0"/>
<feBlend mode="normal" in2="BackgroundImageFix" result="effect1_dropShadow_1_2484"/>
<feBlend mode="normal" in="SourceGraphic" in2="effect1_dropShadow_1_2484" result="shape"/>
</filter>
<clipPath id="clip0_1_2484">
<rect width="12.157" height="12.157" fill="white" transform="translate(34.2481 28.6494)"/>
</clipPath>
</defs>
</svg>
