<svg width="184" height="75" viewBox="0 0 184 75" fill="none" xmlns="http://www.w3.org/2000/svg">
<g filter="url(#filter0_d_1_2477)">
<rect x="19.5799" y="17" width="145.076" height="35.4558" rx="10.7007" fill="white" shape-rendering="crispEdges"/>
<g clip-path="url(#clip0_1_2477)">
<path d="M44.012 28.5782V31.6532H47.087" stroke="#4E28E5" stroke-width="1.22999" stroke-linecap="round" stroke-linejoin="round"/>
<path d="M47.0864 31.0382V35.0357C47.0864 35.5277 46.6559 35.9582 46.1639 35.9582H41.859C41.367 35.9582 40.9365 35.5277 40.9365 35.0357V29.5007C40.9365 29.0087 41.367 28.5782 41.859 28.5782H44.6264L47.0864 31.0382Z" stroke="#4E28E5" stroke-width="1.22999" stroke-linecap="round" stroke-linejoin="round"/>
<path d="M38.4775 32.2673V37.6793C38.4775 37.8638 38.6005 38.0483 38.7235 38.1713C38.8465 38.2943 39.031 38.4173 39.2155 38.4173H43.3975" stroke="#4E28E5" stroke-width="1.22999" stroke-linecap="round" stroke-linejoin="round"/>
<path d="M36.0171 34.7278V40.1398C36.0171 40.3242 36.1401 40.5087 36.2631 40.6317C36.3861 40.7547 36.5706 40.8777 36.7551 40.8777H40.937" stroke="#4E28E5" stroke-width="1.22999" stroke-linecap="round" stroke-linejoin="round"/>
</g>
<path d="M54.1167 39.7279V30.1497H55.5619V34.3121H60.337V30.1497H61.7868V39.7279H60.337V35.5515H55.5619V39.7279H54.1167ZM66.8752 39.8729C66.1675 39.8729 65.5579 39.7217 65.0466 39.4192C64.5383 39.1137 64.1455 38.685 63.868 38.1331C63.5936 37.5781 63.4564 36.928 63.4564 36.1828C63.4564 35.447 63.5936 34.7985 63.868 34.2373C64.1455 33.676 64.5321 33.238 65.0279 32.9231C65.5267 32.6081 66.1098 32.4507 66.777 32.4507C67.1823 32.4507 67.5752 32.5177 67.9556 32.6518C68.336 32.7859 68.6774 32.9963 68.9798 33.2832C69.2823 33.57 69.5208 33.9426 69.6954 34.4009C69.87 34.8562 69.9573 35.4096 69.9573 36.0612V36.557H64.2468V35.5094H68.587C68.587 35.1415 68.5121 34.8156 68.3625 34.5319C68.2128 34.2451 68.0023 34.019 67.7311 33.8538C67.4629 33.6885 67.148 33.6059 66.7864 33.6059C66.3935 33.6059 66.0505 33.7025 65.7575 33.8958C65.4675 34.086 65.243 34.3355 65.084 34.6441C64.9281 34.9497 64.8501 35.2818 64.8501 35.6403V36.4588C64.8501 36.9389 64.9343 37.3474 65.1027 37.6841C65.2742 38.0208 65.5127 38.2781 65.8182 38.4558C66.1238 38.6304 66.4808 38.7177 66.8893 38.7177C67.1543 38.7177 67.3959 38.6803 67.6142 38.6055C67.8324 38.5275 68.0211 38.4121 68.1801 38.2594C68.3391 38.1066 68.4607 37.918 68.5449 37.6935L69.8684 37.932C69.7624 38.3217 69.5722 38.6631 69.2978 38.9562C69.0266 39.2462 68.6852 39.4722 68.2736 39.6344C67.8652 39.7934 67.399 39.8729 66.8752 39.8729ZM73.5994 39.8869C73.1442 39.8869 72.7326 39.8027 72.3647 39.6344C71.9968 39.4629 71.7053 39.215 71.4901 38.8907C71.2781 38.5665 71.1721 38.1689 71.1721 37.6981C71.1721 37.2928 71.25 36.9592 71.4059 36.6973C71.5618 36.4354 71.7723 36.228 72.0373 36.0753C72.3023 35.9225 72.5985 35.8071 72.9259 35.7292C73.2533 35.6512 73.5869 35.592 73.9268 35.5515C74.357 35.5016 74.7063 35.461 74.9744 35.4299C75.2425 35.3956 75.4374 35.341 75.559 35.2662C75.6806 35.1913 75.7414 35.0697 75.7414 34.9014V34.8686C75.7414 34.4602 75.626 34.1437 75.3953 33.9192C75.1677 33.6947 74.8279 33.5825 74.3758 33.5825C73.9049 33.5825 73.5339 33.6869 73.2627 33.8958C72.9945 34.1016 72.809 34.3308 72.7061 34.5833L71.3919 34.284C71.5478 33.8475 71.7754 33.4952 72.0747 33.2271C72.3772 32.9558 72.7248 32.7594 73.1177 32.6378C73.5105 32.5131 73.9237 32.4507 74.357 32.4507C74.6439 32.4507 74.9479 32.485 75.269 32.5536C75.5933 32.6191 75.8957 32.7407 76.1763 32.9184C76.4601 33.0961 76.6924 33.3502 76.8732 33.6807C77.054 34.0081 77.1445 34.4337 77.1445 34.9575V39.7279H75.7788V38.7458H75.7227C75.6323 38.9266 75.4966 39.1043 75.3158 39.2789C75.135 39.4535 74.9027 39.5985 74.619 39.7139C74.3352 39.8292 73.9954 39.8869 73.5994 39.8869ZM73.9034 38.7645C74.29 38.7645 74.6205 38.6881 74.8949 38.5353C75.1724 38.3825 75.3828 38.183 75.5263 37.9367C75.6728 37.6872 75.7461 37.4206 75.7461 37.1369V36.2109C75.6962 36.2608 75.5995 36.3076 75.4561 36.3512C75.3158 36.3917 75.1552 36.4276 74.9744 36.4588C74.7936 36.4868 74.6174 36.5133 74.4459 36.5383C74.2744 36.5601 74.131 36.5788 74.0156 36.5944C73.7444 36.6287 73.4965 36.6864 73.272 36.7674C73.0506 36.8485 72.8729 36.9654 72.7388 37.1182C72.6079 37.2679 72.5424 37.4674 72.5424 37.7169C72.5424 38.0629 72.6703 38.3248 72.9259 38.5026C73.1816 38.6772 73.5074 38.7645 73.9034 38.7645ZM80.4054 30.1497V39.7279H79.007V30.1497H80.4054ZM85.64 32.5442V33.6667H81.7161V32.5442H85.64ZM82.7684 30.8231H84.1668V37.6186C84.1668 37.8899 84.2073 38.0941 84.2884 38.2313C84.3694 38.3654 84.4739 38.4574 84.6017 38.5072C84.7327 38.554 84.8745 38.5774 85.0273 38.5774C85.1396 38.5774 85.2378 38.5696 85.322 38.554C85.4062 38.5384 85.4716 38.5259 85.5184 38.5166L85.771 39.6718C85.6899 39.703 85.5745 39.7341 85.4249 39.7653C85.2752 39.7996 85.0881 39.8183 84.8636 39.8214C84.4957 39.8277 84.1528 39.7622 83.8347 39.625C83.5167 39.4878 83.2595 39.2758 83.063 38.989C82.8666 38.7021 82.7684 38.342 82.7684 37.9086V30.8231ZM88.7396 35.4626V39.7279H87.3412V30.1497H88.7209V33.7134H88.8097C88.9781 33.3268 89.2353 33.0197 89.5814 32.7921C89.9275 32.5645 90.3796 32.4507 90.9377 32.4507C91.4304 32.4507 91.8606 32.552 92.2285 32.7547C92.5996 32.9574 92.8864 33.2598 93.0891 33.662C93.2949 34.0611 93.3978 34.56 93.3978 35.1586V39.7279H91.9994V35.327C91.9994 34.8 91.8637 34.3916 91.5925 34.1016C91.3212 33.8085 90.944 33.662 90.4607 33.662C90.1302 33.662 89.834 33.7322 89.5721 33.8725C89.3133 34.0128 89.1091 34.2186 88.9594 34.4898C88.8129 34.758 88.7396 35.0822 88.7396 35.4626ZM98.8615 39.7279V30.1497H102.276C103.018 30.1497 103.633 30.2775 104.123 30.5332C104.616 30.7888 104.984 31.1427 105.227 31.5948C105.47 32.0438 105.592 32.5629 105.592 33.1522C105.592 33.7384 105.468 34.2544 105.222 34.7003C104.979 35.143 104.611 35.4875 104.118 35.7339C103.629 35.9802 103.013 36.1033 102.271 36.1033H99.6846V34.8593H102.14C102.608 34.8593 102.988 34.7922 103.281 34.6582C103.577 34.5241 103.794 34.3292 103.931 34.0736C104.068 33.8179 104.137 33.5108 104.137 33.1522C104.137 32.7905 104.067 32.4772 103.927 32.2122C103.789 31.9472 103.573 31.7445 103.276 31.6042C102.983 31.4608 102.598 31.389 102.121 31.389H100.307V39.7279H98.8615ZM103.59 35.4065L105.956 39.7279H104.31L101.99 35.4065H103.59ZM110.244 39.8729C109.536 39.8729 108.927 39.7217 108.415 39.4192C107.907 39.1137 107.514 38.685 107.237 38.1331C106.962 37.5781 106.825 36.928 106.825 36.1828C106.825 35.447 106.962 34.7985 107.237 34.2373C107.514 33.676 107.901 33.238 108.396 32.9231C108.895 32.6081 109.478 32.4507 110.146 32.4507C110.551 32.4507 110.944 32.5177 111.324 32.6518C111.705 32.7859 112.046 32.9963 112.348 33.2832C112.651 33.57 112.889 33.9426 113.064 34.4009C113.239 34.8562 113.326 35.4096 113.326 36.0612V36.557H107.615V35.5094H111.956C111.956 35.1415 111.881 34.8156 111.731 34.5319C111.581 34.2451 111.371 34.019 111.1 33.8538C110.832 33.6885 110.517 33.6059 110.155 33.6059C109.762 33.6059 109.419 33.7025 109.126 33.8958C108.836 34.086 108.612 34.3355 108.453 34.6441C108.297 34.9497 108.219 35.2818 108.219 35.6403V36.4588C108.219 36.9389 108.303 37.3474 108.471 37.6841C108.643 38.0208 108.881 38.2781 109.187 38.4558C109.492 38.6304 109.849 38.7177 110.258 38.7177C110.523 38.7177 110.765 38.6803 110.983 38.6055C111.201 38.5275 111.39 38.4121 111.549 38.2594C111.708 38.1066 111.829 37.918 111.913 37.6935L113.237 37.932C113.131 38.3217 112.941 38.6631 112.666 38.9562C112.395 39.2462 112.054 39.4722 111.642 39.6344C111.234 39.7934 110.768 39.8729 110.244 39.8729ZM117.903 39.8729C117.208 39.8729 116.609 39.7154 116.107 39.4005C115.609 39.0825 115.225 38.6444 114.957 38.0863C114.689 37.5282 114.555 36.889 114.555 36.1688C114.555 35.4392 114.692 34.7954 114.966 34.2373C115.241 33.676 115.627 33.238 116.126 32.9231C116.625 32.6081 117.213 32.4507 117.889 32.4507C118.435 32.4507 118.921 32.552 119.349 32.7547C119.776 32.9542 120.12 33.2348 120.382 33.5965C120.647 33.9582 120.805 34.3807 120.854 34.864H119.494C119.419 34.5272 119.247 34.2373 118.979 33.9941C118.714 33.7509 118.359 33.6293 117.913 33.6293C117.523 33.6293 117.182 33.7322 116.889 33.9379C116.599 34.1406 116.372 34.4306 116.21 34.8078C116.048 35.182 115.967 35.6247 115.967 36.1361C115.967 36.6599 116.047 37.112 116.206 37.4924C116.365 37.8727 116.589 38.1674 116.879 38.3763C117.172 38.5852 117.517 38.6896 117.913 38.6896C118.178 38.6896 118.418 38.6413 118.633 38.5447C118.851 38.4449 119.034 38.303 119.18 38.1191C119.33 37.9351 119.434 37.7137 119.494 37.4549H120.854C120.805 37.9195 120.653 38.3342 120.401 38.699C120.148 39.0638 119.81 39.3506 119.386 39.5595C118.965 39.7684 118.471 39.8729 117.903 39.8729ZM125.376 39.8729C124.702 39.8729 124.115 39.7186 123.613 39.4099C123.111 39.1012 122.721 38.6694 122.443 38.1144C122.166 37.5594 122.027 36.9109 122.027 36.1688C122.027 35.4236 122.166 34.772 122.443 34.2139C122.721 33.6558 123.111 33.2224 123.613 32.9137C124.115 32.605 124.702 32.4507 125.376 32.4507C126.049 32.4507 126.637 32.605 127.139 32.9137C127.641 33.2224 128.031 33.6558 128.308 34.2139C128.586 34.772 128.725 35.4236 128.725 36.1688C128.725 36.9109 128.586 37.5594 128.308 38.1144C128.031 38.6694 127.641 39.1012 127.139 39.4099C126.637 39.7186 126.049 39.8729 125.376 39.8729ZM125.381 38.699C125.817 38.699 126.179 38.5836 126.466 38.3529C126.752 38.1222 126.964 37.8151 127.102 37.4316C127.242 37.0481 127.312 36.6256 127.312 36.1641C127.312 35.7058 127.242 35.2849 127.102 34.9014C126.964 34.5148 126.752 34.2045 126.466 33.9707C126.179 33.7368 125.817 33.6199 125.381 33.6199C124.941 33.6199 124.576 33.7368 124.286 33.9707C123.999 34.2045 123.786 34.5148 123.645 34.9014C123.508 35.2849 123.44 35.7058 123.44 36.1641C123.44 36.6256 123.508 37.0481 123.645 37.4316C123.786 37.8151 123.999 38.1222 124.286 38.3529C124.576 38.5836 124.941 38.699 125.381 38.699ZM130.285 39.7279V32.5442H131.637V33.6854H131.712C131.843 33.2988 132.074 32.9948 132.404 32.7734C132.738 32.5489 133.115 32.4367 133.536 32.4367C133.623 32.4367 133.726 32.4398 133.845 32.446C133.966 32.4523 134.061 32.46 134.13 32.4694V33.807C134.074 33.7914 133.974 33.7742 133.83 33.7555C133.687 33.7337 133.544 33.7228 133.4 33.7228C133.07 33.7228 132.775 33.793 132.516 33.9333C132.261 34.0705 132.058 34.2622 131.908 34.5085C131.759 34.7517 131.684 35.0292 131.684 35.341V39.7279H130.285ZM137.772 39.8682C137.192 39.8682 136.674 39.7201 136.219 39.4239C135.767 39.1246 135.412 38.699 135.153 38.1471C134.897 37.5921 134.769 36.9265 134.769 36.1501C134.769 35.3737 134.899 34.7096 135.158 34.1578C135.419 33.6059 135.778 33.1834 136.233 32.8903C136.688 32.5972 137.204 32.4507 137.781 32.4507C138.227 32.4507 138.586 32.5255 138.857 32.6752C139.131 32.8217 139.343 32.9932 139.493 33.1896C139.646 33.3861 139.764 33.5591 139.848 33.7088H139.933V30.1497H141.331V39.7279H139.965V38.6101H139.848C139.764 38.7629 139.643 38.9375 139.484 39.1339C139.328 39.3304 139.113 39.5019 138.838 39.6484C138.564 39.7949 138.208 39.8682 137.772 39.8682ZM138.081 38.6756C138.483 38.6756 138.823 38.5696 139.1 38.3576C139.381 38.1424 139.593 37.8447 139.736 37.4643C139.883 37.0839 139.956 36.6412 139.956 36.1361C139.956 35.6372 139.884 35.2007 139.741 34.8265C139.597 34.4524 139.387 34.1609 139.109 33.952C138.832 33.7431 138.489 33.6386 138.081 33.6386C137.66 33.6386 137.309 33.7477 137.028 33.966C136.748 34.1843 136.536 34.482 136.392 34.8593C136.252 35.2365 136.182 35.6621 136.182 36.1361C136.182 36.6162 136.253 37.0481 136.397 37.4316C136.54 37.8151 136.752 38.1191 137.033 38.3436C137.317 38.5649 137.666 38.6756 138.081 38.6756ZM148.71 34.2981L147.443 34.5225C147.39 34.3604 147.305 34.2061 147.19 34.0595C147.078 33.913 146.925 33.793 146.732 33.6994C146.538 33.6059 146.297 33.5591 146.007 33.5591C145.611 33.5591 145.28 33.648 145.015 33.8257C144.75 34.0003 144.618 34.2263 144.618 34.5038C144.618 34.7439 144.707 34.9372 144.884 35.0838C145.062 35.2303 145.349 35.3504 145.745 35.4439L146.886 35.7058C147.547 35.8586 148.04 36.094 148.364 36.412C148.688 36.73 148.85 37.1432 148.85 37.6514C148.85 38.0816 148.726 38.4652 148.476 38.8019C148.23 39.1355 147.885 39.3974 147.443 39.5876C147.003 39.7778 146.493 39.8729 145.913 39.8729C145.109 39.8729 144.452 39.7014 143.944 39.3584C143.436 39.0123 143.124 38.5213 143.009 37.8852L144.36 37.6794C144.445 38.0318 144.618 38.2983 144.88 38.4792C145.141 38.6569 145.483 38.7458 145.904 38.7458C146.362 38.7458 146.729 38.6507 147.003 38.4605C147.277 38.2672 147.414 38.0318 147.414 37.7543C147.414 37.5298 147.33 37.3411 147.162 37.1884C146.997 37.0356 146.743 36.9202 146.4 36.8423L145.184 36.5757C144.513 36.4229 144.017 36.1797 143.696 35.8461C143.378 35.5125 143.219 35.09 143.219 34.5787C143.219 34.1546 143.338 33.7836 143.575 33.4656C143.812 33.1475 144.139 32.8997 144.557 32.722C144.975 32.5411 145.453 32.4507 145.993 32.4507C146.769 32.4507 147.38 32.6191 147.826 32.9558C148.272 33.2894 148.567 33.7368 148.71 34.2981Z" fill="#1C242D"/>
<rect x="20.6418" y="18.0619" width="142.953" height="33.332" rx="9.63879" stroke="#BFE4FF" stroke-width="2.12379" shape-rendering="crispEdges"/>
</g>
<defs>
<filter id="filter0_d_1_2477" x="0.316959" y="0.947541" width="183.602" height="73.9817" filterUnits="userSpaceOnUse" color-interpolation-filters="sRGB">
<feFlood flood-opacity="0" result="BackgroundImageFix"/>
<feColorMatrix in="SourceAlpha" type="matrix" values="0 0 0 0 0 0 0 0 0 0 0 0 0 0 0 0 0 0 127 0" result="hardAlpha"/>
<feOffset dy="3.21049"/>
<feGaussianBlur stdDeviation="9.63148"/>
<feComposite in2="hardAlpha" operator="out"/>
<feColorMatrix type="matrix" values="0 0 0 0 0 0 0 0 0 0.635294 0 0 0 0 0.996078 0 0 0 0.1 0"/>
<feBlend mode="normal" in2="BackgroundImageFix" result="effect1_dropShadow_1_2477"/>
<feBlend mode="normal" in="SourceGraphic" in2="effect1_dropShadow_1_2477" result="shape"/>
</filter>
<clipPath id="clip0_1_2477">
<rect width="14.7599" height="14.7599" fill="white" transform="translate(34.1718 27.348)"/>
</clipPath>
</defs>
</svg>
