<svg width="160" height="75" viewBox="0 0 160 75" fill="none" xmlns="http://www.w3.org/2000/svg">
<g filter="url(#filter0_d_1_3830)">
<rect x="19.952" y="17" width="120.58" height="35.4558" rx="10.7007" fill="white" shape-rendering="crispEdges"/>
<path d="M36.837 39.3142H46.0067C46.3107 39.3142 46.6023 39.1934 46.8172 38.9785C47.0322 38.7635 47.153 38.472 47.153 38.168V32.4369C47.153 32.1329 47.0322 31.8414 46.8172 31.6264C46.6023 31.4114 46.3107 31.2907 46.0067 31.2907H41.462C41.2732 31.2897 41.0876 31.2421 40.9216 31.1521C40.7556 31.0621 40.6145 30.9326 40.5106 30.7749L40.0407 30.0871C39.9369 29.9295 39.7957 29.7999 39.6297 29.7099C39.4637 29.6199 39.2781 29.5723 39.0893 29.5714H36.837C36.533 29.5714 36.2415 29.6921 36.0265 29.9071C35.8116 30.122 35.6908 30.4136 35.6908 30.7176V38.168C35.6908 38.7984 36.2066 39.3142 36.837 39.3142Z" stroke="#1895FF" stroke-width="1.14622" stroke-linecap="round" stroke-linejoin="round"/>
<path d="M35.6908 33.5856H47.153" stroke="#1895FF" stroke-width="1.14622" stroke-linecap="round" stroke-linejoin="round"/>
<path d="M58.0931 39.7279H54.9923V30.1497H58.1913C59.1298 30.1497 59.9358 30.3414 60.6092 30.7249C61.2827 31.1053 61.7987 31.6525 62.1573 32.3665C62.5189 33.0774 62.6998 33.9301 62.6998 34.9248C62.6998 35.9225 62.5174 36.7799 62.1526 37.497C61.7909 38.2142 61.2671 38.766 60.5812 39.1527C59.8952 39.5362 59.0659 39.7279 58.0931 39.7279ZM56.4375 38.4652H58.0136C58.7431 38.4652 59.3496 38.328 59.8329 38.0536C60.3161 37.7761 60.6778 37.3754 60.9179 36.8516C61.158 36.3247 61.278 35.6824 61.278 34.9248C61.278 34.1733 61.158 33.5357 60.9179 33.0119C60.6809 32.4881 60.327 32.0906 59.8562 31.8193C59.3854 31.5481 58.8008 31.4124 58.1024 31.4124H56.4375V38.4652ZM67.4106 39.8729C66.7371 39.8729 66.1494 39.7186 65.6474 39.4099C65.1454 39.1012 64.7557 38.6694 64.4782 38.1144C64.2007 37.5594 64.0619 36.9109 64.0619 36.1688C64.0619 35.4236 64.2007 34.772 64.4782 34.2139C64.7557 33.6558 65.1454 33.2224 65.6474 32.9137C66.1494 32.605 66.7371 32.4507 67.4106 32.4507C68.084 32.4507 68.6718 32.605 69.1737 32.9137C69.6757 33.2224 70.0655 33.6558 70.343 34.2139C70.6205 34.772 70.7592 35.4236 70.7592 36.1688C70.7592 36.9109 70.6205 37.5594 70.343 38.1144C70.0655 38.6694 69.6757 39.1012 69.1737 39.4099C68.6718 39.7186 68.084 39.8729 67.4106 39.8729ZM67.4152 38.699C67.8517 38.699 68.2134 38.5836 68.5003 38.3529C68.7871 38.1222 68.9991 37.8151 69.1363 37.4316C69.2766 37.0481 69.3468 36.6256 69.3468 36.1641C69.3468 35.7058 69.2766 35.2849 69.1363 34.9014C68.9991 34.5148 68.7871 34.2045 68.5003 33.9707C68.2134 33.7368 67.8517 33.6199 67.4152 33.6199C66.9756 33.6199 66.6108 33.7368 66.3208 33.9707C66.034 34.2045 65.8204 34.5148 65.6801 34.9014C65.5429 35.2849 65.4743 35.7058 65.4743 36.1641C65.4743 36.6256 65.5429 37.0481 65.6801 37.4316C65.8204 37.8151 66.034 38.1222 66.3208 38.3529C66.6108 38.5836 66.9756 38.699 67.4152 38.699ZM75.346 39.8729C74.6507 39.8729 74.0521 39.7154 73.5501 39.4005C73.0513 39.0825 72.6678 38.6444 72.3996 38.0863C72.1315 37.5282 71.9974 36.889 71.9974 36.1688C71.9974 35.4392 72.1346 34.7954 72.409 34.2373C72.6833 33.676 73.07 33.238 73.5688 32.9231C74.0677 32.6081 74.6554 32.4507 75.332 32.4507C75.8776 32.4507 76.364 32.552 76.7912 32.7547C77.2183 32.9542 77.5629 33.2348 77.8248 33.5965C78.0898 33.9582 78.2473 34.3807 78.2971 34.864H76.9362C76.8613 34.5272 76.6899 34.2373 76.4217 33.9941C76.1567 33.7509 75.8013 33.6293 75.3554 33.6293C74.9657 33.6293 74.6242 33.7322 74.3312 33.9379C74.0412 34.1406 73.8151 34.4306 73.653 34.8078C73.4909 35.182 73.4098 35.6247 73.4098 36.1361C73.4098 36.6599 73.4893 37.112 73.6483 37.4924C73.8074 37.8727 74.0318 38.1674 74.3218 38.3763C74.6149 38.5852 74.9594 38.6896 75.3554 38.6896C75.6204 38.6896 75.8605 38.6413 76.0756 38.5447C76.2939 38.4449 76.4763 38.303 76.6228 38.1191C76.7725 37.9351 76.8769 37.7137 76.9362 37.4549H78.2971C78.2473 37.9195 78.096 38.3342 77.8435 38.699C77.5909 39.0638 77.2526 39.3506 76.8286 39.5595C76.4077 39.7684 75.9135 39.8729 75.346 39.8729ZM84.3432 36.7487V32.5442H85.7462V39.7279H84.3712V38.4839H84.2964C84.1312 38.8674 83.8661 39.1869 83.5013 39.4426C83.1397 39.6952 82.6891 39.8214 82.1497 39.8214C81.6883 39.8214 81.2798 39.7201 80.9244 39.5174C80.5721 39.3117 80.2946 39.0077 80.0919 38.6055C79.8924 38.2032 79.7926 37.7059 79.7926 37.1135V32.5442H81.191V36.9452C81.191 37.4347 81.3266 37.8244 81.5978 38.1144C81.8691 38.4044 82.2214 38.5493 82.6548 38.5493C82.9167 38.5493 83.1771 38.4839 83.4359 38.3529C83.6978 38.222 83.9145 38.024 84.0859 37.7589C84.2605 37.4939 84.3463 37.1572 84.3432 36.7487ZM87.6252 39.7279V32.5442H88.9674V33.7134H89.0563C89.2059 33.3175 89.4507 33.0088 89.7906 32.7874C90.1304 32.5629 90.5373 32.4507 91.0112 32.4507C91.4914 32.4507 91.8936 32.5629 92.2179 32.7874C92.5452 33.0119 92.7869 33.3206 92.9428 33.7134H93.0176C93.1891 33.3299 93.4619 33.0244 93.8361 32.7968C94.2102 32.5661 94.6561 32.4507 95.1736 32.4507C95.8253 32.4507 96.3569 32.6549 96.7684 33.0634C97.1831 33.4718 97.3905 34.0876 97.3905 34.9107V39.7279H95.9921V35.0417C95.9921 34.5553 95.8596 34.203 95.5946 33.9847C95.3295 33.7665 95.0131 33.6573 94.6452 33.6573C94.1899 33.6573 93.8361 33.7976 93.5835 34.0782C93.3309 34.3557 93.2047 34.7127 93.2047 35.1492V39.7279H91.811V34.9528C91.811 34.5631 91.6894 34.2497 91.4462 34.0128C91.203 33.7758 90.8865 33.6573 90.4968 33.6573C90.2317 33.6573 89.987 33.7275 89.7625 33.8678C89.5411 34.005 89.3618 34.1967 89.2247 34.443C89.0906 34.6894 89.0236 34.9746 89.0236 35.2989V39.7279H87.6252ZM102.361 39.8729C101.653 39.8729 101.043 39.7217 100.532 39.4192C100.024 39.1137 99.6311 38.685 99.3536 38.1331C99.0792 37.5781 98.942 36.928 98.942 36.1828C98.942 35.447 99.0792 34.7985 99.3536 34.2373C99.6311 33.676 100.018 33.238 100.513 32.9231C101.012 32.6081 101.595 32.4507 102.263 32.4507C102.668 32.4507 103.061 32.5177 103.441 32.6518C103.822 32.7859 104.163 32.9963 104.465 33.2832C104.768 33.57 105.006 33.9426 105.181 34.4009C105.356 34.8562 105.443 35.4096 105.443 36.0612V36.557H99.7324V35.5094H104.073C104.073 35.1415 103.998 34.8156 103.848 34.5319C103.698 34.2451 103.488 34.019 103.217 33.8538C102.949 33.6885 102.634 33.6059 102.272 33.6059C101.879 33.6059 101.536 33.7025 101.243 33.8958C100.953 34.086 100.729 34.3355 100.57 34.6441C100.414 34.9497 100.336 35.2818 100.336 35.6403V36.4588C100.336 36.9389 100.42 37.3474 100.588 37.6841C100.76 38.0208 100.998 38.2781 101.304 38.4558C101.609 38.6304 101.966 38.7177 102.375 38.7177C102.64 38.7177 102.882 38.6803 103.1 38.6055C103.318 38.5275 103.507 38.4121 103.666 38.2594C103.825 38.1066 103.946 37.918 104.03 37.6935L105.354 37.932C105.248 38.3217 105.058 38.6631 104.783 38.9562C104.512 39.2462 104.171 39.4722 103.759 39.6344C103.351 39.7934 102.885 39.8729 102.361 39.8729ZM108.393 35.4626V39.7279H106.994V32.5442H108.337V33.7134H108.426C108.591 33.3331 108.85 33.0275 109.202 32.7968C109.557 32.5661 110.005 32.4507 110.544 32.4507C111.034 32.4507 111.462 32.5536 111.83 32.7594C112.198 32.962 112.484 33.2645 112.686 33.6667C112.889 34.0689 112.99 34.5662 112.99 35.1586V39.7279H111.592V35.327C111.592 34.8063 111.456 34.3994 111.185 34.1063C110.914 33.8101 110.541 33.662 110.067 33.662C109.743 33.662 109.454 33.7322 109.202 33.8725C108.952 34.0128 108.754 34.2186 108.608 34.4898C108.465 34.758 108.393 35.0822 108.393 35.4626ZM118.219 32.5442V33.6667H114.295V32.5442H118.219ZM115.347 30.8231H116.746V37.6186C116.746 37.8899 116.786 38.0941 116.867 38.2313C116.948 38.3654 117.053 38.4574 117.181 38.5072C117.312 38.554 117.453 38.5774 117.606 38.5774C117.718 38.5774 117.817 38.5696 117.901 38.554C117.985 38.5384 118.051 38.5259 118.097 38.5166L118.35 39.6718C118.269 39.703 118.153 39.7341 118.004 39.7653C117.854 39.7996 117.667 39.8183 117.443 39.8214C117.075 39.8277 116.732 39.7622 116.414 39.625C116.096 39.4878 115.838 39.2758 115.642 38.989C115.446 38.7021 115.347 38.342 115.347 37.9086V30.8231ZM125.033 34.2981L123.766 34.5225C123.713 34.3604 123.629 34.2061 123.513 34.0595C123.401 33.913 123.248 33.793 123.055 33.6994C122.861 33.6059 122.62 33.5591 122.33 33.5591C121.934 33.5591 121.603 33.648 121.338 33.8257C121.073 34.0003 120.941 34.2263 120.941 34.5038C120.941 34.7439 121.03 34.9372 121.207 35.0838C121.385 35.2303 121.672 35.3504 122.068 35.4439L123.209 35.7058C123.87 35.8586 124.363 36.094 124.687 36.412C125.011 36.73 125.173 37.1432 125.173 37.6514C125.173 38.0816 125.049 38.4652 124.799 38.8019C124.553 39.1355 124.208 39.3974 123.766 39.5876C123.326 39.7778 122.816 39.8729 122.236 39.8729C121.432 39.8729 120.776 39.7014 120.267 39.3584C119.759 39.0123 119.447 38.5213 119.332 37.8852L120.684 37.6794C120.768 38.0318 120.941 38.2983 121.203 38.4792C121.465 38.6569 121.806 38.7458 122.227 38.7458C122.685 38.7458 123.052 38.6507 123.326 38.4605C123.6 38.2672 123.738 38.0318 123.738 37.7543C123.738 37.5298 123.653 37.3411 123.485 37.1884C123.32 37.0356 123.066 36.9202 122.723 36.8423L121.507 36.5757C120.836 36.4229 120.341 36.1797 120.02 35.8461C119.701 35.5125 119.542 35.09 119.542 34.5787C119.542 34.1546 119.661 33.7836 119.898 33.4656C120.135 33.1475 120.462 32.8997 120.88 32.722C121.298 32.5411 121.776 32.4507 122.316 32.4507C123.092 32.4507 123.703 32.6191 124.149 32.9558C124.595 33.2894 124.89 33.7368 125.033 34.2981Z" fill="#1C242D"/>
<rect x="21.0139" y="18.0619" width="118.456" height="33.332" rx="9.63879" stroke="#BFE4FF" stroke-width="2.12379" shape-rendering="crispEdges"/>
</g>
<defs>
<filter id="filter0_d_1_3830" x="0.689014" y="0.947541" width="159.106" height="73.9817" filterUnits="userSpaceOnUse" color-interpolation-filters="sRGB">
<feFlood flood-opacity="0" result="BackgroundImageFix"/>
<feColorMatrix in="SourceAlpha" type="matrix" values="0 0 0 0 0 0 0 0 0 0 0 0 0 0 0 0 0 0 127 0" result="hardAlpha"/>
<feOffset dy="3.21049"/>
<feGaussianBlur stdDeviation="9.63148"/>
<feComposite in2="hardAlpha" operator="out"/>
<feColorMatrix type="matrix" values="0 0 0 0 0 0 0 0 0 0.635294 0 0 0 0 0.996078 0 0 0 0.1 0"/>
<feBlend mode="normal" in2="BackgroundImageFix" result="effect1_dropShadow_1_3830"/>
<feBlend mode="normal" in="SourceGraphic" in2="effect1_dropShadow_1_3830" result="shape"/>
</filter>
</defs>
</svg>
