<svg width="184" height="75" viewBox="0 0 184 75" fill="none" xmlns="http://www.w3.org/2000/svg">
<g filter="url(#filter0_d_1_3835)">
<rect x="19.5319" y="17" width="145.076" height="35.4558" rx="10.7007" fill="white" shape-rendering="crispEdges"/>
<g clip-path="url(#clip0_1_3835)">
<path d="M43.964 28.5782V31.6532H47.039" stroke="#4E28E5" stroke-width="1.22999" stroke-linecap="round" stroke-linejoin="round"/>
<path d="M47.0384 31.0382V35.0357C47.0384 35.5277 46.6079 35.9582 46.1159 35.9582H41.8109C41.3189 35.9582 40.8884 35.5277 40.8884 35.0357V29.5007C40.8884 29.0087 41.3189 28.5782 41.8109 28.5782H44.5784L47.0384 31.0382Z" stroke="#4E28E5" stroke-width="1.22999" stroke-linecap="round" stroke-linejoin="round"/>
<path d="M38.4294 32.2673V37.6793C38.4294 37.8638 38.5524 38.0483 38.6754 38.1713C38.7984 38.2943 38.9829 38.4173 39.1674 38.4173H43.3494" stroke="#4E28E5" stroke-width="1.22999" stroke-linecap="round" stroke-linejoin="round"/>
<path d="M35.9691 34.7278V40.1398C35.9691 40.3242 36.0921 40.5087 36.2151 40.6317C36.3381 40.7547 36.5226 40.8777 36.7071 40.8777H40.889" stroke="#4E28E5" stroke-width="1.22999" stroke-linecap="round" stroke-linejoin="round"/>
</g>
<path d="M54.0687 39.7279V30.1497H55.5138V34.3121H60.2889V30.1497H61.7387V39.7279H60.2889V35.5515H55.5138V39.7279H54.0687ZM66.8272 39.8729C66.1194 39.8729 65.5098 39.7217 64.9985 39.4192C64.4903 39.1137 64.0974 38.685 63.8199 38.1331C63.5456 37.5781 63.4084 36.928 63.4084 36.1828C63.4084 35.447 63.5456 34.7985 63.8199 34.2373C64.0974 33.676 64.484 33.238 64.9798 32.9231C65.4787 32.6081 66.0617 32.4507 66.7289 32.4507C67.1343 32.4507 67.5271 32.5177 67.9075 32.6518C68.2879 32.7859 68.6293 32.9963 68.9317 33.2832C69.2342 33.57 69.4727 33.9426 69.6473 34.4009C69.8219 34.8562 69.9092 35.4096 69.9092 36.0612V36.557H64.1988V35.5094H68.5389C68.5389 35.1415 68.4641 34.8156 68.3144 34.5319C68.1647 34.2451 67.9543 34.019 67.683 33.8538C67.4149 33.6885 67.1 33.6059 66.7383 33.6059C66.3454 33.6059 66.0025 33.7025 65.7094 33.8958C65.4194 34.086 65.1949 34.3355 65.0359 34.6441C64.88 34.9497 64.8021 35.2818 64.8021 35.6403V36.4588C64.8021 36.9389 64.8863 37.3474 65.0546 37.6841C65.2261 38.0208 65.4646 38.2781 65.7702 38.4558C66.0757 38.6304 66.4327 38.7177 66.8412 38.7177C67.1062 38.7177 67.3478 38.6803 67.5661 38.6055C67.7844 38.5275 67.973 38.4121 68.132 38.2594C68.291 38.1066 68.4126 37.918 68.4968 37.6935L69.8204 37.932C69.7143 38.3217 69.5242 38.6631 69.2498 38.9562C68.9785 39.2462 68.6371 39.4722 68.2255 39.6344C67.8171 39.7934 67.351 39.8729 66.8272 39.8729ZM73.5513 39.8869C73.0961 39.8869 72.6845 39.8027 72.3166 39.6344C71.9487 39.4629 71.6572 39.215 71.4421 38.8907C71.23 38.5665 71.124 38.1689 71.124 37.6981C71.124 37.2928 71.202 36.9592 71.3579 36.6973C71.5138 36.4354 71.7242 36.228 71.9893 36.0753C72.2543 35.9225 72.5505 35.8071 72.8779 35.7292C73.2052 35.6512 73.5389 35.592 73.8787 35.5515C74.309 35.5016 74.6582 35.461 74.9263 35.4299C75.1945 35.3956 75.3893 35.341 75.5109 35.2662C75.6325 35.1913 75.6933 35.0697 75.6933 34.9014V34.8686C75.6933 34.4602 75.578 34.1437 75.3472 33.9192C75.1196 33.6947 74.7798 33.5825 74.3277 33.5825C73.8569 33.5825 73.4859 33.6869 73.2146 33.8958C72.9465 34.1016 72.7609 34.3308 72.658 34.5833L71.3438 34.284C71.4997 33.8475 71.7273 33.4952 72.0267 33.2271C72.3291 32.9558 72.6768 32.7594 73.0696 32.6378C73.4625 32.5131 73.8756 32.4507 74.309 32.4507C74.5958 32.4507 74.8998 32.485 75.221 32.5536C75.5452 32.6191 75.8477 32.7407 76.1283 32.9184C76.412 33.0961 76.6443 33.3502 76.8251 33.6807C77.006 34.0081 77.0964 34.4337 77.0964 34.9575V39.7279H75.7308V38.7458H75.6746C75.5842 38.9266 75.4486 39.1043 75.2677 39.2789C75.0869 39.4535 74.8546 39.5985 74.5709 39.7139C74.2872 39.8292 73.9473 39.8869 73.5513 39.8869ZM73.8553 38.7645C74.2419 38.7645 74.5724 38.6881 74.8468 38.5353C75.1243 38.3825 75.3348 38.183 75.4782 37.9367C75.6247 37.6872 75.698 37.4206 75.698 37.1369V36.2109C75.6481 36.2608 75.5515 36.3076 75.408 36.3512C75.2677 36.3917 75.1072 36.4276 74.9263 36.4588C74.7455 36.4868 74.5693 36.5133 74.3978 36.5383C74.2264 36.5601 74.0829 36.5788 73.9676 36.5944C73.6963 36.6287 73.4484 36.6864 73.2239 36.7674C73.0026 36.8485 72.8249 36.9654 72.6908 37.1182C72.5598 37.2679 72.4944 37.4674 72.4944 37.7169C72.4944 38.0629 72.6222 38.3248 72.8779 38.5026C73.1335 38.6772 73.4593 38.7645 73.8553 38.7645ZM80.3573 30.1497V39.7279H78.959V30.1497H80.3573ZM85.5919 32.5442V33.6667H81.668V32.5442H85.5919ZM82.7203 30.8231H84.1187V37.6186C84.1187 37.8899 84.1593 38.0941 84.2403 38.2313C84.3214 38.3654 84.4258 38.4574 84.5537 38.5072C84.6846 38.554 84.8265 38.5774 84.9793 38.5774C85.0915 38.5774 85.1897 38.5696 85.2739 38.554C85.3581 38.5384 85.4236 38.5259 85.4703 38.5166L85.7229 39.6718C85.6418 39.703 85.5265 39.7341 85.3768 39.7653C85.2271 39.7996 85.0401 39.8183 84.8156 39.8214C84.4477 39.8277 84.1047 39.7622 83.7867 39.625C83.4686 39.4878 83.2114 39.2758 83.015 38.989C82.8185 38.7021 82.7203 38.342 82.7203 37.9086V30.8231ZM88.6915 35.4626V39.7279H87.2931V30.1497H88.6728V33.7134H88.7617C88.93 33.3268 89.1873 33.0197 89.5334 32.7921C89.8795 32.5645 90.3316 32.4507 90.8897 32.4507C91.3823 32.4507 91.8126 32.552 92.1805 32.7547C92.5515 32.9574 92.8384 33.2598 93.041 33.662C93.2468 34.0611 93.3497 34.56 93.3497 35.1586V39.7279H91.9513V35.327C91.9513 34.8 91.8157 34.3916 91.5444 34.1016C91.2732 33.8085 90.8959 33.662 90.4126 33.662C90.0821 33.662 89.7859 33.7322 89.524 33.8725C89.2652 34.0128 89.061 34.2186 88.9113 34.4898C88.7648 34.758 88.6915 35.0822 88.6915 35.4626ZM98.8134 39.7279V30.1497H102.228C102.97 30.1497 103.585 30.2775 104.075 30.5332C104.568 30.7888 104.935 31.1427 105.179 31.5948C105.422 32.0438 105.543 32.5629 105.543 33.1522C105.543 33.7384 105.42 34.2544 105.174 34.7003C104.931 35.143 104.563 35.4875 104.07 35.7339C103.581 35.9802 102.965 36.1033 102.223 36.1033H99.6366V34.8593H102.092C102.56 34.8593 102.94 34.7922 103.233 34.6582C103.529 34.5241 103.746 34.3292 103.883 34.0736C104.02 33.8179 104.089 33.5108 104.089 33.1522C104.089 32.7905 104.019 32.4772 103.878 32.2122C103.741 31.9472 103.525 31.7445 103.228 31.6042C102.935 31.4608 102.55 31.389 102.073 31.389H100.259V39.7279H98.8134ZM103.542 35.4065L105.908 39.7279H104.262L101.942 35.4065H103.542ZM110.196 39.8729C109.488 39.8729 108.878 39.7217 108.367 39.4192C107.859 39.1137 107.466 38.685 107.189 38.1331C106.914 37.5781 106.777 36.928 106.777 36.1828C106.777 35.447 106.914 34.7985 107.189 34.2373C107.466 33.676 107.853 33.238 108.348 32.9231C108.847 32.6081 109.43 32.4507 110.098 32.4507C110.503 32.4507 110.896 32.5177 111.276 32.6518C111.657 32.7859 111.998 32.9963 112.3 33.2832C112.603 33.57 112.841 33.9426 113.016 34.4009C113.191 34.8562 113.278 35.4096 113.278 36.0612V36.557H107.567V35.5094H111.908C111.908 35.1415 111.833 34.8156 111.683 34.5319C111.533 34.2451 111.323 34.019 111.052 33.8538C110.784 33.6885 110.469 33.6059 110.107 33.6059C109.714 33.6059 109.371 33.7025 109.078 33.8958C108.788 34.086 108.564 34.3355 108.405 34.6441C108.249 34.9497 108.171 35.2818 108.171 35.6403V36.4588C108.171 36.9389 108.255 37.3474 108.423 37.6841C108.595 38.0208 108.833 38.2781 109.139 38.4558C109.444 38.6304 109.801 38.7177 110.21 38.7177C110.475 38.7177 110.716 38.6803 110.935 38.6055C111.153 38.5275 111.342 38.4121 111.501 38.2594C111.66 38.1066 111.781 37.918 111.865 37.6935L113.189 37.932C113.083 38.3217 112.893 38.6631 112.618 38.9562C112.347 39.2462 112.006 39.4722 111.594 39.6344C111.186 39.7934 110.72 39.8729 110.196 39.8729ZM117.855 39.8729C117.16 39.8729 116.561 39.7154 116.059 39.4005C115.561 39.0825 115.177 38.6444 114.909 38.0863C114.641 37.5282 114.507 36.889 114.507 36.1688C114.507 35.4392 114.644 34.7954 114.918 34.2373C115.193 33.676 115.579 33.238 116.078 32.9231C116.577 32.6081 117.165 32.4507 117.841 32.4507C118.387 32.4507 118.873 32.552 119.3 32.7547C119.728 32.9542 120.072 33.2348 120.334 33.5965C120.599 33.9582 120.757 34.3807 120.806 34.864H119.445C119.371 34.5272 119.199 34.2373 118.931 33.9941C118.666 33.7509 118.311 33.6293 117.865 33.6293C117.475 33.6293 117.134 33.7322 116.84 33.9379C116.55 34.1406 116.324 34.4306 116.162 34.8078C116 35.182 115.919 35.6247 115.919 36.1361C115.919 36.6599 115.999 37.112 116.158 37.4924C116.317 37.8727 116.541 38.1674 116.831 38.3763C117.124 38.5852 117.469 38.6896 117.865 38.6896C118.13 38.6896 118.37 38.6413 118.585 38.5447C118.803 38.4449 118.986 38.303 119.132 38.1191C119.282 37.9351 119.386 37.7137 119.445 37.4549H120.806C120.757 37.9195 120.605 38.3342 120.353 38.699C120.1 39.0638 119.762 39.3506 119.338 39.5595C118.917 39.7684 118.423 39.8729 117.855 39.8729ZM125.328 39.8729C124.654 39.8729 124.067 39.7186 123.565 39.4099C123.063 39.1012 122.673 38.6694 122.395 38.1144C122.118 37.5594 121.979 36.9109 121.979 36.1688C121.979 35.4236 122.118 34.772 122.395 34.2139C122.673 33.6558 123.063 33.2224 123.565 32.9137C124.067 32.605 124.654 32.4507 125.328 32.4507C126.001 32.4507 126.589 32.605 127.091 32.9137C127.593 33.2224 127.983 33.6558 128.26 34.2139C128.538 34.772 128.676 35.4236 128.676 36.1688C128.676 36.9109 128.538 37.5594 128.26 38.1144C127.983 38.6694 127.593 39.1012 127.091 39.4099C126.589 39.7186 126.001 39.8729 125.328 39.8729ZM125.332 38.699C125.769 38.699 126.131 38.5836 126.418 38.3529C126.704 38.1222 126.916 37.8151 127.054 37.4316C127.194 37.0481 127.264 36.6256 127.264 36.1641C127.264 35.7058 127.194 35.2849 127.054 34.9014C126.916 34.5148 126.704 34.2045 126.418 33.9707C126.131 33.7368 125.769 33.6199 125.332 33.6199C124.893 33.6199 124.528 33.7368 124.238 33.9707C123.951 34.2045 123.738 34.5148 123.597 34.9014C123.46 35.2849 123.392 35.7058 123.392 36.1641C123.392 36.6256 123.46 37.0481 123.597 37.4316C123.738 37.8151 123.951 38.1222 124.238 38.3529C124.528 38.5836 124.893 38.699 125.332 38.699ZM130.237 39.7279V32.5442H131.589V33.6854H131.664C131.795 33.2988 132.025 32.9948 132.356 32.7734C132.69 32.5489 133.067 32.4367 133.488 32.4367C133.575 32.4367 133.678 32.4398 133.796 32.446C133.918 32.4523 134.013 32.46 134.082 32.4694V33.807C134.026 33.7914 133.926 33.7742 133.782 33.7555C133.639 33.7337 133.496 33.7228 133.352 33.7228C133.022 33.7228 132.727 33.793 132.468 33.9333C132.213 34.0705 132.01 34.2622 131.86 34.5085C131.711 34.7517 131.636 35.0292 131.636 35.341V39.7279H130.237ZM137.724 39.8682C137.144 39.8682 136.626 39.7201 136.171 39.4239C135.719 39.1246 135.364 38.699 135.105 38.1471C134.849 37.5921 134.721 36.9265 134.721 36.1501C134.721 35.3737 134.851 34.7096 135.109 34.1578C135.371 33.6059 135.73 33.1834 136.185 32.8903C136.64 32.5972 137.156 32.4507 137.733 32.4507C138.179 32.4507 138.538 32.5255 138.809 32.6752C139.083 32.8217 139.295 32.9932 139.445 33.1896C139.598 33.3861 139.716 33.5591 139.8 33.7088H139.885V30.1497H141.283V39.7279H139.917V38.6101H139.8C139.716 38.7629 139.595 38.9375 139.436 39.1339C139.28 39.3304 139.065 39.5019 138.79 39.6484C138.516 39.7949 138.16 39.8682 137.724 39.8682ZM138.033 38.6756C138.435 38.6756 138.775 38.5696 139.052 38.3576C139.333 38.1424 139.545 37.8447 139.688 37.4643C139.835 37.0839 139.908 36.6412 139.908 36.1361C139.908 35.6372 139.836 35.2007 139.693 34.8265C139.549 34.4524 139.339 34.1609 139.061 33.952C138.784 33.7431 138.441 33.6386 138.033 33.6386C137.612 33.6386 137.261 33.7477 136.98 33.966C136.7 34.1843 136.488 34.482 136.344 34.8593C136.204 35.2365 136.134 35.6621 136.134 36.1361C136.134 36.6162 136.205 37.0481 136.349 37.4316C136.492 37.8151 136.704 38.1191 136.985 38.3436C137.269 38.5649 137.618 38.6756 138.033 38.6756ZM148.662 34.2981L147.394 34.5225C147.341 34.3604 147.257 34.2061 147.142 34.0595C147.03 33.913 146.877 33.793 146.684 33.6994C146.49 33.6059 146.249 33.5591 145.959 33.5591C145.563 33.5591 145.232 33.648 144.967 33.8257C144.702 34.0003 144.57 34.2263 144.57 34.5038C144.57 34.7439 144.658 34.9372 144.836 35.0838C145.014 35.2303 145.301 35.3504 145.697 35.4439L146.838 35.7058C147.499 35.8586 147.992 36.094 148.316 36.412C148.64 36.73 148.802 37.1432 148.802 37.6514C148.802 38.0816 148.677 38.4652 148.428 38.8019C148.182 39.1355 147.837 39.3974 147.394 39.5876C146.955 39.7778 146.445 39.8729 145.865 39.8729C145.061 39.8729 144.404 39.7014 143.896 39.3584C143.388 39.0123 143.076 38.5213 142.961 37.8852L144.312 37.6794C144.397 38.0318 144.57 38.2983 144.832 38.4792C145.093 38.6569 145.435 38.7458 145.856 38.7458C146.314 38.7458 146.68 38.6507 146.955 38.4605C147.229 38.2672 147.366 38.0318 147.366 37.7543C147.366 37.5298 147.282 37.3411 147.114 37.1884C146.949 37.0356 146.694 36.9202 146.352 36.8423L145.136 36.5757C144.465 36.4229 143.969 36.1797 143.648 35.8461C143.33 35.5125 143.171 35.09 143.171 34.5787C143.171 34.1546 143.29 33.7836 143.527 33.4656C143.764 33.1475 144.091 32.8997 144.509 32.722C144.927 32.5411 145.405 32.4507 145.945 32.4507C146.721 32.4507 147.332 32.6191 147.778 32.9558C148.224 33.2894 148.518 33.7368 148.662 34.2981Z" fill="#1C242D"/>
<rect x="20.5938" y="18.0619" width="142.953" height="33.332" rx="9.63879" stroke="#BFE4FF" stroke-width="2.12379" shape-rendering="crispEdges"/>
</g>
<defs>
<filter id="filter0_d_1_3835" x="0.268909" y="0.947541" width="183.602" height="73.9817" filterUnits="userSpaceOnUse" color-interpolation-filters="sRGB">
<feFlood flood-opacity="0" result="BackgroundImageFix"/>
<feColorMatrix in="SourceAlpha" type="matrix" values="0 0 0 0 0 0 0 0 0 0 0 0 0 0 0 0 0 0 127 0" result="hardAlpha"/>
<feOffset dy="3.21049"/>
<feGaussianBlur stdDeviation="9.63148"/>
<feComposite in2="hardAlpha" operator="out"/>
<feColorMatrix type="matrix" values="0 0 0 0 0 0 0 0 0 0.635294 0 0 0 0 0.996078 0 0 0 0.1 0"/>
<feBlend mode="normal" in2="BackgroundImageFix" result="effect1_dropShadow_1_3835"/>
<feBlend mode="normal" in="SourceGraphic" in2="effect1_dropShadow_1_3835" result="shape"/>
</filter>
<clipPath id="clip0_1_3835">
<rect width="14.7599" height="14.7599" fill="white" transform="translate(34.1237 27.348)"/>
</clipPath>
</defs>
</svg>
