<svg width="190" height="75" viewBox="0 0 190 75" fill="none" xmlns="http://www.w3.org/2000/svg">
<g filter="url(#filter0_d_1_3842)">
<rect x="19.6082" y="17" width="150.296" height="35.4558" rx="10.7007" fill="white" shape-rendering="crispEdges"/>
<g clip-path="url(#clip0_1_3842)">
<path d="M44.3316 33.7113C44.3316 36.7505 40.2793 39.7897 40.2793 39.7897C40.2793 39.7897 36.227 36.7505 36.227 33.7113C36.227 32.6365 36.6539 31.6058 37.4139 30.8458C38.1738 30.0859 39.2046 29.6589 40.2793 29.6589C41.3541 29.6589 42.3848 30.0859 43.1447 30.8458C43.9047 31.6058 44.3316 32.6365 44.3316 33.7113Z" stroke="#36BF20" stroke-width="1.01308" stroke-linecap="round" stroke-linejoin="round"/>
<path d="M40.279 35.2366C41.1182 35.2366 41.7986 34.5562 41.7986 33.7169C41.7986 32.8777 41.1182 32.1973 40.279 32.1973C39.4397 32.1973 38.7593 32.8777 38.7593 33.7169C38.7593 34.5562 39.4397 35.2366 40.279 35.2366Z" stroke="#36BF20" stroke-width="1.01308" stroke-linecap="round" stroke-linejoin="round"/>
</g>
<path d="M51.3644 39.7278V30.1496H52.8095V38.4838H57.1497V39.7278H51.3644ZM61.7119 39.8728C61.0385 39.8728 60.4507 39.7185 59.9488 39.4098C59.4468 39.1011 59.057 38.6693 58.7795 38.1143C58.5021 37.5593 58.3633 36.9108 58.3633 36.1687C58.3633 35.4236 58.5021 34.7719 58.7795 34.2138C59.057 33.6557 59.4468 33.2223 59.9488 32.9136C60.4507 32.605 61.0385 32.4506 61.7119 32.4506C62.3854 32.4506 62.9731 32.605 63.4751 32.9136C63.9771 33.2223 64.3668 33.6557 64.6443 34.2138C64.9218 34.7719 65.0606 35.4236 65.0606 36.1687C65.0606 36.9108 64.9218 37.5593 64.6443 38.1143C64.3668 38.6693 63.9771 39.1011 63.4751 39.4098C62.9731 39.7185 62.3854 39.8728 61.7119 39.8728ZM61.7166 38.6989C62.1531 38.6989 62.5148 38.5836 62.8017 38.3528C63.0885 38.1221 63.3005 37.815 63.4377 37.4315C63.578 37.048 63.6482 36.6255 63.6482 36.1641C63.6482 35.7057 63.578 35.2848 63.4377 34.9013C63.3005 34.5147 63.0885 34.2045 62.8017 33.9706C62.5148 33.7368 62.1531 33.6199 61.7166 33.6199C61.277 33.6199 60.9122 33.7368 60.6222 33.9706C60.3354 34.2045 60.1218 34.5147 59.9815 34.9013C59.8443 35.2848 59.7757 35.7057 59.7757 36.1641C59.7757 36.6255 59.8443 37.048 59.9815 37.4315C60.1218 37.815 60.3354 38.1221 60.6222 38.3528C60.9122 38.5836 61.277 38.6989 61.7166 38.6989ZM69.6474 39.8728C68.9521 39.8728 68.3535 39.7154 67.8515 39.4005C67.3526 39.0824 66.9691 38.6444 66.701 38.0863C66.4329 37.5282 66.2988 36.889 66.2988 36.1687C66.2988 35.4392 66.436 34.7953 66.7104 34.2372C66.9847 33.676 67.3713 33.2379 67.8702 32.923C68.3691 32.6081 68.9568 32.4506 69.6334 32.4506C70.179 32.4506 70.6654 32.552 71.0926 32.7546C71.5197 32.9542 71.8643 33.2348 72.1262 33.5965C72.3912 33.9581 72.5486 34.3806 72.5985 34.8639H71.2376C71.1627 34.5272 70.9912 34.2372 70.7231 33.994C70.4581 33.7508 70.1026 33.6292 69.6568 33.6292C69.267 33.6292 68.9256 33.7321 68.6325 33.9379C68.3426 34.1405 68.1165 34.4305 67.9544 34.8078C67.7923 35.1819 67.7112 35.6247 67.7112 36.136C67.7112 36.6598 67.7907 37.1119 67.9497 37.4923C68.1087 37.8727 68.3332 38.1673 68.6232 38.3762C68.9163 38.5851 69.2608 38.6896 69.6568 38.6896C69.9218 38.6896 70.1619 38.6413 70.377 38.5446C70.5953 38.4448 70.7777 38.303 70.9242 38.119C71.0739 37.935 71.1783 37.7137 71.2376 37.4549H72.5985C72.5486 37.9195 72.3974 38.3341 72.1449 38.6989C71.8923 39.0637 71.554 39.3506 71.13 39.5595C70.7091 39.7684 70.2149 39.8728 69.6474 39.8728ZM76.1845 39.8869C75.7293 39.8869 75.3177 39.8027 74.9498 39.6343C74.5819 39.4628 74.2904 39.2149 74.0753 38.8907C73.8632 38.5664 73.7572 38.1689 73.7572 37.6981C73.7572 37.2928 73.8352 36.9591 73.9911 36.6972C74.147 36.4353 74.3574 36.228 74.6224 36.0752C74.8875 35.9224 75.1837 35.8071 75.5111 35.7291C75.8384 35.6512 76.1721 35.5919 76.5119 35.5514C76.9422 35.5015 77.2914 35.461 77.5595 35.4298C77.8277 35.3955 78.0225 35.3409 78.1441 35.2661C78.2657 35.1913 78.3265 35.0697 78.3265 34.9013V34.8686C78.3265 34.4601 78.2112 34.1437 77.9804 33.9192C77.7528 33.6947 77.413 33.5824 76.9609 33.5824C76.4901 33.5824 76.119 33.6869 75.8478 33.8958C75.5796 34.1016 75.3941 34.3307 75.2912 34.5833L73.977 34.284C74.1329 33.8475 74.3605 33.4951 74.6599 33.227C74.9623 32.9557 75.3099 32.7593 75.7028 32.6377C76.0957 32.513 76.5088 32.4506 76.9422 32.4506C77.229 32.4506 77.533 32.4849 77.8542 32.5535C78.1784 32.619 78.4809 32.7406 78.7615 32.9183C79.0452 33.096 79.2775 33.3502 79.4583 33.6806C79.6392 34.008 79.7296 34.4336 79.7296 34.9574V39.7278H78.3639V38.7457H78.3078C78.2174 38.9265 78.0818 39.1043 77.9009 39.2789C77.7201 39.4535 77.4878 39.5985 77.2041 39.7138C76.9204 39.8292 76.5805 39.8869 76.1845 39.8869ZM76.4885 38.7644C76.8751 38.7644 77.2056 38.688 77.48 38.5352C77.7575 38.3825 77.968 38.1829 78.1114 37.9366C78.2579 37.6872 78.3312 37.4206 78.3312 37.1369V36.2108C78.2813 36.2607 78.1847 36.3075 78.0412 36.3511C77.9009 36.3917 77.7404 36.4275 77.5595 36.4587C77.3787 36.4868 77.2025 36.5133 77.031 36.5382C76.8596 36.56 76.7161 36.5788 76.6008 36.5943C76.3295 36.6286 76.0816 36.6863 75.8571 36.7674C75.6358 36.8485 75.4581 36.9654 75.324 37.1182C75.193 37.2678 75.1276 37.4674 75.1276 37.7168C75.1276 38.0629 75.2554 38.3248 75.5111 38.5025C75.7667 38.6771 76.0925 38.7644 76.4885 38.7644ZM84.9455 32.5442V33.6666H81.0216V32.5442H84.9455ZM82.0739 30.8231H83.4723V37.6186C83.4723 37.8898 83.5128 38.0941 83.5939 38.2312C83.6749 38.3653 83.7794 38.4573 83.9072 38.5072C84.0382 38.5539 84.18 38.5773 84.3328 38.5773C84.445 38.5773 84.5433 38.5695 84.6274 38.5539C84.7116 38.5384 84.7771 38.5259 84.8239 38.5165L85.0764 39.6717C84.9954 39.7029 84.88 39.7341 84.7303 39.7653C84.5807 39.7996 84.3936 39.8183 84.1691 39.8214C83.8012 39.8276 83.4582 39.7621 83.1402 39.625C82.8222 39.4878 82.5649 39.2757 82.3685 38.9889C82.1721 38.7021 82.0739 38.3419 82.0739 37.9085V30.8231ZM86.4923 39.7278V32.5442H87.8907V39.7278H86.4923ZM87.1986 31.4358C86.9554 31.4358 86.7465 31.3547 86.5719 31.1926C86.4004 31.0273 86.3146 30.8309 86.3146 30.6033C86.3146 30.3725 86.4004 30.1761 86.5719 30.014C86.7465 29.8487 86.9554 29.7661 87.1986 29.7661C87.4418 29.7661 87.6491 29.8487 87.8206 30.014C87.9952 30.1761 88.0825 30.3725 88.0825 30.6033C88.0825 30.8309 87.9952 31.0273 87.8206 31.1926C87.6491 31.3547 87.4418 31.4358 87.1986 31.4358ZM92.7979 39.8728C92.1245 39.8728 91.5367 39.7185 91.0348 39.4098C90.5328 39.1011 90.143 38.6693 89.8655 38.1143C89.588 37.5593 89.4493 36.9108 89.4493 36.1687C89.4493 35.4236 89.588 34.7719 89.8655 34.2138C90.143 33.6557 90.5328 33.2223 91.0348 32.9136C91.5367 32.605 92.1245 32.4506 92.7979 32.4506C93.4714 32.4506 94.0591 32.605 94.5611 32.9136C95.0631 33.2223 95.4528 33.6557 95.7303 34.2138C96.0078 34.7719 96.1466 35.4236 96.1466 36.1687C96.1466 36.9108 96.0078 37.5593 95.7303 38.1143C95.4528 38.6693 95.0631 39.1011 94.5611 39.4098C94.0591 39.7185 93.4714 39.8728 92.7979 39.8728ZM92.8026 38.6989C93.2391 38.6989 93.6008 38.5836 93.8876 38.3528C94.1745 38.1221 94.3865 37.815 94.5237 37.4315C94.664 37.048 94.7342 36.6255 94.7342 36.1641C94.7342 35.7057 94.664 35.2848 94.5237 34.9013C94.3865 34.5147 94.1745 34.2045 93.8876 33.9706C93.6008 33.7368 93.2391 33.6199 92.8026 33.6199C92.363 33.6199 91.9982 33.7368 91.7082 33.9706C91.4214 34.2045 91.2078 34.5147 91.0675 34.9013C90.9303 35.2848 90.8617 35.7057 90.8617 36.1641C90.8617 36.6255 90.9303 37.048 91.0675 37.4315C91.2078 37.815 91.4214 38.1221 91.7082 38.3528C91.9982 38.5836 92.363 38.6989 92.8026 38.6989ZM99.1059 35.4625V39.7278H97.7075V32.5442H99.0497V33.7134H99.1386C99.3039 33.333 99.5626 33.0274 99.915 32.7967C100.27 32.566 100.718 32.4506 101.257 32.4506C101.747 32.4506 102.175 32.5535 102.543 32.7593C102.911 32.962 103.197 33.2644 103.399 33.6666C103.602 34.0688 103.703 34.5661 103.703 35.1585V39.7278H102.305V35.3269C102.305 34.8062 102.169 34.3993 101.898 34.1062C101.627 33.81 101.254 33.6619 100.78 33.6619C100.456 33.6619 100.168 33.7321 99.915 33.8724C99.6655 34.0127 99.4675 34.2185 99.321 34.4897C99.1776 34.7579 99.1059 35.0822 99.1059 35.4625ZM114.447 34.298L113.18 34.5225C113.127 34.3604 113.043 34.206 112.927 34.0595C112.815 33.9129 112.662 33.7929 112.469 33.6994C112.276 33.6058 112.034 33.5591 111.744 33.5591C111.348 33.5591 111.017 33.6479 110.752 33.8256C110.487 34.0002 110.355 34.2263 110.355 34.5038C110.355 34.7439 110.444 34.9372 110.621 35.0837C110.799 35.2303 111.086 35.3503 111.482 35.4438L112.623 35.7057C113.284 35.8585 113.777 36.0939 114.101 36.4119C114.425 36.73 114.587 37.1431 114.587 37.6513C114.587 38.0816 114.463 38.4651 114.213 38.8018C113.967 39.1354 113.622 39.3973 113.18 39.5875C112.74 39.7777 112.23 39.8728 111.65 39.8728C110.846 39.8728 110.19 39.7013 109.681 39.3584C109.173 39.0123 108.861 38.5212 108.746 37.8852L110.098 37.6794C110.182 38.0317 110.355 38.2983 110.617 38.4791C110.879 38.6568 111.22 38.7457 111.641 38.7457C112.099 38.7457 112.466 38.6506 112.74 38.4604C113.014 38.2671 113.152 38.0317 113.152 37.7542C113.152 37.5297 113.067 37.3411 112.899 37.1883C112.734 37.0355 112.48 36.9202 112.137 36.8422L110.921 36.5756C110.25 36.4229 109.755 36.1797 109.434 35.846C109.116 35.5124 108.957 35.0899 108.957 34.5786C108.957 34.1546 109.075 33.7835 109.312 33.4655C109.549 33.1475 109.876 32.8996 110.294 32.7219C110.712 32.5411 111.191 32.4506 111.73 32.4506C112.506 32.4506 113.117 32.619 113.563 32.9557C114.009 33.2894 114.304 33.7368 114.447 34.298ZM117.523 35.4625V39.7278H116.125V30.1496H117.505V33.7134H117.594C117.762 33.3268 118.019 33.0197 118.365 32.792C118.711 32.5644 119.163 32.4506 119.722 32.4506C120.214 32.4506 120.644 32.552 121.012 32.7546C121.383 32.9573 121.67 33.2597 121.873 33.6619C122.079 34.061 122.182 34.5599 122.182 35.1585V39.7278H120.783V35.3269C120.783 34.8 120.648 34.3915 120.376 34.1016C120.105 33.8085 119.728 33.6619 119.244 33.6619C118.914 33.6619 118.618 33.7321 118.356 33.8724C118.097 34.0127 117.893 34.2185 117.743 34.4897C117.597 34.7579 117.523 35.0822 117.523 35.4625ZM126.138 39.8869C125.683 39.8869 125.271 39.8027 124.903 39.6343C124.536 39.4628 124.244 39.2149 124.029 38.8907C123.817 38.5664 123.711 38.1689 123.711 37.6981C123.711 37.2928 123.789 36.9591 123.945 36.6972C124.101 36.4353 124.311 36.228 124.576 36.0752C124.841 35.9224 125.137 35.8071 125.465 35.7291C125.792 35.6512 126.126 35.5919 126.466 35.5514C126.896 35.5015 127.245 35.461 127.513 35.4298C127.781 35.3955 127.976 35.3409 128.098 35.2661C128.219 35.1913 128.28 35.0697 128.28 34.9013V34.8686C128.28 34.4601 128.165 34.1437 127.934 33.9192C127.706 33.6947 127.367 33.5824 126.915 33.5824C126.444 33.5824 126.073 33.6869 125.801 33.8958C125.533 34.1016 125.348 34.3307 125.245 34.5833L123.931 34.284C124.087 33.8475 124.314 33.4951 124.614 33.227C124.916 32.9557 125.264 32.7593 125.656 32.6377C126.049 32.513 126.462 32.4506 126.896 32.4506C127.183 32.4506 127.487 32.4849 127.808 32.5535C128.132 32.619 128.435 32.7406 128.715 32.9183C128.999 33.096 129.231 33.3502 129.412 33.6806C129.593 34.008 129.683 34.4336 129.683 34.9574V39.7278H128.318V38.7457H128.261C128.171 38.9265 128.035 39.1043 127.855 39.2789C127.674 39.4535 127.441 39.5985 127.158 39.7138C126.874 39.8292 126.534 39.8869 126.138 39.8869ZM126.442 38.7644C126.829 38.7644 127.159 38.688 127.434 38.5352C127.711 38.3825 127.922 38.1829 128.065 37.9366C128.212 37.6872 128.285 37.4206 128.285 37.1369V36.2108C128.235 36.2607 128.138 36.3075 127.995 36.3511C127.855 36.3917 127.694 36.4275 127.513 36.4587C127.332 36.4868 127.156 36.5133 126.985 36.5382C126.813 36.56 126.67 36.5788 126.554 36.5943C126.283 36.6286 126.035 36.6863 125.811 36.7674C125.589 36.8485 125.412 36.9654 125.278 37.1182C125.147 37.2678 125.081 37.4674 125.081 37.7168C125.081 38.0629 125.209 38.3248 125.465 38.5025C125.72 38.6771 126.046 38.7644 126.442 38.7644ZM131.546 39.7278V32.5442H132.897V33.6853H132.972C133.103 33.2987 133.334 32.9947 133.664 32.7733C133.998 32.5488 134.375 32.4366 134.796 32.4366C134.884 32.4366 134.986 32.4397 135.105 32.446C135.227 32.4522 135.322 32.46 135.39 32.4693V33.8069C135.334 33.7913 135.234 33.7742 135.091 33.7555C134.947 33.7337 134.804 33.7227 134.661 33.7227C134.33 33.7227 134.035 33.7929 133.777 33.9332C133.521 34.0704 133.318 34.2621 133.169 34.5085C133.019 34.7517 132.944 35.0291 132.944 35.3409V39.7278H131.546ZM136.6 39.7278V32.5442H137.999V39.7278H136.6ZM137.307 31.4358C137.063 31.4358 136.854 31.3547 136.68 31.1926C136.508 31.0273 136.423 30.8309 136.423 30.6033C136.423 30.3725 136.508 30.1761 136.68 30.014C136.854 29.8487 137.063 29.7661 137.307 29.7661C137.55 29.7661 137.757 29.8487 137.929 30.014C138.103 30.1761 138.19 30.3725 138.19 30.6033C138.19 30.8309 138.103 31.0273 137.929 31.1926C137.757 31.3547 137.55 31.4358 137.307 31.4358ZM141.278 35.4625V39.7278H139.88V32.5442H141.222V33.7134H141.311C141.476 33.333 141.735 33.0274 142.087 32.7967C142.443 32.566 142.89 32.4506 143.43 32.4506C143.919 32.4506 144.348 32.5535 144.716 32.7593C145.084 32.962 145.369 33.2644 145.572 33.6666C145.774 34.0688 145.876 34.5661 145.876 35.1585V39.7278H144.477V35.3269C144.477 34.8062 144.342 34.3993 144.07 34.1062C143.799 33.81 143.427 33.6619 142.953 33.6619C142.628 33.6619 142.34 33.7321 142.087 33.8724C141.838 34.0127 141.64 34.2185 141.494 34.4897C141.35 34.7579 141.278 35.0822 141.278 35.4625ZM150.763 42.5714C150.192 42.5714 149.701 42.4966 149.29 42.3469C148.881 42.1972 148.548 41.9992 148.289 41.7529C148.03 41.5066 147.837 41.2369 147.709 40.9438L148.911 40.4481C148.995 40.5853 149.107 40.7303 149.248 40.883C149.391 41.0389 149.585 41.1714 149.828 41.2806C150.074 41.3897 150.39 41.4443 150.777 41.4443C151.307 41.4443 151.745 41.3149 152.091 41.0561C152.437 40.8004 152.61 40.392 152.61 39.8307V38.4183H152.522C152.437 38.5711 152.316 38.741 152.157 38.9281C152.001 39.1152 151.786 39.2773 151.511 39.4145C151.237 39.5517 150.88 39.6203 150.44 39.6203C149.873 39.6203 149.362 39.4878 148.906 39.2227C148.454 38.9546 148.096 38.5602 147.831 38.0395C147.569 37.5157 147.438 36.8718 147.438 36.1079C147.438 35.3441 147.567 34.6893 147.826 34.1437C148.088 33.598 148.446 33.1802 148.902 32.8903C149.357 32.5972 149.873 32.4506 150.45 32.4506C150.896 32.4506 151.256 32.5255 151.53 32.6751C151.804 32.8217 152.018 32.9931 152.171 33.1896C152.327 33.386 152.447 33.5591 152.531 33.7087H152.634V32.5442H154.004V39.8869C154.004 40.5042 153.861 41.0109 153.574 41.4068C153.287 41.8028 152.899 42.0959 152.409 42.2861C151.923 42.4763 151.374 42.5714 150.763 42.5714ZM150.749 38.4604C151.151 38.4604 151.491 38.3669 151.769 38.1798C152.049 37.9896 152.261 37.7183 152.405 37.366C152.551 37.0106 152.624 36.585 152.624 36.0892C152.624 35.606 152.553 35.1804 152.409 34.8125C152.266 34.4445 152.055 34.1577 151.778 33.9519C151.5 33.743 151.157 33.6386 150.749 33.6386C150.328 33.6386 149.977 33.7477 149.697 33.9659C149.416 34.1811 149.204 34.4742 149.061 34.8452C148.92 35.2162 148.85 35.6309 148.85 36.0892C148.85 36.56 148.922 36.9732 149.065 37.3286C149.209 37.6841 149.421 37.9615 149.701 38.1611C149.985 38.3606 150.334 38.4604 150.749 38.4604Z" fill="#1C242D"/>
<rect x="20.6701" y="18.0619" width="148.172" height="33.332" rx="9.63879" stroke="#BFE4FF" stroke-width="2.12379" shape-rendering="crispEdges"/>
</g>
<defs>
<filter id="filter0_d_1_3842" x="0.345264" y="0.947541" width="188.822" height="73.9817" filterUnits="userSpaceOnUse" color-interpolation-filters="sRGB">
<feFlood flood-opacity="0" result="BackgroundImageFix"/>
<feColorMatrix in="SourceAlpha" type="matrix" values="0 0 0 0 0 0 0 0 0 0 0 0 0 0 0 0 0 0 127 0" result="hardAlpha"/>
<feOffset dy="3.21049"/>
<feGaussianBlur stdDeviation="9.63148"/>
<feComposite in2="hardAlpha" operator="out"/>
<feColorMatrix type="matrix" values="0 0 0 0 0 0 0 0 0 0.635294 0 0 0 0 0.996078 0 0 0 0.1 0"/>
<feBlend mode="normal" in2="BackgroundImageFix" result="effect1_dropShadow_1_3842"/>
<feBlend mode="normal" in="SourceGraphic" in2="effect1_dropShadow_1_3842" result="shape"/>
</filter>
<clipPath id="clip0_1_3842">
<rect width="12.157" height="12.157" fill="white" transform="translate(34.2001 28.6494)"/>
</clipPath>
</defs>
</svg>
