<svg width="98" height="37" viewBox="0 0 98 37" fill="none" xmlns="http://www.w3.org/2000/svg">
<path d="M30.9525 13.8754L16.4763 2.27094L2 13.8754V32.1111C2 32.9905 2.33893 33.8338 2.94222 34.4556C3.54552 35.0774 4.36376 35.4267 5.21695 35.4267H31.2454" stroke="#00A2FE" stroke-width="2.62744" stroke-linecap="round" stroke-linejoin="round"/>
<path d="M12.0739 26.7582C11.2069 26.7582 10.4299 26.6175 9.74299 26.336C9.0561 26.0545 8.50434 25.6378 8.08771 25.0861C7.68233 24.5343 7.46838 23.8699 7.44586 23.093H10.52C10.565 23.5321 10.717 23.8699 10.976 24.1064C11.235 24.3316 11.5728 24.4442 11.9895 24.4442C12.4174 24.4442 12.7552 24.3485 13.0029 24.1571C13.2506 23.9544 13.3745 23.6785 13.3745 23.3294C13.3745 23.0367 13.2731 22.7946 13.0705 22.6031C12.879 22.4117 12.6369 22.2541 12.3442 22.1302C12.0626 22.0063 11.6573 21.8656 11.128 21.7079C10.3623 21.4715 9.73736 21.235 9.25316 20.9985C8.76896 20.7621 8.35233 20.413 8.00325 19.9513C7.65418 19.4896 7.47964 18.8872 7.47964 18.144C7.47964 17.0405 7.87939 16.1791 8.67888 15.5597C9.47837 14.9291 10.52 14.6138 11.8037 14.6138C13.1099 14.6138 14.1627 14.9291 14.9622 15.5597C15.7617 16.1791 16.1896 17.0461 16.2459 18.1609H13.1211C13.0986 17.778 12.9579 17.4796 12.6989 17.2657C12.4399 17.0405 12.1077 16.9279 11.7023 16.9279C11.3532 16.9279 11.0717 17.0236 10.8578 17.215C10.6438 17.3952 10.5369 17.6598 10.5369 18.0089C10.5369 18.3917 10.717 18.6901 11.0774 18.9041C11.4377 19.118 12.0007 19.3489 12.7664 19.5966C13.5321 19.8556 14.1515 20.1033 14.6244 20.3398C15.1086 20.5763 15.5252 20.9197 15.8743 21.3701C16.2234 21.8205 16.3979 22.4005 16.3979 23.1099C16.3979 23.7855 16.2234 24.3992 15.8743 24.9509C15.5365 25.5027 15.041 25.9419 14.3879 26.2684C13.7348 26.595 12.9635 26.7582 12.0739 26.7582ZM27.4822 17.215V26.64H24.5939V25.3563C24.3011 25.773 23.9013 26.1108 23.3946 26.3698C22.8992 26.6175 22.3474 26.7414 21.7393 26.7414C21.0187 26.7414 20.3825 26.5837 19.8307 26.2684C19.2789 25.9419 18.851 25.4746 18.547 24.8665C18.243 24.2584 18.0909 23.5434 18.0909 22.7214V17.215H20.9624V22.3329C20.9624 22.9635 21.1256 23.4533 21.4522 23.8024C21.7787 24.1515 22.2179 24.326 22.7697 24.326C23.3327 24.326 23.7775 24.1515 24.104 23.8024C24.4306 23.4533 24.5939 22.9635 24.5939 22.3329V17.215H27.4822ZM32.4451 18.5494C32.7266 18.1102 33.1151 17.7555 33.6106 17.4853C34.106 17.215 34.686 17.0799 35.3503 17.0799C36.1273 17.0799 36.8311 17.2769 37.4617 17.6711C38.0922 18.0652 38.5877 18.6282 38.948 19.3601C39.3196 20.0921 39.5054 20.9422 39.5054 21.9106C39.5054 22.879 39.3196 23.7348 38.948 24.478C38.5877 25.2099 38.0922 25.7786 37.4617 26.184C36.8311 26.5781 36.1273 26.7751 35.3503 26.7751C34.6972 26.7751 34.1173 26.64 33.6106 26.3698C33.1151 26.0995 32.7266 25.7504 32.4451 25.3225V31.1329H29.5568V17.215H32.4451V18.5494ZM36.5665 21.9106C36.5665 21.19 36.3638 20.6269 35.9584 20.2216C35.5643 19.8049 35.0744 19.5966 34.4889 19.5966C33.9146 19.5966 33.4248 19.8049 33.0194 20.2216C32.6253 20.6382 32.4282 21.2068 32.4282 21.9275C32.4282 22.6482 32.6253 23.2168 33.0194 23.6335C33.4248 24.0501 33.9146 24.2584 34.4889 24.2584C35.0632 24.2584 35.553 24.0501 35.9584 23.6335C36.3638 23.2056 36.5665 22.6313 36.5665 21.9106ZM49.9052 21.7755C49.9052 22.0457 49.8883 22.3273 49.8545 22.62H43.3178C43.3629 23.2056 43.5487 23.656 43.8752 23.9713C44.213 24.2753 44.6241 24.4273 45.1083 24.4273C45.8289 24.4273 46.33 24.1233 46.6115 23.5152H49.6856C49.528 24.1346 49.2408 24.692 48.8242 25.1874C48.4188 25.6829 47.9065 26.0714 47.2872 26.3529C46.6678 26.6344 45.9753 26.7751 45.2096 26.7751C44.2862 26.7751 43.4642 26.5781 42.7436 26.184C42.0229 25.7899 41.4599 25.2268 41.0545 24.4949C40.6491 23.763 40.4464 22.9072 40.4464 21.9275C40.4464 20.9479 40.6435 20.0921 41.0376 19.3601C41.443 18.6282 42.006 18.0652 42.7267 17.6711C43.4473 17.2769 44.275 17.0799 45.2096 17.0799C46.1217 17.0799 46.9325 17.2713 47.6419 17.6542C48.3513 18.037 48.903 18.5832 49.2971 19.2926C49.7025 20.002 49.9052 20.8296 49.9052 21.7755ZM46.9493 21.0154C46.9493 20.52 46.7804 20.1258 46.4426 19.8331C46.1048 19.5403 45.6825 19.3939 45.1758 19.3939C44.6916 19.3939 44.2806 19.5347 43.9428 19.8162C43.6162 20.0977 43.4136 20.4974 43.3347 21.0154H46.9493ZM54.3172 18.7858C54.6551 18.2679 55.0773 17.8625 55.584 17.5697C56.0908 17.2657 56.6538 17.1137 57.2731 17.1137V20.1709H56.4793C55.7586 20.1709 55.2181 20.3285 54.8577 20.6438C54.4974 20.9479 54.3172 21.4884 54.3172 22.2653V26.64H51.4289V17.215H54.3172V18.7858Z" fill="#1C242D"/>
<path d="M58.6741 26.64V14.3559H66.8075V16.4972H61.2713V19.4243H66.2677V21.5656H61.2713V26.64H58.6741ZM71.0182 26.814C70.4304 26.814 69.9066 26.712 69.4467 26.5081C68.9869 26.3001 68.623 25.9942 68.3551 25.5903C68.0911 25.1825 67.9592 24.6746 67.9592 24.0668C67.9592 23.555 68.0532 23.1251 68.2411 22.7772C68.429 22.4293 68.685 22.1494 69.0089 21.9375C69.3328 21.7256 69.7006 21.5656 70.1125 21.4576C70.5284 21.3497 70.9642 21.2737 71.4201 21.2297C71.9559 21.1737 72.3878 21.1218 72.7157 21.0738C73.0436 21.0218 73.2815 20.9458 73.4295 20.8458C73.5774 20.7459 73.6514 20.5979 73.6514 20.402V20.366C73.6514 19.9861 73.5314 19.6922 73.2915 19.4843C73.0556 19.2763 72.7197 19.1724 72.2838 19.1724C71.824 19.1724 71.4581 19.2743 71.1862 19.4783C70.9143 19.6782 70.7343 19.9301 70.6463 20.234L68.2831 20.0421C68.403 19.4823 68.639 18.9984 68.9909 18.5905C69.3427 18.1787 69.7966 17.8628 70.3524 17.6428C70.9123 17.4189 71.5601 17.307 72.2958 17.307C72.8077 17.307 73.2975 17.3669 73.7654 17.4869C74.2372 17.6069 74.6551 17.7928 75.019 18.0447C75.3868 18.2966 75.6768 18.6205 75.8887 19.0164C76.1006 19.4083 76.2066 19.8781 76.2066 20.426V26.64H73.7834V25.3624H73.7114C73.5634 25.6503 73.3655 25.9042 73.1176 26.1242C72.8696 26.3401 72.5717 26.5101 72.2238 26.634C71.876 26.754 71.4741 26.814 71.0182 26.814ZM71.75 25.0505C72.1259 25.0505 72.4578 24.9765 72.7457 24.8286C73.0336 24.6766 73.2595 24.4727 73.4235 24.2168C73.5874 23.9609 73.6694 23.6709 73.6694 23.3471V22.3694C73.5894 22.4213 73.4794 22.4693 73.3395 22.5133C73.2035 22.5533 73.0496 22.5913 72.8776 22.6273C72.7057 22.6593 72.5337 22.6893 72.3618 22.7172C72.1899 22.7412 72.0339 22.7632 71.8939 22.7832C71.594 22.8272 71.3321 22.8972 71.1082 22.9932C70.8843 23.0891 70.7103 23.2191 70.5864 23.383C70.4624 23.543 70.4004 23.7429 70.4004 23.9829C70.4004 24.3307 70.5264 24.5967 70.7783 24.7806C71.0342 24.9605 71.3581 25.0505 71.75 25.0505ZM78.189 26.64V17.4269H80.6242V19.0524H80.7322C80.9241 18.5126 81.244 18.0867 81.6919 17.7748C82.1397 17.4629 82.6755 17.307 83.2994 17.307C83.9312 17.307 84.469 17.4649 84.9128 17.7808C85.3567 18.0927 85.6526 18.5166 85.8006 19.0524H85.8965C86.0845 18.5246 86.4244 18.1027 86.9162 17.7868C87.4121 17.4669 87.9979 17.307 88.6737 17.307C89.5334 17.307 90.2312 17.5809 90.767 18.1287C91.3068 18.6725 91.5767 19.4443 91.5767 20.444V26.64H89.0275V20.9478C89.0275 20.436 88.8916 20.0521 88.6197 19.7962C88.3478 19.5402 88.0079 19.4123 87.6 19.4123C87.1361 19.4123 86.7743 19.5602 86.5143 19.8561C86.2544 20.1481 86.1245 20.5339 86.1245 21.0138V26.64H83.6472V20.8938C83.6472 20.442 83.5173 20.0821 83.2574 19.8142C83.0014 19.5462 82.6636 19.4123 82.2437 19.4123C81.9598 19.4123 81.7039 19.4843 81.4759 19.6282C81.252 19.7682 81.0741 19.9661 80.9421 20.222C80.8101 20.474 80.7442 20.7699 80.7442 21.1098V26.64H78.189Z" fill="#00A2FE"/>
<path d="M97.1393 12.5596C96.9404 12.3481 96.7042 12.1802 96.4442 12.0657C96.1843 11.9512 95.9057 11.8923 95.6243 11.8923C95.3429 11.8923 95.0643 11.9512 94.8043 12.0657C94.5444 12.1802 94.3082 12.3481 94.1093 12.5596L93.6965 12.9985L93.2836 12.5596C92.8818 12.1325 92.3369 11.8925 91.7686 11.8925C91.2004 11.8925 90.6554 12.1325 90.2536 12.5596C89.8518 12.9868 89.6261 13.5662 89.6261 14.1703C89.6261 14.7744 89.8518 15.3538 90.2536 15.7809L90.6665 16.2198L93.6965 19.4411L96.7265 16.2198L97.1393 15.7809C97.3383 15.5695 97.4962 15.3184 97.6039 15.042C97.7116 14.7657 97.767 14.4694 97.767 14.1703C97.767 13.8711 97.7116 13.5749 97.6039 13.2986C97.4962 13.0222 97.3383 12.7711 97.1393 12.5596Z" fill="#E00063"/>
</svg>
